<?xml version="1.0" standalone="no"?>
<!DOCTYPE svg PUBLIC "-//W3C//DTD SVG 1.1//EN" "http://www.w3.org/Graphics/SVG/1.1/DTD/svg11.dtd" >
<svg xmlns="http://www.w3.org/2000/svg" xmlns:xlink="http://www.w3.org/1999/xlink" version="1.1">
<metadata>
Created by FontForge 20200511 at Tue May 29 16:35:40 2018
 By convertio
Copyright (c) 2015, 2018 by Jakob Runge, under exclusive license to TypeMates. All rights reserved.
</metadata>
<defs>
<font id="CeraCondensedPro-Medium" horiz-adv-x="400" >
  <font-face 
    font-family="Cera Condensed Pro"
    font-weight="500"
    font-stretch="normal"
    units-per-em="1000"
    panose-1="0 0 6 0 0 0 0 0 0 0"
    ascent="808"
    descent="-192"
    x-height="491"
    cap-height="660"
    bbox="-410 -256 1229.09 1000"
    underline-thickness="67"
    underline-position="-99"
    unicode-range="U+0020-FB02"
  />
<missing-glyph horiz-adv-x="499" 
d="M53 660h392v-660h-392v660zM382 69v530h-273z" />
    <glyph glyph-name="fi" unicode="fi" horiz-adv-x="445" 
d="M167 614v-123h75v-82h-75v-409h-94v409h-66v82h66v135q0 66 33.5 100.5t97.5 34.5q28 0 49 -6v-81q-5 0 -11 0.5t-9.5 1t-5.5 0.5q-33 0 -46.5 -15.5t-13.5 -46.5zM305 0v491h94v-491h-94zM289 671q0 27 18.5 45t44.5 18t44.5 -18t18.5 -45q0 -26 -18.5 -44.5
t-44.5 -18.5t-44.5 18.5t-18.5 44.5z" />
    <glyph glyph-name="fl" unicode="fl" horiz-adv-x="445" 
d="M167 614v-123h75v-82h-75v-409h-94v409h-66v82h66v135q0 66 33.5 100.5t97.5 34.5q28 0 49 -6v-81q-5 0 -11 0.5t-9.5 1t-5.5 0.5q-33 0 -46.5 -15.5t-13.5 -46.5zM305 0v750h94v-750h-94z" />
    <glyph glyph-name=".notdef" horiz-adv-x="499" 
d="M53 660h392v-660h-392v660zM382 69v530h-273z" />
    <glyph glyph-name=".null" horiz-adv-x="0" 
 />
    <glyph glyph-name="nonmarkingreturn" horiz-adv-x="333" 
 />
    <glyph glyph-name="space" unicode=" " horiz-adv-x="200" 
 />
    <glyph glyph-name="exclam" unicode="!" horiz-adv-x="257" 
d="M91 212l-17 448h110l-17 -448h-76zM64 53q0 28 18.5 46t45.5 18t46 -18.5t19 -45.5t-19 -45.5t-46 -18.5t-45.5 18.5t-18.5 45.5z" />
    <glyph glyph-name="quotedbl" unicode="&#x22;" horiz-adv-x="388" 
d="M57 397l7 263h107l-40 -263h-74zM234 397l7 263h107l-40 -263h-74z" />
    <glyph glyph-name="numbersign" unicode="#" horiz-adv-x="441" 
d="M422 414h-63l-21 -168h69v-81h-79l-21 -165h-78l20 165h-98l-21 -165h-78l20 165h-53v81h63l21 168h-69v81h79l20 165h79l-20 -165h98l20 165h80l-21 -165h53v-81zM160 243h99l21 174h-98z" />
    <glyph glyph-name="dollar" unicode="$" horiz-adv-x="377" 
d="M232 27v-121h-88v123q-89 23 -130 126l69 36q44 -84 102 -84q33 0 51.5 18t18.5 49q0 27 -14.5 50.5t-53.5 58.5l-61 54q-49 44 -69 80t-20 78q0 55 28.5 89.5t78.5 46.5v119h88v-119q74 -18 108 -102l-69 -35q-18 32 -35.5 44.5t-42.5 12.5q-26 0 -43.5 -14.5
t-17.5 -42.5q0 -39 61 -94l62 -54q52 -48 74 -84.5t22 -85.5q0 -58 -32 -98t-87 -51z" />
    <glyph glyph-name="percent" unicode="%" horiz-adv-x="637" 
d="M40 509q0 79 30 120.5t88 41.5q60 0 91.5 -41.5t31.5 -120.5t-31.5 -120.5t-91.5 -41.5q-58 0 -88 41.5t-30 120.5zM139 0l272 660h82l-272 -660h-82zM205 509q0 51 -10.5 72t-34.5 21t-34 -21t-10 -72q0 -50 10 -71.5t34 -21.5t34.5 21.5t10.5 71.5zM355 151
q0 79 31.5 120.5t90.5 41.5q58 0 89 -41.5t31 -120.5t-31 -120.5t-89 -41.5q-122 0 -122 162zM520 151q0 50 -10 71.5t-34 21.5t-34 -21t-10 -72t10 -72t34 -21t34 21.5t10 71.5z" />
    <glyph glyph-name="ampersand" unicode="&#x26;" horiz-adv-x="450" 
d="M362 121l70 -121h-95l-26 44q-49 -55 -120 -55q-70 0 -115 48t-45 124q0 94 92 195l4 4l-7 12q-56 95 -56 160q0 61 37 100t96 39q58 0 93.5 -37.5t35.5 -98.5q0 -76 -79 -166l-17 -20l84 -145q20 47 49 132l72 -31q-35 -110 -73 -184zM148 531q0 -39 40 -110l5 5
q47 56 47 104q0 28 -12 44t-33 16t-34 -16t-13 -43zM268 119l-99 169q-51 -65 -51 -118q0 -42 20.5 -67.5t54.5 -25.5q40 0 75 42z" />
    <glyph glyph-name="quotesingle" unicode="'" horiz-adv-x="211" 
d="M57 397l7 263h107l-40 -263h-74z" />
    <glyph glyph-name="parenleft" unicode="(" horiz-adv-x="256" 
d="M48 302q0 166 33 271t106 169l53 -51q-56 -62 -81.5 -154t-25.5 -235t25.5 -235t81.5 -154l-53 -52q-73 64 -106 169.5t-33 271.5z" />
    <glyph glyph-name="parenright" unicode=")" horiz-adv-x="257" 
d="M70 -139l-54 52q56 62 81.5 154t25.5 235t-25.5 235t-81.5 154l54 51q73 -64 106 -169t33 -271t-33 -271.5t-106 -169.5z" />
    <glyph glyph-name="asterisk" unicode="*" horiz-adv-x="387" 
d="M352 644l-84 -59l84 -60l-27 -48l-94 44l-10 -102h-55l-10 102l-94 -44l-28 48l85 60l-85 59l28 47l94 -42l10 101h55l10 -101l94 42z" />
    <glyph glyph-name="plus" unicode="+" 
d="M156 127v147h-132v85h132v146h89v-146h131v-85h-131v-147h-89z" />
    <glyph glyph-name="comma" unicode="," horiz-adv-x="200" 
d="M45 -179l7 277h107l-36 -277h-78z" />
    <glyph glyph-name="hyphen" unicode="-" horiz-adv-x="238" 
d="M32 274v85h174v-85h-174z" />
    <glyph glyph-name="period" unicode="." horiz-adv-x="200" 
d="M36 53q0 28 18.5 46t45.5 18t45.5 -18t18.5 -46t-18.5 -46t-45.5 -18t-45.5 18t-18.5 46z" />
    <glyph glyph-name="slash" unicode="/" horiz-adv-x="462" 
d="M2 -121l360 901h98l-361 -901h-97z" />
    <glyph glyph-name="zero" unicode="0" horiz-adv-x="434" 
d="M40 330q0 180 42 260.5t136 80.5q92 0 134 -80.5t42 -260.5t-42 -260.5t-134 -80.5q-94 0 -136 80.5t-42 260.5zM298 330q0 142 -17.5 197.5t-62.5 55.5q-46 0 -64 -55.5t-18 -197.5q0 -141 18.5 -197t63.5 -56q44 0 62 56t18 197z" />
    <glyph glyph-name="one" unicode="1" horiz-adv-x="280" 
d="M162 660h51v-660h-96v540l-79 -37l-28 84z" />
    <glyph glyph-name="two" unicode="2" horiz-adv-x="390" 
d="M163 84h198v-84h-329v41l134 221q50 86 67 127q20 51 20 102q0 92 -63 92q-29 0 -45.5 -23t-16.5 -66q0 -30 4 -58h-93q-5 28 -5 64q0 76 43 123.5t115 47.5t114.5 -46t42.5 -126q0 -61 -23 -122q-22 -58 -86 -165z" />
    <glyph glyph-name="three" unicode="3" horiz-adv-x="360" 
d="M337 200q0 -99 -44.5 -155t-123.5 -56q-65 0 -107 41.5t-55 118.5l85 22q17 -93 76 -93q73 0 73 118q0 69 -23 97t-75 28h-55v39l114 214h-176v86h297v-42l-118 -217q64 -9 98 -61t34 -140z" />
    <glyph glyph-name="four" unicode="4" horiz-adv-x="405" 
d="M395 205v-85h-54v-120h-95v120h-232v50l133 490h94l-122 -455h127v216h95v-216h54z" />
    <glyph glyph-name="five" unicode="5" horiz-adv-x="370" 
d="M345 200q0 -99 -45 -155t-123 -56q-65 0 -107.5 41.5t-54.5 118.5l84 22q17 -93 76 -93q74 0 74 118q0 71 -23 98t-77 27h-98v339h270v-86h-181v-173q15 4 41 4q80 0 122 -52.5t42 -152.5z" />
    <glyph glyph-name="six" unicode="6" horiz-adv-x="369" 
d="M347 212q0 -109 -42.5 -166t-119.5 -57t-119.5 55.5t-42.5 161.5q0 60 13 105q12 41 49 120l105 229h106l-109 -229q3 1 14 1q146 0 146 -220zM253 214q0 138 -68 138t-68 -143q0 -133 68 -133t68 138z" />
    <glyph glyph-name="seven" unicode="7" horiz-adv-x="362" 
d="M8 660h329v-42l-182 -618h-96l172 574h-223v86z" />
    <glyph glyph-name="eight" unicode="8" horiz-adv-x="404" 
d="M377 164q0 -83 -46 -129t-129 -46q-82 0 -128 46t-46 128q0 60 25.5 102t85.5 80q-52 41 -72.5 77.5t-20.5 85.5q0 78 41 120.5t115 42.5t115 -42.5t41 -119.5q0 -49 -20.5 -85.5t-71.5 -77.5q60 -39 85.5 -80.5t25.5 -101.5zM132 510q0 -69 70 -118q38 27 54 54t16 64
q0 38 -19 60.5t-51 22.5q-33 0 -51.5 -22.5t-18.5 -60.5zM284 159q0 42 -18.5 72t-64.5 64q-45 -33 -63 -63.5t-18 -72.5q0 -43 21.5 -67.5t60.5 -24.5q38 0 60 24.5t22 67.5z" />
    <glyph glyph-name="nine" unicode="9" horiz-adv-x="379" 
d="M357 458q0 -50 -13 -93q-13 -49 -43 -113l-110 -252h-103l108 241q-4 -1 -16 -1q-76 0 -116.5 55.5t-40.5 158.5t44 160t123 57t123 -56t44 -157zM264 452q0 134 -74 134q-75 0 -75 -133q0 -131 74 -131q75 0 75 130z" />
    <glyph glyph-name="colon" unicode=":" horiz-adv-x="200" 
d="M36 437q0 28 18.5 46t45.5 18t45.5 -18t18.5 -46t-18.5 -46t-45.5 -18t-45.5 18t-18.5 46zM36 53q0 28 18.5 46t45.5 18t45.5 -18t18.5 -46t-18.5 -46t-45.5 -18t-45.5 18t-18.5 46z" />
    <glyph glyph-name="semicolon" unicode=";" horiz-adv-x="200" 
d="M36 437q0 28 18.5 46t45.5 18t45.5 -18t18.5 -46t-18.5 -46t-45.5 -18t-45.5 18t-18.5 46zM45 -179l7 277h107l-36 -277h-78z" />
    <glyph glyph-name="less" unicode="&#x3c;" 
d="M361 522v-95l-209 -111l209 -109v-97l-335 188v37z" />
    <glyph glyph-name="equal" unicode="=" 
d="M32 377v82h336v-82h-336zM32 173v82h336v-82h-336z" />
    <glyph glyph-name="greater" unicode="&#x3e;" 
d="M39 522l335 -187v-37l-335 -188v97l210 109l-210 111v95z" />
    <glyph glyph-name="question" unicode="?" horiz-adv-x="338" 
d="M113 264q0 32 9 56.5t35 62.5q62 91 62 131q0 31 -14.5 49.5t-38.5 18.5q-28 0 -45 -19.5t-27 -64.5l-82 20q31 153 154 153q66 0 106.5 -41t40.5 -109q0 -38 -15 -73.5t-54 -89.5q-27 -38 -36 -60.5t-9 -50.5q0 -19 2 -35h-80q-8 29 -8 52zM100 53q0 28 18.5 46t45.5 18
t45.5 -18t18.5 -46t-18.5 -46t-45.5 -18t-45.5 18t-18.5 46z" />
    <glyph glyph-name="at" unicode="@" horiz-adv-x="697" 
d="M667 291q0 -126 -54 -191.5t-159 -65.5h-39v35q-30 -44 -88 -44q-62 0 -95.5 54.5t-33.5 155.5q0 105 33 160.5t96 55.5q59 0 88 -48v39h84v-324q45 7 65 46.5t20 120.5q0 293 -219 293q-121 0 -185 -86t-64 -246t61 -245.5t175 -85.5q45 0 88 13l9 -78q-37 -18 -98 -18
q-155 0 -238 106.5t-83 305.5q0 200 87 307.5t248 107.5q146 0 224 -94.5t78 -273.5zM410 235q0 137 -60 137t-60 -137q0 -131 60 -131t60 131z" />
    <glyph glyph-name="A" unicode="A" horiz-adv-x="448" 
d="M342 0l-29 114h-178l-29 -114h-98l190 660h52l191 -660h-99zM224 465l-68 -269h136z" />
    <glyph glyph-name="B" unicode="B" horiz-adv-x="440" 
d="M419 187q0 -84 -53.5 -135.5t-140.5 -51.5h-175v660h149q89 0 139.5 -46t50.5 -126q0 -93 -68 -137q46 -22 72 -65t26 -99zM196 575h-52v-187h53q96 0 96 95q0 92 -97 92zM323 194q0 53 -28 82t-81 29h-70v-220h69q110 0 110 109z" />
    <glyph glyph-name="C" unicode="C" horiz-adv-x="426" 
d="M30 331q0 173 48.5 256.5t149.5 83.5q72 0 114.5 -40.5t59.5 -126.5l-88 -22q-22 100 -86 100q-52 0 -76 -60.5t-24 -190.5q0 -132 24 -192.5t76 -60.5q64 0 86 100l88 -22q-17 -86 -59.5 -126.5t-114.5 -40.5q-101 0 -149.5 84t-48.5 258z" />
    <glyph glyph-name="D" unicode="D" horiz-adv-x="465" 
d="M50 0v660h135q124 0 186.5 -78.5t62.5 -249.5q0 -172 -63 -252t-186 -80h-135zM147 88h40q76 0 112.5 57.5t36.5 187.5q0 129 -36.5 184t-112.5 55h-40v-484z" />
    <glyph glyph-name="E" unicode="E" horiz-adv-x="390" 
d="M50 0v660h303v-87h-206v-179h158v-86h-158v-220h215v-88h-312z" />
    <glyph glyph-name="F" unicode="F" horiz-adv-x="367" 
d="M50 0v660h296v-87h-199v-207h163v-88h-163v-278h-97z" />
    <glyph glyph-name="G" unicode="G" horiz-adv-x="440" 
d="M30 333q0 172 50 255t154 83q72 0 115.5 -38.5t63.5 -119.5l-87 -23q-13 48 -35 70t-57 22q-56 0 -81 -59.5t-25 -191.5q0 -133 26.5 -193t85.5 -60q53 0 79 44v137h-91v86h188v-243q-24 -53 -70 -83t-104 -30q-107 0 -159.5 84.5t-52.5 259.5z" />
    <glyph glyph-name="H" unicode="H" horiz-adv-x="485" 
d="M50 0v660h97v-265h191v265h97v-660h-97v307h-191v-307h-97z" />
    <glyph glyph-name="I" unicode="I" horiz-adv-x="197" 
d="M50 0v660h97v-660h-97z" />
    <glyph glyph-name="J" unicode="J" horiz-adv-x="266" 
d="M10 -2v85q38 -5 45 -5q64 0 64 69v513h96v-533q0 -138 -139 -138q-32 0 -66 9z" />
    <glyph glyph-name="K" unicode="K" horiz-adv-x="457" 
d="M50 660h97v-660h-97v660zM256 352l186 -352h-109l-186 353l178 307h109z" />
    <glyph glyph-name="L" unicode="L" horiz-adv-x="347" 
d="M50 0v660h97v-572h186v-88h-283z" />
    <glyph glyph-name="M" unicode="M" horiz-adv-x="543" 
d="M441 660h51v-660h-97v381l-107 -207h-34l-107 207v-381h-97v660h52l169 -330z" />
    <glyph glyph-name="N" unicode="N" horiz-adv-x="485" 
d="M338 660h97v-660h-52l-236 411v-411h-97v660h52l236 -412v412z" />
    <glyph glyph-name="O" unicode="O" horiz-adv-x="464" 
d="M30 331q0 175 49 257.5t152 82.5q104 0 153.5 -82.5t49.5 -256.5q0 -175 -49.5 -259t-153.5 -84q-103 0 -152 83.5t-49 258.5zM336 331q0 133 -24.5 192t-80.5 59q-54 0 -78.5 -58.5t-24.5 -192.5q0 -135 24 -194t79 -59q56 0 80.5 59t24.5 194z" />
    <glyph glyph-name="P" unicode="P" horiz-adv-x="436" 
d="M50 0v660h161q97 0 150.5 -52.5t53.5 -148.5t-53.5 -149t-150.5 -53h-64v-257h-97zM147 345h64q105 0 105 114q0 113 -105 113h-64v-227z" />
    <glyph glyph-name="Q" unicode="Q" horiz-adv-x="464" 
d="M501 -108v-77q-17 -5 -39 -5q-64 0 -104.5 37t-93.5 144q-26 -2 -33 -2q-103 0 -152 83.5t-49 258.5t49 257.5t152 82.5q104 0 153.5 -82.5t49.5 -256.5q0 -232 -89 -306q44 -86 68.5 -109.5t67.5 -25.5q15 0 20 1zM231 78q56 0 80.5 59t24.5 194q0 133 -24.5 192
t-80.5 59q-54 0 -78.5 -58.5t-24.5 -192.5q0 -135 24 -194t79 -59z" />
    <glyph glyph-name="R" unicode="R" horiz-adv-x="457" 
d="M447 0h-104l-115 257h-17h-64v-257h-97v660h161q97 0 150.5 -52.5t53.5 -148.5q0 -132 -96 -179zM147 345h64q105 0 105 114q0 113 -105 113h-64v-227z" />
    <glyph glyph-name="S" unicode="S" horiz-adv-x="411" 
d="M18 150l84 30q17 -55 41 -79t62 -24q37 0 58.5 22t21.5 59q0 30 -16 55t-60 64l-50 45q-61 57 -86.5 99.5t-25.5 90.5q0 72 46 115.5t121 43.5q67 0 108.5 -36.5t63.5 -113.5l-85 -28q-14 49 -33 69.5t-50 20.5q-34 0 -54 -19t-20 -51q0 -25 15 -48.5t52 -57.5l51 -46
q69 -62 93 -107q27 -45 27 -98q0 -76 -48.5 -121.5t-128.5 -45.5q-146 0 -187 161z" />
    <glyph glyph-name="T" unicode="T" horiz-adv-x="405" 
d="M154 0v571h-142v89h381v-89h-142v-571h-97z" />
    <glyph glyph-name="U" unicode="U" horiz-adv-x="478" 
d="M46 193v467h97v-471q0 -53 25 -82t71 -29t70.5 29t24.5 82v471h97v-467q0 -94 -51.5 -149t-140.5 -55t-141 55t-52 149z" />
    <glyph glyph-name="V" unicode="V" horiz-adv-x="450" 
d="M340 660h103l-192 -660h-52l-191 660h102l115 -422z" />
    <glyph glyph-name="W" unicode="W" horiz-adv-x="699" 
d="M582 660h103l-173 -660h-51l-111 416l-112 -416h-52l-171 660h102l100 -418l108 418h50l108 -416z" />
    <glyph glyph-name="X" unicode="X" horiz-adv-x="436" 
d="M421 660l-141 -331l141 -329h-108l-95 236l-96 -236h-107l142 329l-142 331h106l97 -240l97 240h106z" />
    <glyph glyph-name="Y" unicode="Y" horiz-adv-x="424" 
d="M415 660l-154 -399v-261h-97v259l-154 401h105l98 -278l98 278h104z" />
    <glyph glyph-name="Z" unicode="Z" horiz-adv-x="384" 
d="M139 88h229v-88h-352v42l230 530h-211v88h329v-42z" />
    <glyph glyph-name="bracketleft" unicode="[" horiz-adv-x="252" 
d="M63 -131v860h162v-76h-74v-707h74v-77h-162z" />
    <glyph glyph-name="backslash" unicode="\" horiz-adv-x="462" 
d="M362 -121l-360 901h98l360 -901h-98z" />
    <glyph glyph-name="bracketright" unicode="]" horiz-adv-x="251" 
d="M26 -131v77h75v707h-75v76h162v-860h-162z" />
    <glyph glyph-name="asciicircum" unicode="^" horiz-adv-x="378" 
d="M344 282h-90l-65 209l-65 -209h-90l132 378h46z" />
    <glyph glyph-name="underscore" unicode="_" horiz-adv-x="350" 
d="M25 -152v79h300v-79h-300z" />
    <glyph glyph-name="grave" unicode="`" horiz-adv-x="223" 
d="M125 576l-95 172v16h111l51 -188h-67z" />
    <glyph glyph-name="a" unicode="a" horiz-adv-x="384" 
d="M340 346v-346h-87v39q-36 -50 -104 -50q-56 0 -91 38t-35 99q0 66 40.5 105.5t108.5 39.5h74v68q0 37 -17.5 57t-49.5 20q-51 0 -84 -64l-63 47q48 103 157 103q70 0 110.5 -41.5t40.5 -114.5zM246 137v64h-58q-34 0 -53.5 -18.5t-19.5 -51.5q0 -30 17 -47.5t46 -17.5
q30 0 49 20t19 51z" />
    <glyph glyph-name="b" unicode="b" horiz-adv-x="404" 
d="M375 245q0 -256 -146 -256q-68 0 -96 55v-44h-86v750h94v-293q31 45 90 45q144 0 144 -257zM280 246q0 90 -16.5 130t-54.5 40q-37 0 -53 -39t-16 -131t16.5 -132t52.5 -40q37 0 54 41t17 131z" />
    <glyph glyph-name="c" unicode="c" horiz-adv-x="355" 
d="M29 246q0 256 164 256q59 0 93.5 -32t49.5 -100l-82 -22q-9 37 -23 52.5t-38 15.5q-38 0 -53.5 -38.5t-15.5 -131.5q0 -94 15.5 -133t53.5 -39q25 0 38.5 15t22.5 53l82 -21q-15 -68 -49.5 -100t-93.5 -32q-83 0 -123.5 63t-40.5 194z" />
    <glyph glyph-name="d" unicode="d" horiz-adv-x="404" 
d="M263 750h94v-750h-86v44q-30 -55 -98 -55q-144 0 -144 258q0 255 144 255q60 0 90 -45v293zM263 246q0 93 -15.5 131.5t-52.5 38.5q-38 0 -54.5 -39.5t-16.5 -130.5t16.5 -131.5t54.5 -40.5q36 0 52 40t16 132z" />
    <glyph glyph-name="e" unicode="e" horiz-adv-x="372" 
d="M279 129l64 -48q-51 -92 -143 -92q-171 0 -171 257q0 256 162 256q151 0 151 -220q0 -36 -5 -69h-214q3 -75 22 -107.5t59 -32.5q44 0 75 56zM123 287h132q1 133 -63 133q-34 0 -50.5 -31.5t-18.5 -101.5z" />
    <glyph glyph-name="f" unicode="f" horiz-adv-x="247" 
d="M167 614v-123h75v-82h-75v-409h-94v409h-66v82h66v135q0 66 33.5 100.5t97.5 34.5q28 0 49 -6v-81q-5 0 -11 0.5t-9.5 1t-5.5 0.5q-33 0 -46.5 -15.5t-13.5 -46.5z" />
    <glyph glyph-name="g" unicode="g" horiz-adv-x="402" 
d="M270 491h85v-517q0 -76 -45 -120.5t-122 -44.5q-107 0 -159 97l65 51q39 -63 88 -63q37 0 58.5 22t21.5 60v78q-28 -42 -91 -42q-142 0 -142 243q0 247 143 247q67 0 98 -58v47zM262 255q0 85 -15.5 123t-51.5 38q-72 0 -72 -161q0 -159 72 -159q36 0 51.5 37.5
t15.5 121.5z" />
    <glyph glyph-name="h" unicode="h" horiz-adv-x="409" 
d="M365 357v-357h-93v348q0 31 -18 49.5t-47 18.5t-47.5 -19t-18.5 -49v-348h-94v750h94v-283q35 35 92 35q59 0 95.5 -40t36.5 -105z" />
    <glyph glyph-name="i" unicode="i" horiz-adv-x="187" 
d="M47 0v491h94v-491h-94zM31 671q0 27 18.5 45t44.5 18t44.5 -18t18.5 -45q0 -26 -18.5 -44.5t-44.5 -18.5t-44.5 18.5t-18.5 44.5z" />
    <glyph glyph-name="j" unicode="j" horiz-adv-x="187" 
d="M-26 -185v81q4 0 9 -0.5t8 -1t4 -0.5q52 0 52 58v539h94v-552q0 -62 -33 -95.5t-93 -33.5q-24 0 -41 5zM31 671q0 27 18.5 45t44.5 18t44.5 -18t18.5 -45q0 -26 -18.5 -44.5t-44.5 -18.5t-44.5 18.5t-18.5 44.5z" />
    <glyph glyph-name="k" unicode="k" horiz-adv-x="392" 
d="M387 0h-105l-141 270v-270h-94v750h94v-476l133 217h109l-137 -224z" />
    <glyph glyph-name="l" unicode="l" horiz-adv-x="187" 
d="M47 0v750h94v-750h-94z" />
    <glyph glyph-name="m" unicode="m" horiz-adv-x="628" 
d="M585 357v-357h-94v348q0 30 -17.5 49t-44.5 19q-29 0 -48 -19t-19 -49v-348h-94v348q0 30 -17 49t-44 19q-29 0 -47.5 -19t-18.5 -49v-348h-94v491h87v-32q34 43 103 43q65 0 100 -54q42 54 114 54q59 0 96.5 -40.5t37.5 -104.5z" />
    <glyph glyph-name="n" unicode="n" horiz-adv-x="409" 
d="M365 357v-357h-93v348q0 30 -18 49t-46 19q-29 0 -48 -19t-19 -49v-348h-94v491h87v-33q33 44 99 44q59 0 95.5 -40t36.5 -105z" />
    <glyph glyph-name="o" unicode="o" horiz-adv-x="387" 
d="M29 247q0 255 164 255t164 -255q0 -258 -164 -258t-164 258zM262 244q0 92 -16 132t-53 40q-36 0 -52.5 -40t-16.5 -132t16 -131t53 -39t53 39t16 131z" />
    <glyph glyph-name="p" unicode="p" horiz-adv-x="404" 
d="M375 245q0 -256 -146 -256q-58 0 -88 41v-210h-94v671h86v-47q31 58 96 58q146 0 146 -257zM280 245q0 92 -17 131.5t-56 39.5q-36 0 -52 -40t-16 -132q0 -90 16 -130t52 -40q38 0 55.5 40.5t17.5 130.5z" />
    <glyph glyph-name="q" unicode="q" horiz-adv-x="404" 
d="M271 491h86v-671h-94v211q-30 -42 -90 -42q-144 0 -144 255q0 258 144 258q67 0 98 -58v47zM263 244q0 94 -15.5 133.5t-51.5 39.5q-37 0 -54.5 -41t-17.5 -132t17 -130.5t55 -39.5q36 0 51.5 39t15.5 131z" />
    <glyph glyph-name="r" unicode="r" horiz-adv-x="272" 
d="M260 492v-94h-27q-43 0 -67.5 -24t-24.5 -65v-309h-94v491h86v-50q31 54 99 54q17 0 28 -3z" />
    <glyph glyph-name="s" unicode="s" horiz-adv-x="343" 
d="M15 98l67 40q32 -66 86 -66q26 0 42 15t16 40q0 19 -12 34.5t-42 37.5l-35 24q-51 37 -74.5 72t-23.5 76q0 59 38.5 95t101.5 36q103 0 142 -96l-67 -42q-24 56 -71 56q-23 0 -36.5 -13t-13.5 -35q0 -34 45 -69l32 -22q59 -42 84 -77t25 -78q0 -61 -41.5 -99t-107.5 -38
q-112 0 -155 109z" />
    <glyph glyph-name="t" unicode="t" horiz-adv-x="281" 
d="M265 77v-80q-26 -8 -58 -8q-64 0 -98 33t-34 95v292h-66v82h66v129h94v-129h87v-82h-87v-282q0 -53 58 -53q25 0 38 3z" />
    <glyph glyph-name="u" unicode="u" horiz-adv-x="406" 
d="M44 149v342h94v-350q0 -67 65 -67t65 67v350h94v-342q0 -73 -43 -116.5t-116 -43.5q-72 0 -115.5 43t-43.5 117z" />
    <glyph glyph-name="v" unicode="v" horiz-adv-x="389" 
d="M282 491h100l-161 -491h-52l-162 491h101l87 -296z" />
    <glyph glyph-name="w" unicode="w" horiz-adv-x="598" 
d="M492 491h99l-144 -491h-53l-94 310l-95 -310h-54l-144 491h100l77 -296l88 296h54l89 -296z" />
    <glyph glyph-name="x" unicode="x" horiz-adv-x="371" 
d="M366 0h-105l-75 174l-76 -174h-105l122 256l-115 235h106l68 -155l69 155h105l-115 -234z" />
    <glyph glyph-name="y" unicode="y" horiz-adv-x="390" 
d="M283 491h100l-172 -556q-21 -69 -53 -97.5t-88 -28.5q-18 0 -48 6v81q24 -2 31 -2q29 0 44 14t25 48l21 71l-136 464h101l84 -332z" />
    <glyph glyph-name="z" unicode="z" horiz-adv-x="324" 
d="M128 82h183v-82h-299v42l180 367h-165v82h281v-43z" />
    <glyph glyph-name="braceleft" unicode="{" horiz-adv-x="290" 
d="M180 607q0 -38 4 -75l5 -52q7 -59 7 -96q0 -72 -75 -85q75 -13 75 -84q0 -37 -7 -97q-9 -92 -9 -125q0 -47 46 -47h37v-77h-59q-112 0 -112 106q0 60 10 141q6 66 6 83q0 61 -49 61h-27v79h27q49 0 49 60q0 17 -6 84q-10 84 -10 142q0 104 112 104h59v-76h-37
q-46 0 -46 -46z" />
    <glyph glyph-name="bar" unicode="|" horiz-adv-x="239" 
d="M76 -121v901h87v-901h-87z" />
    <glyph glyph-name="braceright" unicode="}" horiz-adv-x="290" 
d="M231 339h27v-79h-27q-49 0 -49 -61q0 -17 6 -83q9 -98 9 -141q0 -106 -109 -106h-62v77h37q47 0 47 47q0 33 -9 125q-7 60 -7 97q0 70 74 84q-74 13 -74 85q0 37 7 96l5 52q4 37 4 75q0 46 -47 46h-37v76h62q109 0 109 -104q0 -43 -9 -142q-6 -67 -6 -84q0 -60 49 -60z
" />
    <glyph glyph-name="asciitilde" unicode="~" 
d="M218 260l-42 28q-31 22 -46 22q-30 0 -30 -37v-24h-76q0 8 -0.5 17t-1 14t-0.5 7q0 52 24 82t66 30q32 0 70 -26l43 -27q37 -24 46 -22q29 0 29 38v25h77q1 -11 1 -39q0 -52 -24 -82.5t-65 -30.5q-31 0 -71 25z" />
    <glyph glyph-name="uni00A0" unicode="&#xa0;" horiz-adv-x="200" 
 />
    <glyph glyph-name="exclamdown" unicode="&#xa1;" horiz-adv-x="257" 
d="M64 458q0 29 18.5 47t45.5 18q28 0 46.5 -18t18.5 -47q0 -27 -19 -45.5t-46 -18.5t-45.5 18.5t-18.5 45.5zM74 -180l18 479h75l17 -479h-110z" />
    <glyph glyph-name="cent" unicode="&#xa2;" horiz-adv-x="401" 
d="M286 222l74 -32q-32 -94 -105 -114v-170h-87v171q-130 36 -130 251q0 105 33 169t97 80v173h87v-172q75 -20 105 -114l-74 -33q-23 67 -72 67q-81 0 -81 -170q0 -173 82 -173q48 0 71 67z" />
    <glyph glyph-name="sterling" unicode="&#xa3;" horiz-adv-x="397" 
d="M163 80h203v-80h-336v42q94 76 94 165q0 21 -3 41h-94v84h73q-21 63 -29 95q-9 36 -9 79q0 74 42.5 119.5t111.5 45.5q65 0 103 -36.5t56 -116.5l-82 -26q-11 51 -27 71.5t-45 20.5q-28 0 -46.5 -22t-18.5 -56q0 -54 32 -152l7 -22h115v-84h-96q3 -19 3 -41
q0 -81 -54 -127z" />
    <glyph glyph-name="currency" unicode="&#xa4;" horiz-adv-x="530" 
d="M415 202l99 -124l-71 -57l-100 125q-35 -15 -77 -15t-78 15l-100 -125l-71 57l99 124q-42 53 -42 128q0 76 42 128l-99 124l71 57l100 -125q36 15 78 15t77 -15l100 125l71 -57l-99 -124q42 -52 42 -128q0 -75 -42 -128zM266 217q44 0 70.5 30.5t26.5 82.5t-26.5 82.5
t-70.5 30.5q-45 0 -71.5 -30.5t-26.5 -82.5q0 -50 27.5 -81.5t70.5 -31.5z" />
    <glyph glyph-name="yen" unicode="&#xa5;" horiz-adv-x="420" 
d="M416 660l-156 -298h126v-80h-128v-83h128v-79h-128v-120h-95v120h-129v79h129v83h-129v80h126l-156 298h104l102 -219l102 219h104z" />
    <glyph glyph-name="brokenbar" unicode="&#xa6;" horiz-adv-x="239" 
d="M76 480v300h87v-300h-87zM76 -121v300h87v-300h-87z" />
    <glyph glyph-name="section" unicode="&#xa7;" horiz-adv-x="414" 
d="M318 79q14 -30 14 -64q0 -61 -39 -99t-101 -38q-64 0 -99.5 31.5t-51.5 101.5l84 22q10 -40 23.5 -54.5t39.5 -14.5q23 0 37.5 15t14.5 38q0 21 -10 38.5t-39 47.5l-110 113q-37 38 -51.5 68t-14.5 67q0 82 82 121q-15 32 -15 62q0 61 39 99t101 38q64 0 99.5 -31
t51.5 -101l-83 -22q-12 40 -25 54.5t-38 14.5q-24 0 -38 -14.5t-14 -39.5q0 -19 10 -36t41 -50l110 -113q35 -36 49.5 -66.5t14.5 -68.5q0 -80 -82 -119zM262 153l14 -15q37 25 37 59q0 20 -8.5 36.5t-34.5 43.5l-113 117l-17 19q-35 -24 -35 -60q0 -21 9 -38t34 -44z" />
    <glyph glyph-name="dieresis" unicode="&#xa8;" horiz-adv-x="341" 
d="M30 672q0 25 17 42t41 17t41 -17.5t17 -41.5t-17.5 -41.5t-40.5 -17.5q-24 0 -41 17.5t-17 41.5zM196 672q0 25 17 42t41 17t41 -17.5t17 -41.5t-17.5 -41.5t-40.5 -17.5q-24 0 -41 17t-17 42z" />
    <glyph glyph-name="copyright" unicode="&#xa9;" horiz-adv-x="648" 
d="M30 330q0 152 81 246.5t212 94.5t213 -94.5t82 -246.5t-82 -246.5t-213 -94.5t-212 94t-81 247zM546 330q0 128 -59 201t-164 73q-104 0 -162.5 -73t-58.5 -201q0 -129 58 -201.5t163 -72.5t164 72.5t59 201.5zM194 329q0 194 138 194q48 0 75.5 -24t40.5 -77l-70 -17
q-13 50 -49 50q-31 0 -44 -28.5t-13 -96.5q0 -67 13 -95.5t44 -28.5q36 0 49 49l70 -16q-24 -103 -118 -103q-136 0 -136 193z" />
    <glyph glyph-name="ordfeminine" unicode="&#xaa;" horiz-adv-x="263" 
d="M230 461v-217h-69v24q-21 -31 -64 -31q-35 0 -57.5 24.5t-22.5 64.5q0 43 25.5 69t67.5 26h44v33q0 39 -36 39q-26 0 -48 -35l-48 39q33 66 106 66q47 0 74.5 -27.5t27.5 -74.5zM154 338v31h-28q-38 0 -38 -38q0 -16 9 -25t23 -9q16 0 25 11t9 30z" />
    <glyph glyph-name="guillemotleft" unicode="&#xab;" horiz-adv-x="423" 
d="M143 65l-124 196v28l124 196l72 -44l-95 -166l95 -166zM327 65l-124 196v28l124 196l72 -44l-95 -166l95 -166z" />
    <glyph glyph-name="logicalnot" unicode="&#xac;" 
d="M257 98v175h-233v83h321v-258h-88z" />
    <glyph glyph-name="uni00AD" unicode="&#xad;" horiz-adv-x="238" 
d="M32 274v85h174v-85h-174z" />
    <glyph glyph-name="registered" unicode="&#xae;" horiz-adv-x="545" 
d="M505 436q0 -108 -66 -180.5t-165 -72.5q-101 0 -167.5 72.5t-66.5 180.5q0 109 66.5 180.5t167.5 71.5q99 0 165 -71.5t66 -180.5zM445 436q0 86 -47.5 140.5t-123.5 54.5q-78 0 -125.5 -54t-47.5 -141q0 -88 47.5 -141.5t125.5 -53.5q76 0 123.5 54.5t47.5 140.5z
M327 406l47 -96h-61l-37 80h-8h-18v-80h-54v251h72q43 0 67.5 -22.5t24.5 -61.5q0 -47 -33 -71zM250 509v-66h20q31 0 31 33t-31 33h-20z" />
    <glyph glyph-name="overscore" unicode="&#xaf;" horiz-adv-x="270" 
d="M30 624v80h210v-80h-210z" />
    <glyph glyph-name="degree" unicode="&#xb0;" horiz-adv-x="316" 
d="M17 527q0 62 40 102q41 41 101 41t101 -41t41 -102t-41 -102q-40 -40 -101 -40t-101 40.5t-40 101.5zM230 527q0 33 -20 54t-52 21q-31 0 -51 -21t-20 -54q0 -32 20 -53.5t51 -21.5t51.5 21.5t20.5 53.5z" />
    <glyph glyph-name="plusminus" unicode="&#xb1;" 
d="M157 160v137h-124v83h124v139h87v-139h124v-83h-124v-137h-87zM33 0v82h335v-82h-335z" />
    <glyph glyph-name="uni00B2" unicode="&#xb2;" horiz-adv-x="289" 
d="M266 434l1 -70h-243v34l94 133q37 51 50 79.5t13 57.5q0 45 -41 45q-19 0 -30 -12t-11 -33q0 -16 3 -33h-73q-3 13 -3 41q0 49 32.5 80t87.5 31q53 0 84 -31t31 -84q0 -42 -17 -81q-15 -34 -64 -102l-40 -55h126z" />
    <glyph glyph-name="uni00B3" unicode="&#xb3;" horiz-adv-x="270" 
d="M253 496q0 -65 -33.5 -102t-91.5 -37q-50 0 -81.5 28.5t-41.5 82.5l71 19q6 -29 18 -41.5t33 -12.5q46 0 46 63q0 35 -15.5 48.5t-50.5 13.5h-42v33l78 117h-123v72h226v-35l-80 -123q41 -8 64 -41t23 -85z" />
    <glyph glyph-name="acute" unicode="&#xb4;" horiz-adv-x="223" 
d="M30 576l51 188h111v-16l-95 -172h-67z" />
    <glyph glyph-name="uni00B5" unicode="&#xb5;" horiz-adv-x="430" 
d="M414 79v-80q-21 -7 -47 -7q-51 0 -77 39q-30 -42 -84 -42q-39 0 -65 20v-189h-94v671h94v-347q0 -32 17.5 -50.5t46.5 -18.5q30 0 48.5 19t18.5 49v348h93v-373q0 -40 31 -40q13 0 18 1z" />
    <glyph glyph-name="paragraph" unicode="&#xb6;" horiz-adv-x="439" 
d="M21 444q0 102 52.5 159t145.5 57h14v-431h-14q-92 0 -145 57.5t-53 157.5zM186 -180v82q36 -6 46 -6q34 0 48 18t14 62v684h94v-692q0 -159 -137 -159q-32 0 -65 11z" />
    <glyph glyph-name="middot" unicode="&#xb7;" horiz-adv-x="200" 
d="M36 316q0 28 18.5 46t45.5 18t45.5 -18t18.5 -46t-18.5 -46t-45.5 -18t-45.5 18t-18.5 46z" />
    <glyph glyph-name="cedilla" unicode="&#xb8;" horiz-adv-x="220" 
d="M29 -183v68q17 -4 33 -4q23 0 36 12t13 33q0 45 -18 94l48 13q50 -47 50 -116q0 -49 -31.5 -78.5t-81.5 -29.5q-31 0 -49 8z" />
    <glyph glyph-name="uni00B9" unicode="&#xb9;" horiz-adv-x="274" 
d="M23 364v70h81v275h-79v71h158v-346h71v-70h-231z" />
    <glyph glyph-name="ordmasculine" unicode="&#xba;" horiz-adv-x="266" 
d="M22 401q0 162 110 162q54 0 82.5 -41.5t28.5 -120.5q0 -164 -110 -164q-111 0 -111 164zM169 400q0 52 -8 73.5t-28 21.5q-19 0 -27 -21t-8 -74q0 -52 8 -73.5t27 -21.5q20 0 28 21.5t8 73.5z" />
    <glyph glyph-name="guillemotright" unicode="&#xbb;" horiz-adv-x="421" 
d="M93 65l-69 44l95 166l-95 166l69 44l125 -196v-28zM277 65l-69 44l95 166l-95 166l69 44l125 -196v-28z" />
    <glyph glyph-name="onequarter" unicode="&#xbc;" horiz-adv-x="703" 
d="M23 244v70h81v275h-79v71h158v-346h71v-70h-231zM191 0l270 660h79l-271 -660h-78zM695 138v-74h-33v-64h-75v64h-162v41l84 311h78l-73 -278h74l3 119h71v-119h33z" />
    <glyph glyph-name="onehalf" unicode="&#xbd;" horiz-adv-x="721" 
d="M23 244v70h81v275h-79v71h158v-346h71v-70h-231zM191 0l270 660h79l-271 -660h-78zM698 70l1 -70h-243v34l94 133q37 51 50 79.5t13 57.5q0 45 -41 45q-19 0 -30 -12t-11 -33q0 -16 3 -33h-73q-3 13 -3 41q0 49 32.5 80t87.5 31q53 0 84 -31t31 -84q0 -42 -17 -81
q-15 -34 -64 -102l-40 -55h126z" />
    <glyph glyph-name="threequarters" unicode="&#xbe;" horiz-adv-x="673" 
d="M253 376q0 -65 -33.5 -102t-91.5 -37q-50 0 -81.5 28.5t-41.5 82.5l71 19q6 -29 18 -41.5t33 -12.5q46 0 46 63q0 35 -15.5 48.5t-50.5 13.5h-42v33l78 117h-123v72h226v-35l-80 -123q41 -8 64 -41t23 -85zM162 0l270 660h79l-271 -660h-78zM665 138v-74h-33v-64h-75v64
h-162v41l84 311h78l-73 -278h74l3 119h71v-119h33z" />
    <glyph glyph-name="questiondown" unicode="&#xbf;" horiz-adv-x="338" 
d="M109 438q0 28 18.5 46t45.5 18t45.5 -18t18.5 -46t-18.5 -46.5t-45.5 -18.5t-45.5 18.5t-18.5 46.5zM25 -41q0 37 15 73.5t54 93.5q27 39 36 62t9 51q0 23 -3 39h80q9 -30 9 -56q0 -32 -9 -58t-35 -64q-36 -55 -49 -83t-13 -55q0 -30 14.5 -47.5t38.5 -17.5
q28 0 44.5 20.5t26.5 64.5l83 -20q-31 -154 -154 -154q-67 0 -107 41.5t-40 109.5z" />
    <glyph glyph-name="Agrave" unicode="&#xc0;" horiz-adv-x="449" 
d="M342 0l-29 114h-178l-29 -114h-98l190 660h52l191 -660h-99zM224 465l-68 -269h136zM188 724l-95 170v16h113l51 -186h-69z" />
    <glyph glyph-name="Aacute" unicode="&#xc1;" horiz-adv-x="449" 
d="M342 0l-29 114h-178l-29 -114h-98l190 660h52l191 -660h-99zM224 465l-68 -269h136zM187 724l51 186h113v-16l-96 -170h-68z" />
    <glyph glyph-name="Acircumflex" unicode="&#xc2;" horiz-adv-x="449" 
d="M342 0l-29 114h-178l-29 -114h-98l190 660h52l191 -660h-99zM224 465l-68 -269h136zM358 724h-74l-60 88l-60 -88h-74l103 186h61z" />
    <glyph glyph-name="Atilde" unicode="&#xc3;" horiz-adv-x="449" 
d="M342 0l-29 114h-178l-29 -114h-98l190 660h52l191 -660h-99zM224 465l-68 -269h136zM236 756l-26 19q-25 19 -36 19q-20 0 -20 -33v-19h-72v34q0 50 19.5 78t54.5 28q22 0 56 -25l27 -20q27 -18 34 -18q21 0 21 33v19h71q2 -18 2 -34q0 -106 -75 -106q-21 0 -56 25z" />
    <glyph glyph-name="Adieresis" unicode="&#xc4;" horiz-adv-x="449" 
d="M342 0l-29 114h-178l-29 -114h-98l190 660h52l191 -660h-99zM224 465l-68 -269h136zM74 811q0 25 17.5 42.5t41.5 17.5t41 -17.5t17 -42.5q0 -24 -17.5 -41.5t-40.5 -17.5q-24 0 -41.5 17.5t-17.5 41.5zM256 811q0 25 17.5 42.5t41.5 17.5q23 0 40.5 -17.5t17.5 -42.5
q0 -24 -17.5 -41.5t-40.5 -17.5q-24 0 -41.5 17t-17.5 42z" />
    <glyph glyph-name="Aring" unicode="&#xc5;" horiz-adv-x="449" 
d="M342 0l-29 114h-178l-29 -114h-98l190 660h52l191 -660h-99zM224 465l-68 -269h136zM113 804q0 47 32 79.5t79 32.5t79.5 -32.5t32.5 -79.5q0 -48 -32.5 -80t-79.5 -32t-79 32.5t-32 79.5zM273 804q0 21 -14.5 36t-34.5 15q-19 0 -33 -15t-14 -36t14 -36t33 -15t34 15
t15 36z" />
    <glyph glyph-name="AE" unicode="&#xc6;" horiz-adv-x="599" 
d="M402 88h168v-88h-255l-11 111h-163l-35 -111h-102l223 660h335v-88h-212l19 -179h143v-86h-134zM264 515l-97 -321h129z" />
    <glyph glyph-name="Ccedilla" unicode="&#xc7;" horiz-adv-x="426" 
d="M30 331q0 173 48.5 256.5t149.5 83.5q72 0 114.5 -40.5t59.5 -126.5l-88 -22q-22 100 -86 100q-52 0 -76 -60.5t-24 -190.5q0 -132 24 -192.5t76 -60.5q64 0 86 100l88 -22q-17 -86 -59.5 -126.5t-114.5 -40.5q-101 0 -149.5 84t-48.5 258zM134 -183v68q17 -4 33 -4
q23 0 36 12t13 33q0 45 -18 94l48 13q50 -47 50 -116q0 -49 -31.5 -78.5t-81.5 -29.5q-31 0 -49 8z" />
    <glyph glyph-name="Egrave" unicode="&#xc8;" horiz-adv-x="390" 
d="M50 0v660h303v-87h-206v-179h158v-86h-158v-220h215v-88h-312zM162 724l-95 170v16h113l51 -186h-69z" />
    <glyph glyph-name="Eacute" unicode="&#xc9;" horiz-adv-x="390" 
d="M50 0v660h303v-87h-206v-179h158v-86h-158v-220h215v-88h-312zM161 724l51 186h113v-16l-96 -170h-68z" />
    <glyph glyph-name="Ecircumflex" unicode="&#xca;" horiz-adv-x="390" 
d="M50 0v660h303v-87h-206v-179h158v-86h-158v-220h215v-88h-312zM332 724h-74l-60 88l-60 -88h-74l103 186h61z" />
    <glyph glyph-name="Edieresis" unicode="&#xcb;" horiz-adv-x="390" 
d="M50 0v660h303v-87h-206v-179h158v-86h-158v-220h215v-88h-312zM48 811q0 25 17.5 42.5t41.5 17.5t41 -17.5t17 -42.5q0 -24 -17.5 -41.5t-40.5 -17.5q-24 0 -41.5 17.5t-17.5 41.5zM230 811q0 25 17.5 42.5t41.5 17.5q23 0 40.5 -17.5t17.5 -42.5q0 -24 -17.5 -41.5
t-40.5 -17.5q-24 0 -41.5 17t-17.5 42z" />
    <glyph glyph-name="Igrave" unicode="&#xcc;" horiz-adv-x="197" 
d="M50 0v660h97v-660h-97zM64 724l-95 170v16h113l51 -186h-69z" />
    <glyph glyph-name="Iacute" unicode="&#xcd;" horiz-adv-x="197" 
d="M50 0v660h97v-660h-97zM62 724l51 186h113v-16l-96 -170h-68z" />
    <glyph glyph-name="Icircumflex" unicode="&#xce;" horiz-adv-x="197" 
d="M50 0v660h97v-660h-97zM233 724h-74l-60 88l-60 -88h-74l103 186h61z" />
    <glyph glyph-name="Idieresis" unicode="&#xcf;" horiz-adv-x="197" 
d="M50 0v660h97v-660h-97zM-51 811q0 25 17.5 42.5t41.5 17.5t41 -17.5t17 -42.5q0 -24 -17.5 -41.5t-40.5 -17.5q-24 0 -41.5 17.5t-17.5 41.5zM131 811q0 25 17.5 42.5t41.5 17.5q23 0 40.5 -17.5t17.5 -42.5q0 -24 -17.5 -41.5t-40.5 -17.5q-24 0 -41.5 17t-17.5 42z" />
    <glyph glyph-name="Eth" unicode="&#xd0;" horiz-adv-x="465" 
d="M434 332q0 -172 -63 -252t-186 -80h-135v278h-55v86h55v296h135q124 0 186.5 -78.5t62.5 -249.5zM336 333q0 129 -36.5 184t-112.5 55h-40v-208h83v-86h-83v-190h40q76 0 112.5 57.5t36.5 187.5z" />
    <glyph glyph-name="Ntilde" unicode="&#xd1;" horiz-adv-x="485" 
d="M338 660h97v-660h-52l-236 411v-411h-97v660h52l236 -412v412zM254 756l-26 19q-25 19 -36 19q-20 0 -20 -33v-19h-72v34q0 50 19.5 78t54.5 28q22 0 56 -25l27 -20q27 -18 34 -18q21 0 21 33v19h71q2 -18 2 -34q0 -106 -75 -106q-21 0 -56 25z" />
    <glyph glyph-name="Ograve" unicode="&#xd2;" horiz-adv-x="464" 
d="M30 331q0 175 49 257.5t152 82.5q104 0 153.5 -82.5t49.5 -256.5q0 -175 -49.5 -259t-153.5 -84q-103 0 -152 83.5t-49 258.5zM336 331q0 133 -24.5 192t-80.5 59q-54 0 -78.5 -58.5t-24.5 -192.5q0 -135 24 -194t79 -59q56 0 80.5 59t24.5 194zM196 724l-95 170v16h113
l51 -186h-69z" />
    <glyph glyph-name="Oacute" unicode="&#xd3;" horiz-adv-x="464" 
d="M30 331q0 175 49 257.5t152 82.5q104 0 153.5 -82.5t49.5 -256.5q0 -175 -49.5 -259t-153.5 -84q-103 0 -152 83.5t-49 258.5zM336 331q0 133 -24.5 192t-80.5 59q-54 0 -78.5 -58.5t-24.5 -192.5q0 -135 24 -194t79 -59q56 0 80.5 59t24.5 194zM194 724l51 186h113v-16
l-96 -170h-68z" />
    <glyph glyph-name="Ocircumflex" unicode="&#xd4;" horiz-adv-x="464" 
d="M30 331q0 175 49 257.5t152 82.5q104 0 153.5 -82.5t49.5 -256.5q0 -175 -49.5 -259t-153.5 -84q-103 0 -152 83.5t-49 258.5zM336 331q0 133 -24.5 192t-80.5 59q-54 0 -78.5 -58.5t-24.5 -192.5q0 -135 24 -194t79 -59q56 0 80.5 59t24.5 194zM365 724h-74l-60 88
l-60 -88h-74l103 186h61z" />
    <glyph glyph-name="Otilde" unicode="&#xd5;" horiz-adv-x="464" 
d="M30 331q0 175 49 257.5t152 82.5q104 0 153.5 -82.5t49.5 -256.5q0 -175 -49.5 -259t-153.5 -84q-103 0 -152 83.5t-49 258.5zM336 331q0 133 -24.5 192t-80.5 59q-54 0 -78.5 -58.5t-24.5 -192.5q0 -135 24 -194t79 -59q56 0 80.5 59t24.5 194zM243 756l-26 19
q-25 19 -36 19q-20 0 -20 -33v-19h-72v34q0 50 19.5 78t54.5 28q22 0 56 -25l27 -20q27 -18 34 -18q21 0 21 33v19h71q2 -18 2 -34q0 -106 -75 -106q-21 0 -56 25z" />
    <glyph glyph-name="Odieresis" unicode="&#xd6;" horiz-adv-x="464" 
d="M30 331q0 175 49 257.5t152 82.5q104 0 153.5 -82.5t49.5 -256.5q0 -175 -49.5 -259t-153.5 -84q-103 0 -152 83.5t-49 258.5zM336 331q0 133 -24.5 192t-80.5 59q-54 0 -78.5 -58.5t-24.5 -192.5q0 -135 24 -194t79 -59q56 0 80.5 59t24.5 194zM81 811q0 25 17.5 42.5
t41.5 17.5t41 -17.5t17 -42.5q0 -24 -17.5 -41.5t-40.5 -17.5q-24 0 -41.5 17.5t-17.5 41.5zM263 811q0 25 17.5 42.5t41.5 17.5q23 0 40.5 -17.5t17.5 -42.5q0 -24 -17.5 -41.5t-40.5 -17.5q-24 0 -41.5 17t-17.5 42z" />
    <glyph glyph-name="multiply" unicode="&#xd7;" 
d="M93 152l-56 57l106 106l-106 106l60 60l106 -107l106 106l56 -56l-106 -106l106 -106l-60 -60l-106 107z" />
    <glyph glyph-name="Oslash" unicode="&#xd8;" horiz-adv-x="465" 
d="M453 636l-50 -87q31 -78 31 -217q0 -175 -49.5 -259t-153.5 -84q-75 0 -122 45l-30 -52l-67 42l49 86q-31 80 -31 221q0 175 49 257.5t152 82.5q77 0 123 -46l31 53zM126 331q0 -68 4 -103l176 311q-26 45 -75 45q-56 0 -80.5 -58.5t-24.5 -194.5zM338 331q0 66 -4 99
l-177 -308q24 -46 74 -46q57 0 82 59.5t25 195.5z" />
    <glyph glyph-name="Ugrave" unicode="&#xd9;" horiz-adv-x="478" 
d="M46 193v467h97v-471q0 -53 25 -82t71 -29t70.5 29t24.5 82v471h97v-467q0 -94 -51.5 -149t-140.5 -55t-141 55t-52 149zM203 724l-95 170v16h113l51 -186h-69z" />
    <glyph glyph-name="Uacute" unicode="&#xda;" horiz-adv-x="478" 
d="M46 193v467h97v-471q0 -53 25 -82t71 -29t70.5 29t24.5 82v471h97v-467q0 -94 -51.5 -149t-140.5 -55t-141 55t-52 149zM201 724l51 186h113v-16l-96 -170h-68z" />
    <glyph glyph-name="Ucircumflex" unicode="&#xdb;" horiz-adv-x="478" 
d="M46 193v467h97v-471q0 -53 25 -82t71 -29t70.5 29t24.5 82v471h97v-467q0 -94 -51.5 -149t-140.5 -55t-141 55t-52 149zM372 724h-74l-60 88l-60 -88h-74l103 186h61z" />
    <glyph glyph-name="Udieresis" unicode="&#xdc;" horiz-adv-x="478" 
d="M46 193v467h97v-471q0 -53 25 -82t71 -29t70.5 29t24.5 82v471h97v-467q0 -94 -51.5 -149t-140.5 -55t-141 55t-52 149zM88 811q0 25 17.5 42.5t41.5 17.5t41 -17.5t17 -42.5q0 -24 -17.5 -41.5t-40.5 -17.5q-24 0 -41.5 17.5t-17.5 41.5zM270 811q0 25 17.5 42.5
t41.5 17.5q23 0 40.5 -17.5t17.5 -42.5q0 -24 -17.5 -41.5t-40.5 -17.5q-24 0 -41.5 17t-17.5 42z" />
    <glyph glyph-name="Yacute" unicode="&#xdd;" horiz-adv-x="424" 
d="M415 660l-154 -399v-261h-97v259l-154 401h105l98 -278l98 278h104zM176 724l51 186h113v-16l-96 -170h-68z" />
    <glyph glyph-name="Thorn" unicode="&#xde;" horiz-adv-x="436" 
d="M50 0v660h98v-111h63q98 0 151 -53t53 -151q0 -97 -53 -150.5t-151 -53.5h-63v-141h-98zM148 228h63q105 0 105 117q0 116 -105 116h-63v-233z" />
    <glyph glyph-name="germandbls" unicode="&#xdf;" horiz-adv-x="440" 
d="M179 33l32 69q39 -30 71 -30q25 0 40.5 14.5t15.5 37.5q0 24 -11 42.5t-47 53.5q-38 36 -51 58.5t-13 49.5q0 30 15 82l29 111q15 56 15 88q0 67 -61 67q-35 0 -55 -24.5t-20 -67.5v-584h-92v583q0 84 45 131t126 47q71 0 110.5 -38t39.5 -106q0 -37 -17 -100l-32 -111
q-13 -44 -13 -62q0 -19 9 -34q10 -15 42 -47q43 -46 55 -72q15 -29 15 -70q0 -59 -37.5 -95.5t-97.5 -36.5q-69 0 -113 44z" />
    <glyph glyph-name="agrave" unicode="&#xe0;" horiz-adv-x="384" 
d="M340 346v-346h-87v39q-36 -50 -104 -50q-56 0 -91 38t-35 99q0 66 40.5 105.5t108.5 39.5h74v68q0 37 -17.5 57t-49.5 20q-51 0 -84 -64l-63 47q48 103 157 103q70 0 110.5 -41.5t40.5 -114.5zM246 137v64h-58q-34 0 -53.5 -18.5t-19.5 -51.5q0 -30 17 -47.5t46 -17.5
q30 0 49 20t19 51zM160 576l-95 172v16h111l51 -188h-67z" />
    <glyph glyph-name="aacute" unicode="&#xe1;" horiz-adv-x="384" 
d="M340 346v-346h-87v39q-36 -50 -104 -50q-56 0 -91 38t-35 99q0 66 40.5 105.5t108.5 39.5h74v68q0 37 -17.5 57t-49.5 20q-51 0 -84 -64l-63 47q48 103 157 103q70 0 110.5 -41.5t40.5 -114.5zM246 137v64h-58q-34 0 -53.5 -18.5t-19.5 -51.5q0 -30 17 -47.5t46 -17.5
q30 0 49 20t19 51zM158 576l51 188h111v-16l-95 -172h-67z" />
    <glyph glyph-name="acircumflex" unicode="&#xe2;" horiz-adv-x="384" 
d="M340 346v-346h-87v39q-36 -50 -104 -50q-56 0 -91 38t-35 99q0 66 40.5 105.5t108.5 39.5h74v68q0 37 -17.5 57t-49.5 20q-51 0 -84 -64l-63 47q48 103 157 103q70 0 110.5 -41.5t40.5 -114.5zM246 137v64h-58q-34 0 -53.5 -18.5t-19.5 -51.5q0 -30 17 -47.5t46 -17.5
q30 0 49 20t19 51zM316 576h-70l-54 85l-54 -85h-70l93 188h62z" />
    <glyph glyph-name="atilde" unicode="&#xe3;" horiz-adv-x="384" 
d="M340 346v-346h-87v39q-36 -50 -104 -50q-56 0 -91 38t-35 99q0 66 40.5 105.5t108.5 39.5h74v68q0 37 -17.5 57t-49.5 20q-51 0 -84 -64l-63 47q48 103 157 103q70 0 110.5 -41.5t40.5 -114.5zM246 137v64h-58q-34 0 -53.5 -18.5t-19.5 -51.5q0 -30 17 -47.5t46 -17.5
q30 0 49 20t19 51zM200 612l-21 19q-19 20 -32 20q-17 0 -17 -28v-25h-73q-1 6 -1 34q0 50 19.5 77.5t54.5 27.5q25 0 54 -23l22 -20q20 -20 31 -20q17 0 17 29v24h72q2 -14 2 -34q0 -50 -19.5 -77t-54.5 -27q-29 0 -54 23z" />
    <glyph glyph-name="adieresis" unicode="&#xe4;" horiz-adv-x="384" 
d="M340 346v-346h-87v39q-36 -50 -104 -50q-56 0 -91 38t-35 99q0 66 40.5 105.5t108.5 39.5h74v68q0 37 -17.5 57t-49.5 20q-51 0 -84 -64l-63 47q48 103 157 103q70 0 110.5 -41.5t40.5 -114.5zM246 137v64h-58q-34 0 -53.5 -18.5t-19.5 -51.5q0 -30 17 -47.5t46 -17.5
q30 0 49 20t19 51zM51 672q0 25 17 42t41 17q23 0 40.5 -17.5t17.5 -41.5t-17.5 -41.5t-40.5 -17.5q-24 0 -41 17.5t-17 41.5zM217 672q0 25 17 42t41 17q23 0 40.5 -17.5t17.5 -41.5t-17.5 -41.5t-40.5 -17.5q-24 0 -41 17t-17 42z" />
    <glyph glyph-name="aring" unicode="&#xe5;" horiz-adv-x="384" 
d="M340 346v-346h-87v39q-36 -50 -104 -50q-56 0 -91 38t-35 99q0 66 40.5 105.5t108.5 39.5h74v68q0 37 -17.5 57t-49.5 20q-51 0 -84 -64l-63 47q48 103 157 103q70 0 110.5 -41.5t40.5 -114.5zM246 137v64h-58q-34 0 -53.5 -18.5t-19.5 -51.5q0 -30 17 -47.5t46 -17.5
q30 0 49 20t19 51zM83 666q0 47 31.5 78.5t77.5 31.5t77.5 -32t31.5 -78t-31.5 -77.5t-77.5 -31.5t-77.5 31.5t-31.5 77.5zM238 666q0 20 -13.5 34t-32.5 14t-32 -14t-13 -34t13 -33.5t32 -13.5t32.5 14t13.5 33z" />
    <glyph glyph-name="ae" unicode="&#xe6;" horiz-adv-x="588" 
d="M495 129l63 -48q-50 -92 -140 -92q-85 0 -125 70q-44 -70 -128 -70q-66 0 -104 37t-38 102q0 70 40 111t107 41h75v60q0 76 -66 76q-51 0 -84 -64l-63 47q22 49 63 76t91 27q78 0 115 -60q41 60 109 60q148 0 148 -222q0 -40 -5 -72h-214q4 -73 22.5 -104t58.5 -31
q44 0 75 56zM338 280h132q4 140 -63 140q-34 0 -50.5 -33t-18.5 -107zM245 150v57h-56q-74 0 -74 -73q0 -67 61 -67q69 0 69 83z" />
    <glyph glyph-name="ccedilla" unicode="&#xe7;" horiz-adv-x="355" 
d="M29 246q0 256 164 256q59 0 93.5 -32t49.5 -100l-82 -22q-9 37 -23 52.5t-38 15.5q-38 0 -53.5 -38.5t-15.5 -131.5q0 -94 15.5 -133t53.5 -39q25 0 38.5 15t22.5 53l82 -21q-15 -68 -49.5 -100t-93.5 -32q-83 0 -123.5 63t-40.5 194zM101 -183v68q17 -4 33 -4
q23 0 36 12t13 33q0 45 -18 94l48 13q50 -47 50 -116q0 -49 -31.5 -78.5t-81.5 -29.5q-31 0 -49 8z" />
    <glyph glyph-name="egrave" unicode="&#xe8;" horiz-adv-x="372" 
d="M279 129l64 -48q-51 -92 -143 -92q-171 0 -171 257q0 256 162 256q151 0 151 -220q0 -36 -5 -69h-214q3 -75 22 -107.5t59 -32.5q44 0 75 56zM123 287h132q1 133 -63 133q-34 0 -50.5 -31.5t-18.5 -101.5zM158 576l-95 172v16h111l51 -188h-67z" />
    <glyph glyph-name="eacute" unicode="&#xe9;" horiz-adv-x="372" 
d="M279 129l64 -48q-51 -92 -143 -92q-171 0 -171 257q0 256 162 256q151 0 151 -220q0 -36 -5 -69h-214q3 -75 22 -107.5t59 -32.5q44 0 75 56zM123 287h132q1 133 -63 133q-34 0 -50.5 -31.5t-18.5 -101.5zM156 576l51 188h111v-16l-95 -172h-67z" />
    <glyph glyph-name="ecircumflex" unicode="&#xea;" horiz-adv-x="372" 
d="M279 129l64 -48q-51 -92 -143 -92q-171 0 -171 257q0 256 162 256q151 0 151 -220q0 -36 -5 -69h-214q3 -75 22 -107.5t59 -32.5q44 0 75 56zM123 287h132q1 133 -63 133q-34 0 -50.5 -31.5t-18.5 -101.5zM314 576h-70l-54 85l-54 -85h-70l93 188h62z" />
    <glyph glyph-name="edieresis" unicode="&#xeb;" horiz-adv-x="372" 
d="M279 129l64 -48q-51 -92 -143 -92q-171 0 -171 257q0 256 162 256q151 0 151 -220q0 -36 -5 -69h-214q3 -75 22 -107.5t59 -32.5q44 0 75 56zM123 287h132q1 133 -63 133q-34 0 -50.5 -31.5t-18.5 -101.5zM49 672q0 25 17 42t41 17q23 0 40.5 -17.5t17.5 -41.5
t-17.5 -41.5t-40.5 -17.5q-24 0 -41 17.5t-17 41.5zM215 672q0 25 17 42t41 17q23 0 40.5 -17.5t17.5 -41.5t-17.5 -41.5t-40.5 -17.5q-24 0 -41 17t-17 42z" />
    <glyph glyph-name="igrave" unicode="&#xec;" horiz-adv-x="187" 
d="M47 0v491h94v-491h-94zM60 560l-74 197v16h113l30 -213h-69z" />
    <glyph glyph-name="iacute" unicode="&#xed;" horiz-adv-x="187" 
d="M47 0v491h94v-491h-94zM60 560l30 213h113v-16l-75 -197h-68z" />
    <glyph glyph-name="icircumflex" unicode="&#xee;" horiz-adv-x="187" 
d="M47 0v491h94v-491h-94zM218 576h-70l-54 85l-54 -85h-70l93 188h62z" />
    <glyph glyph-name="idieresis" unicode="&#xef;" horiz-adv-x="187" 
d="M47 0v491h94v-491h-94zM-42 672q0 25 17 42t41 17t41 -17.5t17 -41.5t-17.5 -41.5t-40.5 -17.5q-24 0 -41 17.5t-17 41.5zM114 672q0 25 17.5 42t41.5 17q23 0 40 -17.5t17 -41.5q0 -25 -17 -42t-40 -17q-24 0 -41.5 17t-17.5 42z" />
    <glyph glyph-name="eth" unicode="&#xf0;" horiz-adv-x="388" 
d="M359 231q0 -118 -43 -180t-123 -62q-163 0 -163 241q0 226 148 226q16 0 28 -3l-59 123l-97 -44l-30 69l94 43l-38 78l80 38l38 -79l92 42l31 -70l-89 -41l57 -118q42 -84 58 -143q16 -54 16 -120zM265 225q0 81 -17 116.5t-55 35.5q-37 0 -53 -35t-16 -117
q0 -81 16.5 -116.5t53.5 -35.5q38 0 54.5 35.5t16.5 116.5z" />
    <glyph glyph-name="ntilde" unicode="&#xf1;" horiz-adv-x="409" 
d="M365 357v-357h-93v348q0 30 -18 49t-46 19q-29 0 -48 -19t-19 -49v-348h-94v491h87v-33q33 44 99 44q59 0 95.5 -40t36.5 -105zM215 612l-21 19q-19 20 -32 20q-17 0 -17 -28v-25h-73q-1 6 -1 34q0 50 19.5 77.5t54.5 27.5q25 0 54 -23l22 -20q20 -20 31 -20q17 0 17 29
v24h72q2 -14 2 -34q0 -50 -19.5 -77t-54.5 -27q-29 0 -54 23z" />
    <glyph glyph-name="ograve" unicode="&#xf2;" horiz-adv-x="387" 
d="M29 247q0 255 164 255t164 -255q0 -258 -164 -258t-164 258zM262 244q0 92 -16 132t-53 40q-36 0 -52.5 -40t-16.5 -132t16 -131t53 -39t53 39t16 131zM161 576l-95 172v16h111l51 -188h-67z" />
    <glyph glyph-name="oacute" unicode="&#xf3;" horiz-adv-x="387" 
d="M29 247q0 255 164 255t164 -255q0 -258 -164 -258t-164 258zM262 244q0 92 -16 132t-53 40q-36 0 -52.5 -40t-16.5 -132t16 -131t53 -39t53 39t16 131zM159 576l51 188h111v-16l-95 -172h-67z" />
    <glyph glyph-name="ocircumflex" unicode="&#xf4;" horiz-adv-x="387" 
d="M29 247q0 255 164 255t164 -255q0 -258 -164 -258t-164 258zM262 244q0 92 -16 132t-53 40q-36 0 -52.5 -40t-16.5 -132t16 -131t53 -39t53 39t16 131zM317 576h-70l-54 85l-54 -85h-70l93 188h62z" />
    <glyph glyph-name="otilde" unicode="&#xf5;" horiz-adv-x="387" 
d="M29 247q0 255 164 255t164 -255q0 -258 -164 -258t-164 258zM262 244q0 92 -16 132t-53 40q-36 0 -52.5 -40t-16.5 -132t16 -131t53 -39t53 39t16 131zM201 612l-21 19q-19 20 -32 20q-17 0 -17 -28v-25h-73q-1 6 -1 34q0 50 19.5 77.5t54.5 27.5q25 0 54 -23l22 -20
q20 -20 31 -20q17 0 17 29v24h72q2 -14 2 -34q0 -50 -19.5 -77t-54.5 -27q-29 0 -54 23z" />
    <glyph glyph-name="odieresis" unicode="&#xf6;" horiz-adv-x="387" 
d="M29 247q0 255 164 255t164 -255q0 -258 -164 -258t-164 258zM262 244q0 92 -16 132t-53 40q-36 0 -52.5 -40t-16.5 -132t16 -131t53 -39t53 39t16 131zM52 672q0 25 17 42t41 17t41 -17.5t17 -41.5t-17.5 -41.5t-40.5 -17.5q-24 0 -41 17.5t-17 41.5zM218 672q0 25 17 42
t41 17t41 -17.5t17 -41.5t-17.5 -41.5t-40.5 -17.5q-24 0 -41 17t-17 42z" />
    <glyph glyph-name="divide" unicode="&#xf7;" 
d="M140 471q0 27 17 44t43 17t43.5 -17t17.5 -44q0 -26 -17.5 -43t-43.5 -17t-43 17t-17 43zM24 275v83h352v-83h-352zM140 161q0 27 17 43.5t43 16.5q27 0 44 -16.5t17 -43.5q0 -26 -17.5 -43.5t-43.5 -17.5t-43 17.5t-17 43.5z" />
    <glyph glyph-name="oslash" unicode="&#xf8;" horiz-adv-x="390" 
d="M374 472l-41 -65q25 -59 25 -160q0 -258 -165 -258q-55 0 -91 30l-25 -39l-61 39l40 64q-26 64 -26 164q0 255 163 255q58 0 95 -31l25 40zM121 244q0 -13 2 -59l120 206q-18 28 -50 28q-38 0 -55 -40.5t-17 -134.5zM266 244q0 11 -2 57l-119 -205q16 -25 48 -25
q40 0 56.5 39.5t16.5 133.5z" />
    <glyph glyph-name="ugrave" unicode="&#xf9;" horiz-adv-x="406" 
d="M44 149v342h94v-350q0 -67 65 -67t65 67v350h94v-342q0 -73 -43 -116.5t-116 -43.5q-72 0 -115.5 43t-43.5 117zM171 576l-95 172v16h111l51 -188h-67z" />
    <glyph glyph-name="uacute" unicode="&#xfa;" horiz-adv-x="406" 
d="M44 149v342h94v-350q0 -67 65 -67t65 67v350h94v-342q0 -73 -43 -116.5t-116 -43.5q-72 0 -115.5 43t-43.5 117zM169 576l51 188h111v-16l-95 -172h-67z" />
    <glyph glyph-name="ucircumflex" unicode="&#xfb;" horiz-adv-x="406" 
d="M44 149v342h94v-350q0 -67 65 -67t65 67v350h94v-342q0 -73 -43 -116.5t-116 -43.5q-72 0 -115.5 43t-43.5 117zM327 576h-70l-54 85l-54 -85h-70l93 188h62z" />
    <glyph glyph-name="udieresis" unicode="&#xfc;" horiz-adv-x="406" 
d="M44 149v342h94v-350q0 -67 65 -67t65 67v350h94v-342q0 -73 -43 -116.5t-116 -43.5q-72 0 -115.5 43t-43.5 117zM62 672q0 25 17 42t41 17t41 -17.5t17 -41.5t-17.5 -41.5t-40.5 -17.5q-24 0 -41 17.5t-17 41.5zM228 672q0 25 17 42t41 17t41 -17.5t17 -41.5t-17.5 -41.5
t-40.5 -17.5q-24 0 -41 17t-17 42z" />
    <glyph glyph-name="yacute" unicode="&#xfd;" horiz-adv-x="390" 
d="M283 491h100l-172 -556q-21 -69 -53 -97.5t-88 -28.5q-18 0 -48 6v81q24 -2 31 -2q29 0 44 14t25 48l21 71l-136 464h101l84 -332zM161 576l51 188h111v-16l-95 -172h-67z" />
    <glyph glyph-name="thorn" unicode="&#xfe;" horiz-adv-x="402" 
d="M372 245q0 -256 -144 -256q-58 0 -89 43v-212h-92v930h92v-294q30 46 89 46q144 0 144 -257zM278 245q0 93 -16.5 132t-55.5 39q-37 0 -53 -39.5t-16 -132.5q0 -92 16 -131t53 -39q39 0 55.5 39.5t16.5 131.5z" />
    <glyph glyph-name="ydieresis" unicode="&#xff;" horiz-adv-x="390" 
d="M283 491h100l-172 -556q-21 -69 -53 -97.5t-88 -28.5q-18 0 -48 6v81q24 -2 31 -2q29 0 44 14t25 48l21 71l-136 464h101l84 -332zM54 672q0 25 17 42t41 17t41 -17.5t17 -41.5t-17.5 -41.5t-40.5 -17.5q-24 0 -41 17.5t-17 41.5zM220 672q0 25 17 42t41 17t41 -17.5
t17 -41.5t-17.5 -41.5t-40.5 -17.5q-24 0 -41 17t-17 42z" />
    <glyph glyph-name="Amacron" unicode="&#x100;" horiz-adv-x="449" 
d="M342 0l-29 114h-178l-29 -114h-98l190 660h52l191 -660h-99zM224 465l-68 -269h136zM111 764v80h225v-80h-225z" />
    <glyph glyph-name="amacron" unicode="&#x101;" horiz-adv-x="384" 
d="M340 346v-346h-87v39q-36 -50 -104 -50q-56 0 -91 38t-35 99q0 66 40.5 105.5t108.5 39.5h74v68q0 37 -17.5 57t-49.5 20q-51 0 -84 -64l-63 47q48 103 157 103q70 0 110.5 -41.5t40.5 -114.5zM246 137v64h-58q-34 0 -53.5 -18.5t-19.5 -51.5q0 -30 17 -47.5t46 -17.5
q30 0 49 20t19 51zM86 624v80h210v-80h-210z" />
    <glyph glyph-name="Abreve" unicode="&#x102;" horiz-adv-x="449" 
d="M342 0l-29 114h-178l-29 -114h-98l190 660h52l191 -660h-99zM224 465l-68 -269h136zM98 865v45h76v-45q0 -29 14 -44.5t38 -15.5q22 0 34 16t12 44v45h77v-45q0 -63 -33 -98.5t-92 -35.5q-60 0 -93 35t-33 99z" />
    <glyph glyph-name="abreve" unicode="&#x103;" horiz-adv-x="384" 
d="M340 346v-346h-87v39q-36 -50 -104 -50q-56 0 -91 38t-35 99q0 66 40.5 105.5t108.5 39.5h74v68q0 37 -17.5 57t-49.5 20q-51 0 -84 -64l-63 47q48 103 157 103q70 0 110.5 -41.5t40.5 -114.5zM246 137v64h-58q-34 0 -53.5 -18.5t-19.5 -51.5q0 -30 17 -47.5t46 -17.5
q30 0 49 20t19 51zM69 709v49h75v-50q0 -29 13 -45t35 -16t34.5 16t12.5 45v50h76v-49q0 -64 -32.5 -99.5t-90.5 -35.5t-90.5 35.5t-32.5 99.5z" />
    <glyph glyph-name="Aogonek" unicode="&#x104;" horiz-adv-x="449" 
d="M342 0l-29 114h-178l-29 -114h-98l190 660h52l191 -660h-99zM224 465l-68 -269h136zM300 -110q0 27 19 61q21 36 74 100l48 -51l-18 -24q-36 -48 -36 -67q0 -30 31 -30q11 0 23 3v-64q-17 -9 -49 -9q-43 0 -67.5 22t-24.5 59z" />
    <glyph glyph-name="aogonek" unicode="&#x105;" horiz-adv-x="384" 
d="M340 346v-346h-87v39q-36 -50 -104 -50q-56 0 -91 38t-35 99q0 66 40.5 105.5t108.5 39.5h74v68q0 37 -17.5 57t-49.5 20q-51 0 -84 -64l-63 47q48 103 157 103q70 0 110.5 -41.5t40.5 -114.5zM246 137v64h-58q-34 0 -53.5 -18.5t-19.5 -51.5q0 -30 17 -47.5t46 -17.5
q30 0 49 20t19 51zM198 -110q0 27 19 61q21 36 74 100l48 -51l-18 -24q-36 -48 -36 -67q0 -30 31 -30q11 0 23 3v-64q-17 -9 -49 -9q-43 0 -67.5 22t-24.5 59z" />
    <glyph glyph-name="Cacute" unicode="&#x106;" horiz-adv-x="426" 
d="M30 331q0 173 48.5 256.5t149.5 83.5q72 0 114.5 -40.5t59.5 -126.5l-88 -22q-22 100 -86 100q-52 0 -76 -60.5t-24 -190.5q0 -132 24 -192.5t76 -60.5q64 0 86 100l88 -22q-17 -86 -59.5 -126.5t-114.5 -40.5q-101 0 -149.5 84t-48.5 258zM190 724l51 186h113v-16
l-96 -170h-68z" />
    <glyph glyph-name="cacute" unicode="&#x107;" horiz-adv-x="355" 
d="M29 246q0 256 164 256q59 0 93.5 -32t49.5 -100l-82 -22q-9 37 -23 52.5t-38 15.5q-38 0 -53.5 -38.5t-15.5 -131.5q0 -94 15.5 -133t53.5 -39q25 0 38.5 15t22.5 53l82 -21q-15 -68 -49.5 -100t-93.5 -32q-83 0 -123.5 63t-40.5 194zM160 576l51 188h111v-16l-95 -172
h-67z" />
    <glyph glyph-name="Ccircumflex" unicode="&#x108;" horiz-adv-x="426" 
d="M30 331q0 173 48.5 256.5t149.5 83.5q72 0 114.5 -40.5t59.5 -126.5l-88 -22q-22 100 -86 100q-52 0 -76 -60.5t-24 -190.5q0 -132 24 -192.5t76 -60.5q64 0 86 100l88 -22q-17 -86 -59.5 -126.5t-114.5 -40.5q-101 0 -149.5 84t-48.5 258zM361 724h-74l-60 88l-60 -88
h-74l103 186h61z" />
    <glyph glyph-name="ccircumflex" unicode="&#x109;" horiz-adv-x="355" 
d="M29 246q0 256 164 256q59 0 93.5 -32t49.5 -100l-82 -22q-9 37 -23 52.5t-38 15.5q-38 0 -53.5 -38.5t-15.5 -131.5q0 -94 15.5 -133t53.5 -39q25 0 38.5 15t22.5 53l82 -21q-15 -68 -49.5 -100t-93.5 -32q-83 0 -123.5 63t-40.5 194zM318 576h-70l-54 85l-54 -85h-70
l93 188h62z" />
    <glyph glyph-name="Cdotaccent" unicode="&#x10a;" horiz-adv-x="426" 
d="M30 331q0 173 48.5 256.5t149.5 83.5q72 0 114.5 -40.5t59.5 -126.5l-88 -22q-22 100 -86 100q-52 0 -76 -60.5t-24 -190.5q0 -132 24 -192.5t76 -60.5q64 0 86 100l88 -22q-17 -86 -59.5 -126.5t-114.5 -40.5q-101 0 -149.5 84t-48.5 258zM164 811q0 27 18.5 45.5
t43.5 18.5t43.5 -18.5t18.5 -45.5q0 -26 -18.5 -44t-43.5 -18t-43.5 18t-18.5 44z" />
    <glyph glyph-name="cdotaccent" unicode="&#x10b;" horiz-adv-x="355" 
d="M29 246q0 256 164 256q59 0 93.5 -32t49.5 -100l-82 -22q-9 37 -23 52.5t-38 15.5q-38 0 -53.5 -38.5t-15.5 -131.5q0 -94 15.5 -133t53.5 -39q25 0 38.5 15t22.5 53l82 -21q-15 -68 -49.5 -100t-93.5 -32q-83 0 -123.5 63t-40.5 194zM131 671q0 27 18.5 45t44.5 18
t44.5 -18t18.5 -45q0 -26 -18.5 -44.5t-44.5 -18.5t-44.5 18.5t-18.5 44.5z" />
    <glyph glyph-name="Ccaron" unicode="&#x10c;" horiz-adv-x="426" 
d="M30 331q0 173 48.5 256.5t149.5 83.5q72 0 114.5 -40.5t59.5 -126.5l-88 -22q-22 100 -86 100q-52 0 -76 -60.5t-24 -190.5q0 -132 24 -192.5t76 -60.5q64 0 86 100l88 -22q-17 -86 -59.5 -126.5t-114.5 -40.5q-101 0 -149.5 84t-48.5 258zM287 910h74l-104 -186h-61
l-103 186h74l60 -88z" />
    <glyph glyph-name="ccaron" unicode="&#x10d;" horiz-adv-x="355" 
d="M29 246q0 256 164 256q59 0 93.5 -32t49.5 -100l-82 -22q-9 37 -23 52.5t-38 15.5q-38 0 -53.5 -38.5t-15.5 -131.5q0 -94 15.5 -133t53.5 -39q25 0 38.5 15t22.5 53l82 -21q-15 -68 -49.5 -100t-93.5 -32q-83 0 -123.5 63t-40.5 194zM248 764h70l-93 -188h-62l-93 188
h70l54 -87z" />
    <glyph glyph-name="Dcaron" unicode="&#x10e;" horiz-adv-x="465" 
d="M50 0v660h135q124 0 186.5 -78.5t62.5 -249.5q0 -172 -63 -252t-186 -80h-135zM147 88h40q76 0 112.5 57.5t36.5 187.5q0 129 -36.5 184t-112.5 55h-40v-484zM239 910h74l-104 -186h-61l-103 186h74l60 -88z" />
    <glyph glyph-name="dcaron" unicode="&#x10f;" horiz-adv-x="514" 
d="M263 750h94v-750h-86v44q-30 -55 -98 -55q-144 0 -144 258q0 255 144 255q60 0 90 -45v293zM263 246q0 93 -15.5 131.5t-52.5 38.5q-38 0 -54.5 -39.5t-16.5 -130.5t16.5 -131.5t54.5 -40.5q36 0 52 40t16 132zM419 543l3 207h97l-30 -207h-70z" />
    <glyph glyph-name="Dcroat" unicode="&#x110;" horiz-adv-x="465" 
d="M434 332q0 -172 -63 -252t-186 -80h-135v278h-55v86h55v296h135q124 0 186.5 -78.5t62.5 -249.5zM336 333q0 129 -36.5 184t-112.5 55h-40v-208h83v-86h-83v-190h40q76 0 112.5 57.5t36.5 187.5z" />
    <glyph glyph-name="dslash" unicode="&#x111;" horiz-adv-x="398" 
d="M400 654v-81h-55v-573h-84v46q-33 -57 -98 -57q-144 0 -144 247q0 246 144 246q59 0 91 -44v135h-138v81h138v96h91v-96h55zM254 234q0 90 -16 129t-53 39q-38 0 -55 -39t-17 -128q0 -87 17 -126.5t55 -39.5q36 0 52.5 39t16.5 126z" />
    <glyph glyph-name="Emacron" unicode="&#x112;" horiz-adv-x="390" 
d="M50 0v660h303v-87h-206v-179h158v-86h-158v-220h215v-88h-312zM85 764v80h225v-80h-225z" />
    <glyph glyph-name="emacron" unicode="&#x113;" horiz-adv-x="372" 
d="M279 129l64 -48q-51 -92 -143 -92q-171 0 -171 257q0 256 162 256q151 0 151 -220q0 -36 -5 -69h-214q3 -75 22 -107.5t59 -32.5q44 0 75 56zM123 287h132q1 133 -63 133q-34 0 -50.5 -31.5t-18.5 -101.5zM84 624v80h210v-80h-210z" />
    <glyph glyph-name="Ebreve" unicode="&#x114;" horiz-adv-x="390" 
d="M50 0v660h303v-87h-206v-179h158v-86h-158v-220h215v-88h-312zM72 865v45h76v-45q0 -29 14 -44.5t38 -15.5q22 0 34 16t12 44v45h77v-45q0 -63 -33 -98.5t-92 -35.5q-60 0 -93 35t-33 99z" />
    <glyph glyph-name="ebreve" unicode="&#x115;" horiz-adv-x="372" 
d="M279 129l64 -48q-51 -92 -143 -92q-171 0 -171 257q0 256 162 256q151 0 151 -220q0 -36 -5 -69h-214q3 -75 22 -107.5t59 -32.5q44 0 75 56zM123 287h132q1 133 -63 133q-34 0 -50.5 -31.5t-18.5 -101.5zM67 709v49h75v-50q0 -29 13 -45t35 -16t34.5 16t12.5 45v50h76
v-49q0 -64 -32.5 -99.5t-90.5 -35.5t-90.5 35.5t-32.5 99.5z" />
    <glyph glyph-name="Edotaccent" unicode="&#x116;" horiz-adv-x="390" 
d="M50 0v660h303v-87h-206v-179h158v-86h-158v-220h215v-88h-312zM135 811q0 27 18.5 45.5t43.5 18.5t43.5 -18.5t18.5 -45.5q0 -26 -18.5 -44t-43.5 -18t-43.5 18t-18.5 44z" />
    <glyph glyph-name="edotaccent" unicode="&#x117;" horiz-adv-x="372" 
d="M279 129l64 -48q-51 -92 -143 -92q-171 0 -171 257q0 256 162 256q151 0 151 -220q0 -36 -5 -69h-214q3 -75 22 -107.5t59 -32.5q44 0 75 56zM123 287h132q1 133 -63 133q-34 0 -50.5 -31.5t-18.5 -101.5zM127 671q0 27 18.5 45t44.5 18t44.5 -18t18.5 -45
q0 -26 -18.5 -44.5t-44.5 -18.5t-44.5 18.5t-18.5 44.5z" />
    <glyph glyph-name="Eogonek" unicode="&#x118;" horiz-adv-x="390" 
d="M50 0v660h303v-87h-206v-179h158v-86h-158v-220h215v-88h-312zM222 -110q0 27 19 61q21 36 74 100l48 -51l-18 -24q-36 -48 -36 -67q0 -30 31 -30q11 0 23 3v-64q-17 -9 -49 -9q-43 0 -67.5 22t-24.5 59z" />
    <glyph glyph-name="eogonek" unicode="&#x119;" horiz-adv-x="372" 
d="M279 129l64 -48q-51 -92 -143 -92q-171 0 -171 257q0 256 162 256q151 0 151 -220q0 -36 -5 -69h-214q3 -75 22 -107.5t59 -32.5q44 0 75 56zM123 287h132q1 133 -63 133q-34 0 -50.5 -31.5t-18.5 -101.5zM166 -109q0 30 22 68q17 29 85 124h66l-54 -92q-32 -56 -32 -82
q0 -28 32 -28q18 0 22 1v-64q-17 -9 -49 -9q-43 0 -67.5 21.5t-24.5 60.5z" />
    <glyph glyph-name="Ecaron" unicode="&#x11a;" horiz-adv-x="390" 
d="M50 0v660h303v-87h-206v-179h158v-86h-158v-220h215v-88h-312zM258 910h74l-104 -186h-61l-103 186h74l60 -88z" />
    <glyph glyph-name="ecaron" unicode="&#x11b;" horiz-adv-x="372" 
d="M279 129l64 -48q-51 -92 -143 -92q-171 0 -171 257q0 256 162 256q151 0 151 -220q0 -36 -5 -69h-214q3 -75 22 -107.5t59 -32.5q44 0 75 56zM123 287h132q1 133 -63 133q-34 0 -50.5 -31.5t-18.5 -101.5zM244 764h70l-93 -188h-62l-93 188h70l54 -87z" />
    <glyph glyph-name="Gcircumflex" unicode="&#x11c;" horiz-adv-x="441" 
d="M30 333q0 172 50 255t154 83q72 0 115.5 -38.5t63.5 -119.5l-87 -23q-13 48 -35 70t-57 22q-56 0 -81 -59.5t-25 -191.5q0 -133 26.5 -193t85.5 -60q53 0 79 44v137h-91v86h188v-243q-24 -53 -70 -83t-104 -30q-107 0 -159.5 84.5t-52.5 259.5zM362 724h-74l-60 88
l-60 -88h-74l103 186h61z" />
    <glyph glyph-name="gcircumflex" unicode="&#x11d;" horiz-adv-x="402" 
d="M270 491h85v-517q0 -76 -45 -120.5t-122 -44.5q-107 0 -159 97l65 51q39 -63 88 -63q37 0 58.5 22t21.5 60v78q-28 -42 -91 -42q-142 0 -142 243q0 247 143 247q67 0 98 -58v47zM262 255q0 85 -15.5 123t-51.5 38q-72 0 -72 -161q0 -159 72 -159q36 0 51.5 37.5
t15.5 121.5zM324 576h-70l-54 85l-54 -85h-70l93 188h62z" />
    <glyph glyph-name="Gbreve" unicode="&#x11e;" horiz-adv-x="441" 
d="M30 333q0 172 50 255t154 83q72 0 115.5 -38.5t63.5 -119.5l-87 -23q-13 48 -35 70t-57 22q-56 0 -81 -59.5t-25 -191.5q0 -133 26.5 -193t85.5 -60q53 0 79 44v137h-91v86h188v-243q-24 -53 -70 -83t-104 -30q-107 0 -159.5 84.5t-52.5 259.5zM102 865v45h76v-45
q0 -29 14 -44.5t38 -15.5q22 0 34 16t12 44v45h77v-45q0 -63 -33 -98.5t-92 -35.5q-60 0 -93 35t-33 99z" />
    <glyph glyph-name="gbreve" unicode="&#x11f;" horiz-adv-x="402" 
d="M270 491h85v-517q0 -76 -45 -120.5t-122 -44.5q-107 0 -159 97l65 51q39 -63 88 -63q37 0 58.5 22t21.5 60v78q-28 -42 -91 -42q-142 0 -142 243q0 247 143 247q67 0 98 -58v47zM262 255q0 85 -15.5 123t-51.5 38q-72 0 -72 -161q0 -159 72 -159q36 0 51.5 37.5
t15.5 121.5zM77 709v49h75v-50q0 -29 13 -45t35 -16t34.5 16t12.5 45v50h76v-49q0 -64 -32.5 -99.5t-90.5 -35.5t-90.5 35.5t-32.5 99.5z" />
    <glyph glyph-name="Gdotaccent" unicode="&#x120;" horiz-adv-x="441" 
d="M30 333q0 172 50 255t154 83q72 0 115.5 -38.5t63.5 -119.5l-87 -23q-13 48 -35 70t-57 22q-56 0 -81 -59.5t-25 -191.5q0 -133 26.5 -193t85.5 -60q53 0 79 44v137h-91v86h188v-243q-24 -53 -70 -83t-104 -30q-107 0 -159.5 84.5t-52.5 259.5zM165 811q0 27 18.5 45.5
t43.5 18.5t43.5 -18.5t18.5 -45.5q0 -26 -18.5 -44t-43.5 -18t-43.5 18t-18.5 44z" />
    <glyph glyph-name="gdotaccent" unicode="&#x121;" horiz-adv-x="402" 
d="M270 491h85v-517q0 -76 -45 -120.5t-122 -44.5q-107 0 -159 97l65 51q39 -63 88 -63q37 0 58.5 22t21.5 60v78q-28 -42 -91 -42q-142 0 -142 243q0 247 143 247q67 0 98 -58v47zM262 255q0 85 -15.5 123t-51.5 38q-72 0 -72 -161q0 -159 72 -159q36 0 51.5 37.5
t15.5 121.5zM137 671q0 27 18.5 45t44.5 18t44.5 -18t18.5 -45q0 -26 -18.5 -44.5t-44.5 -18.5t-44.5 18.5t-18.5 44.5z" />
    <glyph glyph-name="uni0122" unicode="&#x122;" horiz-adv-x="441" 
d="M30 333q0 172 50 255t154 83q72 0 115.5 -38.5t63.5 -119.5l-87 -23q-13 48 -35 70t-57 22q-56 0 -81 -59.5t-25 -191.5q0 -133 26.5 -193t85.5 -60q53 0 79 44v137h-91v86h188v-243q-24 -53 -70 -83t-104 -30q-107 0 -159.5 84.5t-52.5 259.5zM183 -220l4 171h87
l-19 -171h-72z" />
    <glyph glyph-name="uni0123" unicode="&#x123;" horiz-adv-x="402" 
d="M270 491h85v-517q0 -76 -45 -120.5t-122 -44.5q-107 0 -159 97l65 51q39 -63 88 -63q37 0 58.5 22t21.5 60v78q-28 -42 -91 -42q-142 0 -142 243q0 247 143 247q67 0 98 -58v47zM262 255q0 85 -15.5 123t-51.5 38q-72 0 -72 -161q0 -159 72 -159q36 0 51.5 37.5
t15.5 121.5zM152 567l24 213h68l-6 -213h-86z" />
    <glyph glyph-name="Hcircumflex" unicode="&#x124;" horiz-adv-x="485" 
d="M50 0v660h97v-265h191v265h97v-660h-97v307h-191v-307h-97zM376 724h-74l-60 88l-60 -88h-74l103 186h61z" />
    <glyph glyph-name="hcircumflex" unicode="&#x125;" horiz-adv-x="409" 
d="M365 357v-357h-93v348q0 31 -18 49.5t-47 18.5t-47.5 -19t-18.5 -49v-348h-94v750h94v-283q35 35 92 35q59 0 95.5 -40t36.5 -105zM261 814h-74l-60 88l-60 -88h-74l103 186h61z" />
    <glyph glyph-name="Hbar" unicode="&#x126;" horiz-adv-x="498" 
d="M57 0v450h-62v85h62v125h97v-125h191v125h97v-125h62v-85h-62v-450h-97v239h-191v-239h-97zM154 326h191v124h-191v-124z" />
    <glyph glyph-name="hbar" unicode="&#x127;" horiz-adv-x="413" 
d="M370 338v-338h-94v328q0 31 -17 49.5t-46 18.5q-30 0 -49 -19t-19 -49v-328h-93v573h-54v81h54v96h93v-96h135v-81h-135v-132q32 41 91 41q60 0 97 -40t37 -104z" />
    <glyph glyph-name="Itilde" unicode="&#x128;" horiz-adv-x="197" 
d="M50 0v660h97v-660h-97zM111 756l-26 19q-25 19 -36 19q-20 0 -20 -33v-19h-72v34q0 50 19.5 78t54.5 28q22 0 56 -25l27 -20q27 -18 34 -18q21 0 21 33v19h71q2 -18 2 -34q0 -106 -75 -106q-21 0 -56 25z" />
    <glyph glyph-name="itilde" unicode="&#x129;" horiz-adv-x="187" 
d="M47 0v491h94v-491h-94zM95 613l-18 18q-17 20 -26 20q-17 0 -17 -31v-22h-70v34q0 50 19 78t53 28q26 0 53 -27l17 -17q19 -20 27 -20q17 0 17 31v22h70q1 -5 1 -34q0 -50 -20 -78t-55 -28q-22 0 -51 26z" />
    <glyph glyph-name="Imacron" unicode="&#x12a;" horiz-adv-x="197" 
d="M50 0v660h97v-660h-97zM-13 764v80h225v-80h-225z" />
    <glyph glyph-name="imacron" unicode="&#x12b;" horiz-adv-x="187" 
d="M47 0v491h94v-491h-94zM4 632v77h179v-77h-179z" />
    <glyph glyph-name="Ibreve" unicode="&#x12c;" horiz-adv-x="197" 
d="M50 0v660h97v-660h-97zM-27 865v45h76v-45q0 -29 14 -44.5t38 -15.5q22 0 34 16t12 44v45h77v-45q0 -63 -33 -98.5t-92 -35.5q-60 0 -93 35t-33 99z" />
    <glyph glyph-name="ibreve" unicode="&#x12d;" horiz-adv-x="187" 
d="M47 0v491h94v-491h-94zM-29 709v49h75v-50q0 -29 13 -45t35 -16t34.5 16t12.5 45v50h76v-49q0 -64 -32.5 -99.5t-90.5 -35.5t-90.5 35.5t-32.5 99.5z" />
    <glyph glyph-name="Iogonek" unicode="&#x12e;" horiz-adv-x="197" 
d="M50 0v660h97v-660h-97zM7 -110q0 27 19 61q21 36 74 100l48 -51l-18 -24q-36 -48 -36 -67q0 -30 31 -30q11 0 23 3v-64q-16 -9 -49 -9q-43 0 -67.5 22t-24.5 59z" />
    <glyph glyph-name="iogonek" unicode="&#x12f;" horiz-adv-x="187" 
d="M47 0v491h94v-491h-94zM31 671q0 27 18.5 45t44.5 18t44.5 -18t18.5 -45q0 -26 -18.5 -44.5t-44.5 -18.5t-44.5 18.5t-18.5 44.5zM0 -111q0 27 19 61q21 36 74 100l48 -51l-18 -24q-36 -48 -36 -67q0 -30 31 -30q11 0 23 3v-64q-17 -9 -49 -9q-43 0 -67.5 22t-24.5 59z
" />
    <glyph glyph-name="Idot" unicode="&#x130;" horiz-adv-x="197" 
d="M50 0v660h97v-660h-97zM36 811q0 27 18.5 45.5t43.5 18.5t43.5 -18.5t18.5 -45.5q0 -26 -18.5 -44t-43.5 -18t-43.5 18t-18.5 44z" />
    <glyph glyph-name="dotlessi" unicode="&#x131;" horiz-adv-x="187" 
d="M47 0v491h94v-491h-94z" />
    <glyph glyph-name="IJ" unicode="&#x132;" horiz-adv-x="463" 
d="M50 0v660h97v-660h-97zM207 -2v85q38 -5 45 -5q64 0 64 69v513h96v-533q0 -138 -139 -138q-31 0 -66 9z" />
    <glyph glyph-name="ij" unicode="&#x133;" horiz-adv-x="375" 
d="M47 0v491h94v-491h-94zM31 671q0 27 18.5 45t44.5 18t44.5 -18t18.5 -45q0 -26 -18.5 -44.5t-44.5 -18.5t-44.5 18.5t-18.5 44.5zM161 -185v81q4 0 9 -0.5t8 -1t4 -0.5q52 0 52 58v539h94v-552q0 -62 -33 -95.5t-93 -33.5q-24 0 -41 5zM218 671q0 27 18.5 45t44.5 18
t44.5 -18t18.5 -45q0 -26 -18.5 -44.5t-44.5 -18.5t-44.5 18.5t-18.5 44.5z" />
    <glyph glyph-name="Jcircumflex" unicode="&#x134;" horiz-adv-x="266" 
d="M10 -2v85q38 -5 45 -5q64 0 64 69v513h96v-533q0 -138 -139 -138q-32 0 -66 9zM288 724h-74l-60 88l-60 -88h-74l103 186h61z" />
    <glyph glyph-name="jcircumflex" unicode="&#x135;" horiz-adv-x="187" 
d="M-26 -185v81q4 0 9 -0.5t8 -1t4 -0.5q52 0 52 58v539h94v-552q0 -62 -33 -95.5t-93 -33.5q-24 0 -41 5zM218 576h-70l-54 85l-54 -85h-70l93 188h62z" />
    <glyph glyph-name="uni0136" unicode="&#x136;" horiz-adv-x="457" 
d="M50 660h97v-660h-97v660zM256 352l186 -352h-109l-186 353l178 307h109zM173 -220l4 171h87l-19 -171h-72z" />
    <glyph glyph-name="uni0137" unicode="&#x137;" horiz-adv-x="392" 
d="M387 0h-105l-141 270v-270h-94v750h94v-476l133 217h109l-137 -224zM155 -220l4 171h87l-19 -171h-72z" />
    <glyph glyph-name="Lacute" unicode="&#x139;" horiz-adv-x="347" 
d="M50 0v660h97v-572h186v-88h-283zM62 724l51 186h113v-16l-96 -170h-68z" />
    <glyph glyph-name="lacute" unicode="&#x13a;" horiz-adv-x="187" 
d="M47 0v750h94v-750h-94zM58 814l51 186h113v-16l-96 -170h-68z" />
    <glyph glyph-name="uni013B" unicode="&#x13b;" horiz-adv-x="347" 
d="M50 0v660h97v-572h186v-88h-283zM148 -220l4 171h87l-19 -171h-72z" />
    <glyph glyph-name="uni013C" unicode="&#x13c;" horiz-adv-x="187" 
d="M47 0v750h94v-750h-94zM49 -220l4 171h87l-19 -171h-72z" />
    <glyph glyph-name="Lcaron" unicode="&#x13d;" horiz-adv-x="347" 
d="M50 0v660h97v-572h186v-88h-283zM233 513l3 207h97l-30 -207h-70z" />
    <glyph glyph-name="lcaron" unicode="&#x13e;" horiz-adv-x="298" 
d="M47 0v750h94v-750h-94zM203 543l3 207h97l-30 -207h-70z" />
    <glyph glyph-name="Ldot" unicode="&#x13f;" horiz-adv-x="371" 
d="M50 0v660h97v-572h186v-88h-283zM221 372q0 28 18.5 46t45.5 18t45.5 -18t18.5 -46t-18.5 -46t-45.5 -18t-45.5 18t-18.5 46z" />
    <glyph glyph-name="ldot" unicode="&#x140;" horiz-adv-x="315" 
d="M47 0v750h94v-750h-94zM186 316q0 28 18.5 46t45.5 18t45.5 -18t18.5 -46t-18.5 -46t-45.5 -18t-45.5 18t-18.5 46z" />
    <glyph glyph-name="Lslash" unicode="&#x141;" horiz-adv-x="348" 
d="M148 88h186v-88h-284v229l-48 -28v101l48 28v330h98v-280l132 78v-102l-132 -76v-192z" />
    <glyph glyph-name="lslash" unicode="&#x142;" horiz-adv-x="204" 
d="M203 471v-97l-55 -31v-343h-92v296l-55 -33v97l55 33v357h92v-310z" />
    <glyph glyph-name="Nacute" unicode="&#x143;" horiz-adv-x="485" 
d="M338 660h97v-660h-52l-236 411v-411h-97v660h52l236 -412v412zM206 724l51 186h113v-16l-96 -170h-68z" />
    <glyph glyph-name="nacute" unicode="&#x144;" horiz-adv-x="409" 
d="M365 357v-357h-93v348q0 30 -18 49t-46 19q-29 0 -48 -19t-19 -49v-348h-94v491h87v-33q33 44 99 44q59 0 95.5 -40t36.5 -105zM173 576l51 188h111v-16l-95 -172h-67z" />
    <glyph glyph-name="uni0145" unicode="&#x145;" horiz-adv-x="485" 
d="M338 660h97v-660h-52l-236 411v-411h-97v660h52l236 -412v412zM197 -220l4 171h87l-19 -171h-72z" />
    <glyph glyph-name="uni0146" unicode="&#x146;" horiz-adv-x="409" 
d="M365 357v-357h-93v348q0 30 -18 49t-46 19q-29 0 -48 -19t-19 -49v-348h-94v491h87v-33q33 44 99 44q59 0 95.5 -40t36.5 -105zM160 -220l4 171h87l-19 -171h-72z" />
    <glyph glyph-name="Ncaron" unicode="&#x147;" horiz-adv-x="485" 
d="M338 660h97v-660h-52l-236 411v-411h-97v660h52l236 -412v412zM302 910h74l-104 -186h-61l-103 186h74l60 -88z" />
    <glyph glyph-name="ncaron" unicode="&#x148;" horiz-adv-x="409" 
d="M365 357v-357h-93v348q0 30 -18 49t-46 19q-29 0 -48 -19t-19 -49v-348h-94v491h87v-33q33 44 99 44q59 0 95.5 -40t36.5 -105zM262 764h70l-93 -188h-62l-93 188h70l54 -87z" />
    <glyph glyph-name="Eng" unicode="&#x14a;" horiz-adv-x="485" 
d="M337 660h98v-721q0 -62 -32.5 -95.5t-93.5 -33.5q-23 0 -40 5v81q16 -2 20 -2q48 0 48 56v62l-190 374v-386h-97v660h52l235 -461v461z" />
    <glyph glyph-name="eng" unicode="&#x14b;" horiz-adv-x="407" 
d="M363 357v-418q0 -62 -32.5 -95.5t-93.5 -33.5q-25 0 -40 5v79q4 0 9 -0.5t8 -1t4 -0.5q54 0 54 58v398q0 31 -18 49.5t-47 18.5q-30 0 -49 -19t-19 -49v-348h-92v491h85v-38q34 49 99 49q59 0 95.5 -40t36.5 -105z" />
    <glyph glyph-name="Omacron" unicode="&#x14c;" horiz-adv-x="464" 
d="M30 331q0 175 49 257.5t152 82.5q104 0 153.5 -82.5t49.5 -256.5q0 -175 -49.5 -259t-153.5 -84q-103 0 -152 83.5t-49 258.5zM336 331q0 133 -24.5 192t-80.5 59q-54 0 -78.5 -58.5t-24.5 -192.5q0 -135 24 -194t79 -59q56 0 80.5 59t24.5 194zM118 764v80h225v-80h-225
z" />
    <glyph glyph-name="omacron" unicode="&#x14d;" horiz-adv-x="387" 
d="M29 247q0 255 164 255t164 -255q0 -258 -164 -258t-164 258zM262 244q0 92 -16 132t-53 40q-36 0 -52.5 -40t-16.5 -132t16 -131t53 -39t53 39t16 131zM87 624v80h210v-80h-210z" />
    <glyph glyph-name="Obreve" unicode="&#x14e;" horiz-adv-x="464" 
d="M30 331q0 175 49 257.5t152 82.5q104 0 153.5 -82.5t49.5 -256.5q0 -175 -49.5 -259t-153.5 -84q-103 0 -152 83.5t-49 258.5zM336 331q0 133 -24.5 192t-80.5 59q-54 0 -78.5 -58.5t-24.5 -192.5q0 -135 24 -194t79 -59q56 0 80.5 59t24.5 194zM105 865v45h76v-45
q0 -29 14 -44.5t38 -15.5q22 0 34 16t12 44v45h77v-45q0 -63 -33 -98.5t-92 -35.5q-60 0 -93 35t-33 99z" />
    <glyph glyph-name="obreve" unicode="&#x14f;" horiz-adv-x="387" 
d="M29 247q0 255 164 255t164 -255q0 -258 -164 -258t-164 258zM262 244q0 92 -16 132t-53 40q-36 0 -52.5 -40t-16.5 -132t16 -131t53 -39t53 39t16 131zM70 709v49h75v-50q0 -29 13 -45t35 -16t34.5 16t12.5 45v50h76v-49q0 -64 -32.5 -99.5t-90.5 -35.5t-90.5 35.5
t-32.5 99.5z" />
    <glyph glyph-name="Ohungarumlaut" unicode="&#x150;" horiz-adv-x="464" 
d="M30 331q0 175 49 257.5t152 82.5q104 0 153.5 -82.5t49.5 -256.5q0 -175 -49.5 -259t-153.5 -84q-103 0 -152 83.5t-49 258.5zM336 331q0 133 -24.5 192t-80.5 59q-54 0 -78.5 -58.5t-24.5 -192.5q0 -135 24 -194t79 -59q56 0 80.5 59t24.5 194zM106 724l51 186h97v-16
l-84 -170h-64zM278 724l52 186h98v-16l-86 -170h-64z" />
    <glyph glyph-name="ohungarumlaut" unicode="&#x151;" horiz-adv-x="387" 
d="M29 247q0 255 164 255t164 -255q0 -258 -164 -258t-164 258zM262 244q0 92 -16 132t-53 40q-36 0 -52.5 -40t-16.5 -132t16 -131t53 -39t53 39t16 131zM91 576l51 188h94v-16l-84 -172h-61zM237 576l51 188h95v-16l-85 -172h-61z" />
    <glyph glyph-name="OE" unicode="&#x152;" horiz-adv-x="668" 
d="M432 88h207v-88h-297v43q-38 -54 -116 -54q-196 0 -196 343q0 172 48 255.5t147 83.5q79 0 117 -53v42h289v-88h-199v-178h149v-86h-149v-220zM336 331q0 133 -24.5 192t-80.5 59q-54 0 -78.5 -58.5t-24.5 -192.5q0 -135 24 -193.5t79 -58.5q56 0 80.5 58.5t24.5 193.5z
" />
    <glyph glyph-name="oe" unicode="&#x153;" horiz-adv-x="602" 
d="M510 129l63 -48q-51 -92 -143 -92q-86 0 -124 69q-36 -69 -116 -69q-161 0 -161 258q0 255 161 255q84 0 118 -72q38 72 116 72q148 0 148 -220q0 -37 -4 -69h-215q3 -76 22 -108t60 -32q23 0 40 12.5t35 43.5zM353 287h132q1 133 -63 133q-34 0 -50.5 -31t-18.5 -102z
M264 245q0 92 -16.5 131.5t-54.5 39.5q-37 0 -53.5 -39.5t-16.5 -131.5q0 -90 16.5 -130.5t53.5 -40.5q38 0 54.5 39.5t16.5 131.5z" />
    <glyph glyph-name="Racute" unicode="&#x154;" horiz-adv-x="457" 
d="M447 0h-104l-115 257h-17h-64v-257h-97v660h161q97 0 150.5 -52.5t53.5 -148.5q0 -132 -96 -179zM147 345h64q105 0 105 114q0 113 -105 113h-64v-227zM183 724l51 186h113v-16l-96 -170h-68z" />
    <glyph glyph-name="racute" unicode="&#x155;" horiz-adv-x="272" 
d="M260 492v-94h-27q-43 0 -67.5 -24t-24.5 -65v-309h-94v491h86v-50q31 54 99 54q17 0 28 -3zM108 576l51 188h111v-16l-95 -172h-67z" />
    <glyph glyph-name="uni0156" unicode="&#x156;" horiz-adv-x="457" 
d="M447 0h-104l-115 257h-17h-64v-257h-97v660h161q97 0 150.5 -52.5t53.5 -148.5q0 -132 -96 -179zM147 345h64q105 0 105 114q0 113 -105 113h-64v-227zM191 -220l4 171h87l-19 -171h-72z" />
    <glyph glyph-name="uni0157" unicode="&#x157;" horiz-adv-x="272" 
d="M260 492v-94h-27q-43 0 -67.5 -24t-24.5 -65v-309h-94v491h86v-50q31 54 99 54q17 0 28 -3zM49 -220l4 171h87l-19 -171h-72z" />
    <glyph glyph-name="Rcaron" unicode="&#x158;" horiz-adv-x="457" 
d="M447 0h-104l-115 257h-17h-64v-257h-97v660h161q97 0 150.5 -52.5t53.5 -148.5q0 -132 -96 -179zM147 345h64q105 0 105 114q0 113 -105 113h-64v-227zM280 910h74l-104 -186h-61l-103 186h74l60 -88z" />
    <glyph glyph-name="rcaron" unicode="&#x159;" horiz-adv-x="272" 
d="M260 492v-94h-27q-43 0 -67.5 -24t-24.5 -65v-309h-94v491h86v-50q31 54 99 54q17 0 28 -3zM196 764h70l-93 -188h-62l-93 188h70l54 -87z" />
    <glyph glyph-name="Sacute" unicode="&#x15a;" horiz-adv-x="411" 
d="M18 150l84 30q17 -55 41 -79t62 -24q37 0 58.5 22t21.5 59q0 30 -16 55t-60 64l-50 45q-61 57 -86.5 99.5t-25.5 90.5q0 72 46 115.5t121 43.5q67 0 108.5 -36.5t63.5 -113.5l-85 -28q-14 49 -33 69.5t-50 20.5q-34 0 -54 -19t-20 -51q0 -25 15 -48.5t52 -57.5l51 -46
q69 -62 93 -107q27 -45 27 -98q0 -76 -48.5 -121.5t-128.5 -45.5q-146 0 -187 161zM180 724l51 186h113v-16l-96 -170h-68z" />
    <glyph glyph-name="sacute" unicode="&#x15b;" horiz-adv-x="343" 
d="M15 98l67 40q32 -66 86 -66q26 0 42 15t16 40q0 19 -12 34.5t-42 37.5l-35 24q-51 37 -74.5 72t-23.5 76q0 59 38.5 95t101.5 36q103 0 142 -96l-67 -42q-24 56 -71 56q-23 0 -36.5 -13t-13.5 -35q0 -34 45 -69l32 -22q59 -42 84 -77t25 -78q0 -61 -41.5 -99t-107.5 -38
q-112 0 -155 109zM140 576l51 188h111v-16l-95 -172h-67z" />
    <glyph glyph-name="Scircumflex" unicode="&#x15c;" horiz-adv-x="411" 
d="M18 150l84 30q17 -55 41 -79t62 -24q37 0 58.5 22t21.5 59q0 30 -16 55t-60 64l-50 45q-61 57 -86.5 99.5t-25.5 90.5q0 72 46 115.5t121 43.5q67 0 108.5 -36.5t63.5 -113.5l-85 -28q-14 49 -33 69.5t-50 20.5q-34 0 -54 -19t-20 -51q0 -25 15 -48.5t52 -57.5l51 -46
q69 -62 93 -107q27 -45 27 -98q0 -76 -48.5 -121.5t-128.5 -45.5q-146 0 -187 161zM351 724h-74l-60 88l-60 -88h-74l103 186h61z" />
    <glyph glyph-name="scircumflex" unicode="&#x15d;" horiz-adv-x="343" 
d="M15 98l67 40q32 -66 86 -66q26 0 42 15t16 40q0 19 -12 34.5t-42 37.5l-35 24q-51 37 -74.5 72t-23.5 76q0 59 38.5 95t101.5 36q103 0 142 -96l-67 -42q-24 56 -71 56q-23 0 -36.5 -13t-13.5 -35q0 -34 45 -69l32 -22q59 -42 84 -77t25 -78q0 -61 -41.5 -99t-107.5 -38
q-112 0 -155 109zM298 576h-70l-54 85l-54 -85h-70l93 188h62z" />
    <glyph glyph-name="Scedilla" unicode="&#x15e;" horiz-adv-x="411" 
d="M18 150l84 30q17 -55 41 -79t62 -24q37 0 58.5 22t21.5 59q0 30 -16 55t-60 64l-50 45q-61 57 -86.5 99.5t-25.5 90.5q0 72 46 115.5t121 43.5q67 0 108.5 -36.5t63.5 -113.5l-85 -28q-14 49 -33 69.5t-50 20.5q-34 0 -54 -19t-20 -51q0 -25 15 -48.5t52 -57.5l51 -46
q69 -62 93 -107q27 -45 27 -98q0 -76 -48.5 -121.5t-128.5 -45.5q-146 0 -187 161zM124 -183v68q17 -4 33 -4q23 0 36 12t13 33q0 45 -18 94l48 13q50 -47 50 -116q0 -49 -31.5 -78.5t-81.5 -29.5q-31 0 -49 8z" />
    <glyph glyph-name="scedilla" unicode="&#x15f;" horiz-adv-x="343" 
d="M15 98l67 40q32 -66 86 -66q26 0 42 15t16 40q0 19 -12 34.5t-42 37.5l-35 24q-51 37 -74.5 72t-23.5 76q0 59 38.5 95t101.5 36q103 0 142 -96l-67 -42q-24 56 -71 56q-23 0 -36.5 -13t-13.5 -35q0 -34 45 -69l32 -22q59 -42 84 -77t25 -78q0 -61 -41.5 -99t-107.5 -38
q-112 0 -155 109zM85 -183v68q17 -4 33 -4q23 0 36 12t13 33q0 45 -18 94l48 13q50 -47 50 -116q0 -49 -31.5 -78.5t-81.5 -29.5q-31 0 -49 8z" />
    <glyph glyph-name="Scaron" unicode="&#x160;" horiz-adv-x="411" 
d="M18 150l84 30q17 -55 41 -79t62 -24q37 0 58.5 22t21.5 59q0 30 -16 55t-60 64l-50 45q-61 57 -86.5 99.5t-25.5 90.5q0 72 46 115.5t121 43.5q67 0 108.5 -36.5t63.5 -113.5l-85 -28q-14 49 -33 69.5t-50 20.5q-34 0 -54 -19t-20 -51q0 -25 15 -48.5t52 -57.5l51 -46
q69 -62 93 -107q27 -45 27 -98q0 -76 -48.5 -121.5t-128.5 -45.5q-146 0 -187 161zM277 910h74l-104 -186h-61l-103 186h74l60 -88z" />
    <glyph glyph-name="scaron" unicode="&#x161;" horiz-adv-x="343" 
d="M15 98l67 40q32 -66 86 -66q26 0 42 15t16 40q0 19 -12 34.5t-42 37.5l-35 24q-51 37 -74.5 72t-23.5 76q0 59 38.5 95t101.5 36q103 0 142 -96l-67 -42q-24 56 -71 56q-23 0 -36.5 -13t-13.5 -35q0 -34 45 -69l32 -22q59 -42 84 -77t25 -78q0 -61 -41.5 -99t-107.5 -38
q-112 0 -155 109zM228 764h70l-93 -188h-62l-93 188h70l54 -87z" />
    <glyph glyph-name="uni0162" unicode="&#x162;" horiz-adv-x="405" 
d="M154 0v571h-142v89h381v-89h-142v-571h-97zM107 -183v68q17 -4 33 -4q23 0 36 12t13 33q0 45 -18 94l48 13q50 -47 50 -116q0 -49 -31.5 -78.5t-81.5 -29.5q-31 0 -49 8z" />
    <glyph glyph-name="uni0163" unicode="&#x163;" horiz-adv-x="281" 
d="M265 77v-80q-26 -8 -58 -8q-64 0 -98 33t-34 95v292h-66v82h66v129h94v-129h87v-82h-87v-282q0 -53 58 -53q25 0 38 3zM64 -183v68q17 -4 33 -4q23 0 36 12t13 33q0 45 -18 94l48 13q50 -47 50 -116q0 -49 -31.5 -78.5t-81.5 -29.5q-31 0 -49 8z" />
    <glyph glyph-name="Tcaron" unicode="&#x164;" horiz-adv-x="405" 
d="M154 0v571h-142v89h381v-89h-142v-571h-97zM262 910h74l-104 -186h-61l-103 186h74l60 -88z" />
    <glyph glyph-name="tcaron" unicode="&#x165;" horiz-adv-x="281" 
d="M265 77v-80q-26 -8 -58 -8q-64 0 -98 33t-34 95v292h-66v82h66v129h94v-129h87v-82h-87v-282q0 -53 58 -53q25 0 38 3zM215 543l3 207h97l-30 -207h-70z" />
    <glyph glyph-name="Tbar" unicode="&#x166;" horiz-adv-x="405" 
d="M154 0v249h-118v85h118v239h-142v87h381v-87h-142v-239h118v-85h-118v-249h-97z" />
    <glyph glyph-name="tbar" unicode="&#x167;" horiz-adv-x="305" 
d="M279 77v-80q-32 -8 -58 -8q-64 0 -98 33t-34 95v97h-65v80h65v118h-67v79h67v129h94v-129h88v-79h-88v-118h88v-80h-88v-87q0 -53 58 -53q19 0 38 3z" />
    <glyph glyph-name="Utilde" unicode="&#x168;" horiz-adv-x="478" 
d="M46 193v467h97v-471q0 -53 25 -82t71 -29t70.5 29t24.5 82v471h97v-467q0 -94 -51.5 -149t-140.5 -55t-141 55t-52 149zM250 756l-26 19q-25 19 -36 19q-20 0 -20 -33v-19h-72v34q0 50 19.5 78t54.5 28q22 0 56 -25l27 -20q27 -18 34 -18q21 0 21 33v19h71q2 -18 2 -34
q0 -106 -75 -106q-21 0 -56 25z" />
    <glyph glyph-name="utilde" unicode="&#x169;" horiz-adv-x="406" 
d="M44 149v342h94v-350q0 -67 65 -67t65 67v350h94v-342q0 -73 -43 -116.5t-116 -43.5q-72 0 -115.5 43t-43.5 117zM211 612l-21 19q-19 20 -32 20q-17 0 -17 -28v-25h-73q-1 6 -1 34q0 50 19.5 77.5t54.5 27.5q25 0 54 -23l22 -20q20 -20 31 -20q17 0 17 29v24h72
q2 -14 2 -34q0 -50 -19.5 -77t-54.5 -27q-29 0 -54 23z" />
    <glyph glyph-name="Umacron" unicode="&#x16a;" horiz-adv-x="478" 
d="M46 193v467h97v-471q0 -53 25 -82t71 -29t70.5 29t24.5 82v471h97v-467q0 -94 -51.5 -149t-140.5 -55t-141 55t-52 149zM126 764v80h225v-80h-225z" />
    <glyph glyph-name="umacron" unicode="&#x16b;" horiz-adv-x="406" 
d="M44 149v342h94v-350q0 -67 65 -67t65 67v350h94v-342q0 -73 -43 -116.5t-116 -43.5q-72 0 -115.5 43t-43.5 117zM98 624v80h210v-80h-210z" />
    <glyph glyph-name="Ubreve" unicode="&#x16c;" horiz-adv-x="478" 
d="M46 193v467h97v-471q0 -53 25 -82t71 -29t70.5 29t24.5 82v471h97v-467q0 -94 -51.5 -149t-140.5 -55t-141 55t-52 149zM112 865v45h76v-45q0 -29 14 -44.5t38 -15.5q22 0 34 16t12 44v45h77v-45q0 -63 -33 -98.5t-92 -35.5q-60 0 -93 35t-33 99z" />
    <glyph glyph-name="ubreve" unicode="&#x16d;" horiz-adv-x="406" 
d="M44 149v342h94v-350q0 -67 65 -67t65 67v350h94v-342q0 -73 -43 -116.5t-116 -43.5q-72 0 -115.5 43t-43.5 117zM80 709v49h75v-50q0 -29 13 -45t35 -16t34.5 16t12.5 45v50h76v-49q0 -64 -32.5 -99.5t-90.5 -35.5t-90.5 35.5t-32.5 99.5z" />
    <glyph glyph-name="Uring" unicode="&#x16e;" horiz-adv-x="478" 
d="M46 193v467h97v-471q0 -53 25 -82t71 -29t70.5 29t24.5 82v471h97v-467q0 -94 -51.5 -149t-140.5 -55t-141 55t-52 149zM127 804q0 47 32 79.5t79 32.5t79.5 -32.5t32.5 -79.5q0 -48 -32.5 -80t-79.5 -32t-79 32.5t-32 79.5zM287 804q0 21 -14.5 36t-34.5 15
q-19 0 -33 -15t-14 -36t14 -36t33 -15t34 15t15 36z" />
    <glyph glyph-name="uring" unicode="&#x16f;" horiz-adv-x="406" 
d="M44 149v342h94v-350q0 -67 65 -67t65 67v350h94v-342q0 -73 -43 -116.5t-116 -43.5q-72 0 -115.5 43t-43.5 117zM94 666q0 47 31.5 78.5t77.5 31.5t77.5 -32t31.5 -78t-31.5 -77.5t-77.5 -31.5t-77.5 31.5t-31.5 77.5zM249 666q0 20 -13.5 34t-32.5 14t-32 -14t-13 -34
t13 -33.5t32 -13.5t32.5 14t13.5 33z" />
    <glyph glyph-name="Uhungarumlaut" unicode="&#x170;" horiz-adv-x="478" 
d="M46 193v467h97v-471q0 -53 25 -82t71 -29t70.5 29t24.5 82v471h97v-467q0 -94 -51.5 -149t-140.5 -55t-141 55t-52 149zM114 724l51 186h97v-16l-84 -170h-64zM286 724l52 186h98v-16l-86 -170h-64z" />
    <glyph glyph-name="uhungarumlaut" unicode="&#x171;" horiz-adv-x="406" 
d="M44 149v342h94v-350q0 -67 65 -67t65 67v350h94v-342q0 -73 -43 -116.5t-116 -43.5q-72 0 -115.5 43t-43.5 117zM101 576l51 188h94v-16l-84 -172h-61zM247 576l51 188h95v-16l-85 -172h-61z" />
    <glyph glyph-name="Uogonek" unicode="&#x172;" horiz-adv-x="478" 
d="M46 193v467h97v-471q0 -53 25 -82t71 -29t70.5 29t24.5 82v471h97v-467q0 -94 -51.5 -149t-140.5 -55t-141 55t-52 149zM232 -109q0 30 22 68q17 29 85 124h66l-54 -92q-32 -56 -32 -82q0 -28 32 -28q18 0 22 1v-64q-17 -9 -49 -9q-43 0 -67.5 21.5t-24.5 60.5z" />
    <glyph glyph-name="uogonek" unicode="&#x173;" horiz-adv-x="406" 
d="M268 491h94v-341q0 -35 -11 -65q-11 -29 -42 -69q-33 -43 -45 -64.5t-12 -40.5q0 -32 32 -32l3 1q3 0 8 0.5t11 0.5v-63q-16 -9 -48 -9q-43 0 -67.5 21.5t-24.5 60.5q0 42 50 98h-14q-72 0 -115 44t-43 117v341h93v-346q0 -34 17 -52.5t48 -18.5q66 0 66 71v346z" />
    <glyph glyph-name="Wcircumflex" unicode="&#x174;" horiz-adv-x="700" 
d="M582 660h103l-173 -660h-51l-111 416l-112 -416h-52l-171 660h102l100 -418l108 418h50l108 -416zM483 724h-74l-60 88l-60 -88h-74l103 186h61z" />
    <glyph glyph-name="wcircumflex" unicode="&#x175;" horiz-adv-x="598" 
d="M492 491h99l-144 -491h-53l-94 310l-95 -310h-54l-144 491h100l77 -296l88 296h54l89 -296zM424 576h-70l-54 85l-54 -85h-70l93 188h62z" />
    <glyph glyph-name="Ycircumflex" unicode="&#x176;" horiz-adv-x="424" 
d="M415 660l-154 -399v-261h-97v259l-154 401h105l98 -278l98 278h104zM347 724h-74l-60 88l-60 -88h-74l103 186h61z" />
    <glyph glyph-name="ycircumflex" unicode="&#x177;" horiz-adv-x="390" 
d="M283 491h100l-172 -556q-21 -69 -53 -97.5t-88 -28.5q-18 0 -48 6v81q24 -2 31 -2q29 0 44 14t25 48l21 71l-136 464h101l84 -332zM319 576h-70l-54 85l-54 -85h-70l93 188h62z" />
    <glyph glyph-name="Ydieresis" unicode="&#x178;" horiz-adv-x="424" 
d="M415 660l-154 -399v-261h-97v259l-154 401h105l98 -278l98 278h104zM63 811q0 25 17.5 42.5t41.5 17.5t41 -17.5t17 -42.5q0 -24 -17.5 -41.5t-40.5 -17.5q-24 0 -41.5 17.5t-17.5 41.5zM245 811q0 25 17.5 42.5t41.5 17.5q23 0 40.5 -17.5t17.5 -42.5q0 -24 -17.5 -41.5
t-40.5 -17.5q-24 0 -41.5 17t-17.5 42z" />
    <glyph glyph-name="Zacute" unicode="&#x179;" horiz-adv-x="384" 
d="M139 88h229v-88h-352v42l230 530h-211v88h329v-42zM158 724l51 186h113v-16l-96 -170h-68z" />
    <glyph glyph-name="zacute" unicode="&#x17a;" horiz-adv-x="324" 
d="M128 82h183v-82h-299v42l180 367h-165v82h281v-43zM131 576l51 188h111v-16l-95 -172h-67z" />
    <glyph glyph-name="Zdotaccent" unicode="&#x17b;" horiz-adv-x="384" 
d="M139 88h229v-88h-352v42l230 530h-211v88h329v-42zM132 811q0 27 18.5 45.5t43.5 18.5t43.5 -18.5t18.5 -45.5q0 -26 -18.5 -44t-43.5 -18t-43.5 18t-18.5 44z" />
    <glyph glyph-name="zdotaccent" unicode="&#x17c;" horiz-adv-x="324" 
d="M128 82h183v-82h-299v42l180 367h-165v82h281v-43zM102 671q0 27 18.5 45t44.5 18t44.5 -18t18.5 -45q0 -26 -18.5 -44.5t-44.5 -18.5t-44.5 18.5t-18.5 44.5z" />
    <glyph glyph-name="Zcaron" unicode="&#x17d;" horiz-adv-x="384" 
d="M139 88h229v-88h-352v42l230 530h-211v88h329v-42zM255 910h74l-104 -186h-61l-103 186h74l60 -88z" />
    <glyph glyph-name="zcaron" unicode="&#x17e;" horiz-adv-x="324" 
d="M128 82h183v-82h-299v42l180 367h-165v82h281v-43zM219 764h70l-93 -188h-62l-93 188h70l54 -87z" />
    <glyph glyph-name="uni018F" unicode="&#x18f;" horiz-adv-x="463" 
d="M433 332q0 -175 -49.5 -259t-152.5 -84q-98 0 -149.5 76.5t-51.5 223.5q0 35 6 71h299q-2 119 -27 170.5t-78 51.5q-36 0 -58.5 -23.5t-36.5 -74.5l-85 26q39 161 179 161q106 0 155 -81t49 -258zM334 276h-206q0 -198 103 -198q49 0 74 47.5t29 150.5z" />
    <glyph glyph-name="florin" unicode="&#x192;" horiz-adv-x="318" 
d="M224 504l-8 -104h81v-83h-88l-22 -286q-14 -164 -137 -164q-29 0 -50 8v79q20 -3 31 -3q55 0 62 83l22 283h-66v83h73l8 107q14 164 139 164q26 0 50 -8v-79q-17 3 -32 3q-30 0 -44.5 -20t-18.5 -63z" />
    <glyph glyph-name="uni01D4" unicode="&#x1d4;" horiz-adv-x="406" 
d="M44 149v342h94v-350q0 -67 65 -67t65 67v350h94v-342q0 -73 -43 -116.5t-116 -43.5q-72 0 -115.5 43t-43.5 117zM257 764h70l-93 -188h-62l-93 188h70l54 -87z" />
    <glyph glyph-name="AEacute" unicode="&#x1fc;" horiz-adv-x="599" 
d="M402 88h168v-88h-255l-11 111h-163l-35 -111h-102l223 660h335v-88h-212l19 -179h143v-86h-134zM264 515l-97 -321h129zM250 724l51 186h113v-16l-96 -170h-68z" />
    <glyph glyph-name="aeacute" unicode="&#x1fd;" horiz-adv-x="588" 
d="M495 129l63 -48q-50 -92 -140 -92q-85 0 -125 70q-44 -70 -128 -70q-66 0 -104 37t-38 102q0 70 40 111t107 41h75v60q0 76 -66 76q-51 0 -84 -64l-63 47q22 49 63 76t91 27q78 0 115 -60q41 60 109 60q148 0 148 -222q0 -40 -5 -72h-214q4 -73 22.5 -104t58.5 -31
q44 0 75 56zM338 280h132q4 140 -63 140q-34 0 -50.5 -33t-18.5 -107zM245 150v57h-56q-74 0 -74 -73q0 -67 61 -67q69 0 69 83zM265 576l51 188h111v-16l-95 -172h-67z" />
    <glyph glyph-name="Oslashacute" unicode="&#x1fe;" horiz-adv-x="465" 
d="M453 636l-50 -87q31 -78 31 -217q0 -175 -49.5 -259t-153.5 -84q-75 0 -122 45l-30 -52l-67 42l49 86q-31 80 -31 221q0 175 49 257.5t152 82.5q77 0 123 -46l31 53zM126 331q0 -68 4 -103l176 311q-26 45 -75 45q-56 0 -80.5 -58.5t-24.5 -194.5zM338 331q0 66 -4 99
l-177 -308q24 -46 74 -46q57 0 82 59.5t25 195.5zM196 724l51 186h113v-16l-96 -170h-68z" />
    <glyph glyph-name="oslashacute" unicode="&#x1ff;" horiz-adv-x="390" 
d="M374 472l-41 -65q25 -59 25 -160q0 -258 -165 -258q-55 0 -91 30l-25 -39l-61 39l40 64q-26 64 -26 164q0 255 163 255q58 0 95 -31l25 40zM121 244q0 -13 2 -59l120 206q-18 28 -50 28q-38 0 -55 -40.5t-17 -134.5zM266 244q0 11 -2 57l-119 -205q16 -25 48 -25
q40 0 56.5 39.5t16.5 133.5zM161 576l51 188h111v-16l-95 -172h-67z" />
    <glyph glyph-name="uni0218" unicode="&#x218;" horiz-adv-x="411" 
d="M18 150l84 30q17 -55 41 -79t62 -24q37 0 58.5 22t21.5 59q0 30 -16 55t-60 64l-50 45q-61 57 -86.5 99.5t-25.5 90.5q0 72 46 115.5t121 43.5q67 0 108.5 -36.5t63.5 -113.5l-85 -28q-14 49 -33 69.5t-50 20.5q-34 0 -54 -19t-20 -51q0 -25 15 -48.5t52 -57.5l51 -46
q69 -62 93 -107q27 -45 27 -98q0 -76 -48.5 -121.5t-128.5 -45.5q-146 0 -187 161zM172 -220l4 171h87l-19 -171h-72z" />
    <glyph glyph-name="uni0219" unicode="&#x219;" horiz-adv-x="343" 
d="M15 98l67 40q32 -66 86 -66q26 0 42 15t16 40q0 19 -12 34.5t-42 37.5l-35 24q-51 37 -74.5 72t-23.5 76q0 59 38.5 95t101.5 36q103 0 142 -96l-67 -42q-24 56 -71 56q-23 0 -36.5 -13t-13.5 -35q0 -34 45 -69l32 -22q59 -42 84 -77t25 -78q0 -61 -41.5 -99t-107.5 -38
q-112 0 -155 109zM133 -220l4 171h87l-19 -171h-72z" />
    <glyph glyph-name="uni021A" unicode="&#x21a;" horiz-adv-x="405" 
d="M154 0v571h-142v89h381v-89h-142v-571h-97zM156 -220l4 171h87l-19 -171h-72z" />
    <glyph glyph-name="uni021B" unicode="&#x21b;" horiz-adv-x="281" 
d="M265 77v-80q-26 -8 -58 -8q-64 0 -98 33t-34 95v292h-66v82h66v129h94v-129h87v-82h-87v-282q0 -53 58 -53q25 0 38 3zM113 -220l4 171h87l-19 -171h-72z" />
    <glyph glyph-name="uni0237" unicode="&#x237;" horiz-adv-x="187" 
d="M-26 -185v81q4 0 9 -0.5t8 -1t4 -0.5q52 0 52 58v539h94v-552q0 -62 -33 -95.5t-93 -33.5q-24 0 -41 5z" />
    <glyph glyph-name="uni0259" unicode="&#x259;" horiz-adv-x="372" 
d="M343 245q0 -256 -162 -256q-151 0 -151 219q0 37 5 69h214q-3 75 -22 108t-59 33q-44 0 -75 -56l-64 47q48 93 143 93q171 0 171 -257zM249 204h-132q-1 -134 64 -134q33 0 49.5 31.5t18.5 102.5z" />
    <glyph glyph-name="circumflex" unicode="&#x2c6;" horiz-adv-x="308" 
d="M278 576h-70l-54 85l-54 -85h-70l93 188h62z" />
    <glyph glyph-name="caron" unicode="&#x2c7;" horiz-adv-x="308" 
d="M208 764h70l-93 -188h-62l-93 188h70l54 -87z" />
    <glyph glyph-name="breve" unicode="&#x2d8;" horiz-adv-x="306" 
d="M30 709v49h75v-50q0 -29 13 -45t35 -16t34.5 16t12.5 45v50h76v-49q0 -64 -32.5 -99.5t-90.5 -35.5t-90.5 35.5t-32.5 99.5z" />
    <glyph glyph-name="dotaccent" unicode="&#x2d9;" horiz-adv-x="187" 
d="M30 671q0 27 18.5 45t44.5 18t44.5 -18t18.5 -45q0 -26 -18.5 -44.5t-44.5 -18.5t-44.5 18.5t-18.5 44.5z" />
    <glyph glyph-name="ring" unicode="&#x2da;" horiz-adv-x="284" 
d="M33 666q0 47 31.5 78.5t77.5 31.5t77.5 -32t31.5 -78t-31.5 -77.5t-77.5 -31.5t-77.5 31.5t-31.5 77.5zM188 666q0 20 -13.5 34t-32.5 14t-32 -14t-13 -34t13 -33.5t32 -13.5t32.5 14t13.5 33z" />
    <glyph glyph-name="ogonek" unicode="&#x2db;" horiz-adv-x="200" 
d="M30 -110q0 27 19 61q21 36 74 100l48 -51l-18 -24q-36 -48 -36 -67q0 -30 31 -30q11 0 23 3v-64q-17 -9 -49 -9q-43 0 -67.5 22t-24.5 59z" />
    <glyph glyph-name="tilde" unicode="&#x2dc;" horiz-adv-x="328" 
d="M172 612l-21 19q-19 20 -32 20q-17 0 -17 -28v-25h-73q-1 6 -1 34q0 50 19.5 77.5t54.5 27.5q25 0 54 -23l22 -20q20 -20 31 -20q17 0 17 29v24h72q2 -14 2 -34q0 -50 -19.5 -77t-54.5 -27q-29 0 -54 23z" />
    <glyph glyph-name="hungarumlaut" unicode="&#x2dd;" horiz-adv-x="362" 
d="M35 576l51 188h94v-16l-84 -172h-61zM181 576l51 188h95v-16l-85 -172h-61z" />
    <glyph glyph-name="gravecomb" unicode="&#x300;" horiz-adv-x="0" 
d="M-236 576l-95 172v16h111l51 -188h-67z" />
    <glyph glyph-name="acutecomb" unicode="&#x301;" horiz-adv-x="0" 
d="M-331 576l51 188h111v-16l-95 -172h-67z" />
    <glyph glyph-name="uni0302" unicode="&#x302;" horiz-adv-x="0" 
d="M-126 576h-70l-54 85l-54 -85h-70l93 188h62z" />
    <glyph glyph-name="tildecomb" unicode="&#x303;" horiz-adv-x="0" 
d="M-242 612l-21 19q-19 20 -32 20q-17 0 -17 -28v-25h-73q-1 6 -1 34q0 50 19.5 77.5t54.5 27.5q25 0 54 -23l22 -20q20 -20 31 -20q17 0 17 29v24h72q2 -14 2 -34q0 -50 -19.5 -77t-54.5 -27q-29 0 -54 23z" />
    <glyph glyph-name="uni0304" unicode="&#x304;" horiz-adv-x="0" 
d="M-356 624v80h210v-80h-210z" />
    <glyph glyph-name="uni0306" unicode="&#x306;" horiz-adv-x="0" 
d="M-373 709v49h75v-50q0 -29 13 -45t35 -16t34.5 16t12.5 45v50h76v-49q0 -64 -32.5 -99.5t-90.5 -35.5t-90.5 35.5t-32.5 99.5z" />
    <glyph glyph-name="uni0307" unicode="&#x307;" horiz-adv-x="0" 
d="M-313 671q0 27 18.5 45t44.5 18t44.5 -18t18.5 -45q0 -26 -18.5 -44.5t-44.5 -18.5t-44.5 18.5t-18.5 44.5z" />
    <glyph glyph-name="uni0308" unicode="&#x308;" horiz-adv-x="0" 
d="M-391 672q0 25 17 42t41 17q23 0 40.5 -17.5t17.5 -41.5t-17.5 -41.5t-40.5 -17.5q-24 0 -41 17.5t-17 41.5zM-225 672q0 25 17 42t41 17q23 0 40.5 -17.5t17.5 -41.5t-17.5 -41.5t-40.5 -17.5q-24 0 -41 17t-17 42z" />
    <glyph glyph-name="uni030A" unicode="&#x30a;" horiz-adv-x="0" 
d="M-359 666q0 47 31.5 78.5t77.5 31.5t77.5 -32t31.5 -78t-31.5 -77.5t-77.5 -31.5t-77.5 31.5t-31.5 77.5zM-204 666q0 20 -13.5 34t-32.5 14t-32 -14t-13 -34t13 -33.5t32 -13.5t32.5 14t13.5 33z" />
    <glyph glyph-name="uni030B" unicode="&#x30b;" horiz-adv-x="0" 
d="M-393 576l51 188h94v-16l-84 -172h-61zM-247 576l51 188h95v-16l-85 -172h-61z" />
    <glyph glyph-name="uni030C" unicode="&#x30c;" horiz-adv-x="0" 
d="M-196 764h70l-93 -188h-62l-93 188h70l54 -87z" />
    <glyph glyph-name="uni0326" unicode="&#x326;" horiz-adv-x="0" 
d="M-294 -220l4 171h87l-19 -171h-72z" />
    <glyph glyph-name="uni0327" unicode="&#x327;" horiz-adv-x="0" 
d="M-330 -183v68q17 -4 33 -4q23 0 36 12t13 33q0 45 -18 94l48 13q50 -47 50 -116q0 -49 -31.5 -78.5t-81.5 -29.5q-31 0 -49 8z" />
    <glyph glyph-name="uni0328" unicode="&#x328;" horiz-adv-x="0" 
d="M-321 -110q0 27 19 61q21 36 74 100l48 -51l-18 -24q-36 -48 -36 -67q0 -30 31 -30q11 0 23 3v-64q-16 -9 -49 -9q-43 0 -67.5 22t-24.5 59z" />
    <glyph glyph-name="tonos" unicode="&#x384;" horiz-adv-x="500" 
d="M194 567v213h111v-16l-42 -197h-69z" />
    <glyph glyph-name="dieresistonos" unicode="&#x385;" horiz-adv-x="500" 
d="M206 567v213h101v-16l-42 -197h-59zM60 671q0 25 17 42.5t40 17.5q24 0 41 -17t17 -43q0 -24 -17 -41t-41 -17q-22 0 -39.5 17t-17.5 41zM324 671q0 26 17 43t41 17t40.5 -17t16.5 -43q0 -24 -17 -41t-40 -17q-22 0 -40 17.5t-18 40.5z" />
    <glyph glyph-name="Alphatonos" unicode="&#x386;" horiz-adv-x="449" 
d="M342 0l-29 114h-178l-29 -114h-98l190 660h52l191 -660h-99zM224 465l-68 -269h136zM3 453l3 207h97l-30 -207h-70z" />
    <glyph glyph-name="anoteleia" unicode="&#x387;" horiz-adv-x="200" 
d="M36 316q0 28 18.5 46t45.5 18t45.5 -18t18.5 -46t-18.5 -46t-45.5 -18t-45.5 18t-18.5 46z" />
    <glyph glyph-name="Epsilontonos" unicode="&#x388;" horiz-adv-x="390" 
d="M50 0v660h303v-87h-206v-179h158v-86h-158v-220h215v-88h-312zM-101 453l3 207h97l-30 -207h-70z" />
    <glyph glyph-name="Etatonos" unicode="&#x389;" horiz-adv-x="485" 
d="M50 0v660h97v-265h191v265h97v-660h-97v307h-191v-307h-97zM-101 453l3 207h97l-30 -207h-70z" />
    <glyph glyph-name="Iotatonos" unicode="&#x38a;" horiz-adv-x="197" 
d="M50 0v660h97v-660h-97zM-101 453l3 207h97l-30 -207h-70z" />
    <glyph glyph-name="Omicrontonos" unicode="&#x38c;" horiz-adv-x="464" 
d="M30 331q0 175 49 257.5t152 82.5q104 0 153.5 -82.5t49.5 -256.5q0 -175 -49.5 -259t-153.5 -84q-103 0 -152 83.5t-49 258.5zM336 331q0 133 -24.5 192t-80.5 59q-54 0 -78.5 -58.5t-24.5 -192.5q0 -135 24 -194t79 -59q56 0 80.5 59t24.5 194zM-83 453l3 207h97
l-30 -207h-70z" />
    <glyph glyph-name="Upsilontonos" unicode="&#x38e;" horiz-adv-x="424" 
d="M415 660l-154 -399v-261h-97v259l-154 401h105l98 -278l98 278h104zM-122 453l3 207h97l-30 -207h-70z" />
    <glyph glyph-name="Omegatonos" unicode="&#x38f;" horiz-adv-x="470" 
d="M363 89h68v-89h-167v84q41 53 58 115.5t17 156.5q0 116 -25.5 171t-78.5 55t-78.5 -54.5t-25.5 -171.5q0 -93 17 -156q16 -60 58 -116v-84h-167v89h68q-40 60 -57 123t-17 150q0 309 202 309t202 -309q0 -87 -17 -150t-57 -123zM-83 453l3 207h97l-30 -207h-70z" />
    <glyph glyph-name="iotadieresistonos" unicode="&#x390;" horiz-adv-x="216" 
d="M47 114v377h94v-370q0 -41 35 -43h29v-81q-25 -5 -56 -5q-102 0 -102 122zM59 567v213h101v-16l-42 -197h-59zM-87 671q0 25 17.5 42.5t39.5 17.5q24 0 41 -17t17 -43q0 -24 -17 -41t-41 -17q-22 0 -39.5 17t-17.5 41zM177 671q0 26 17 43t41 17t40.5 -17t16.5 -43
q0 -24 -17 -41t-40 -17q-22 0 -40 17.5t-18 40.5z" />
    <glyph glyph-name="Alpha" unicode="&#x391;" horiz-adv-x="449" 
d="M342 0l-29 114h-178l-29 -114h-98l190 660h52l191 -660h-99zM224 465l-68 -269h136z" />
    <glyph glyph-name="Beta" unicode="&#x392;" horiz-adv-x="440" 
d="M419 187q0 -84 -53.5 -135.5t-140.5 -51.5h-175v660h149q89 0 139.5 -46t50.5 -126q0 -93 -68 -137q46 -22 72 -65t26 -99zM196 575h-52v-187h53q96 0 96 95q0 92 -97 92zM323 194q0 53 -28 82t-81 29h-70v-220h69q110 0 110 109z" />
    <glyph glyph-name="Gamma" unicode="&#x393;" horiz-adv-x="347" 
d="M50 0v660h283v-88h-186v-572h-97z" />
    <glyph glyph-name="uni0394" unicode="&#x394;" horiz-adv-x="448" 
d="M250 660l178 -618v-42h-408v42l178 618h52zM225 447l-97 -359h192z" />
    <glyph glyph-name="Epsilon" unicode="&#x395;" horiz-adv-x="390" 
d="M50 0v660h303v-87h-206v-179h158v-86h-158v-220h215v-88h-312z" />
    <glyph glyph-name="Zeta" unicode="&#x396;" horiz-adv-x="384" 
d="M139 88h229v-88h-352v42l230 530h-211v88h329v-42z" />
    <glyph glyph-name="Eta" unicode="&#x397;" horiz-adv-x="485" 
d="M50 0v660h97v-265h191v265h97v-660h-97v307h-191v-307h-97z" />
    <glyph glyph-name="Theta" unicode="&#x398;" horiz-adv-x="464" 
d="M30 331q0 175 49 257.5t152 82.5q104 0 153.5 -82.5t49.5 -256.5q0 -175 -49.5 -259t-153.5 -84q-103 0 -152 83.5t-49 258.5zM338 331q0 135 -25 194t-82 59q-56 0 -80.5 -58.5t-24.5 -194.5q0 -137 24.5 -196t80.5 -59q57 0 82 59.5t25 195.5zM155 283v86h154v-86h-154
z" />
    <glyph glyph-name="Iota" unicode="&#x399;" horiz-adv-x="197" 
d="M50 0v660h97v-660h-97z" />
    <glyph glyph-name="Kappa" unicode="&#x39a;" horiz-adv-x="457" 
d="M50 660h97v-660h-97v660zM256 352l186 -352h-109l-186 353l178 307h109z" />
    <glyph glyph-name="Lambda" unicode="&#x39b;" horiz-adv-x="448" 
d="M441 0h-102l-114 423l-115 -423h-102l190 660h51z" />
    <glyph glyph-name="Mu" unicode="&#x39c;" horiz-adv-x="543" 
d="M441 660h51v-660h-97v381l-107 -207h-34l-107 207v-381h-97v660h52l169 -330z" />
    <glyph glyph-name="Nu" unicode="&#x39d;" horiz-adv-x="485" 
d="M338 660h97v-660h-52l-236 411v-411h-97v660h52l236 -412v412z" />
    <glyph glyph-name="Xi" unicode="&#x39e;" horiz-adv-x="375" 
d="M28 572v88h319v-88h-319zM72 284v88h231v-88h-231zM28 0v88h319v-88h-319z" />
    <glyph glyph-name="Omicron" unicode="&#x39f;" horiz-adv-x="464" 
d="M30 331q0 175 49 257.5t152 82.5q104 0 153.5 -82.5t49.5 -256.5q0 -175 -49.5 -259t-153.5 -84q-103 0 -152 83.5t-49 258.5zM336 331q0 133 -24.5 192t-80.5 59q-54 0 -78.5 -58.5t-24.5 -192.5q0 -135 24 -194t79 -59q56 0 80.5 59t24.5 194z" />
    <glyph glyph-name="Pi" unicode="&#x3a0;" horiz-adv-x="470" 
d="M50 0v660h369v-660h-97v572h-175v-572h-97z" />
    <glyph glyph-name="Rho" unicode="&#x3a1;" horiz-adv-x="436" 
d="M50 0v660h161q97 0 150.5 -52.5t53.5 -148.5t-53.5 -149t-150.5 -53h-64v-257h-97zM147 345h64q105 0 105 114q0 113 -105 113h-64v-227z" />
    <glyph glyph-name="Sigma" unicode="&#x3a3;" horiz-adv-x="381" 
d="M150 88h203v-88h-337v27l158 312l-158 294v27h328v-88h-192l121 -224v-19z" />
    <glyph glyph-name="Tau" unicode="&#x3a4;" horiz-adv-x="405" 
d="M154 0v571h-142v89h381v-89h-142v-571h-97z" />
    <glyph glyph-name="Upsilon" unicode="&#x3a5;" horiz-adv-x="424" 
d="M415 660l-154 -399v-261h-97v259l-154 401h105l98 -278l98 278h104z" />
    <glyph glyph-name="Phi" unicode="&#x3a6;" horiz-adv-x="562" 
d="M330 25v-65h-97v65q-98 8 -150.5 87t-52.5 220q0 140 52.5 218t150.5 86v64h97v-64q97 -8 149.5 -86t52.5 -218t-52.5 -219.5t-149.5 -87.5zM236 113v435q-58 -4 -84.5 -55.5t-26.5 -159.5q0 -109 26.5 -162t84.5 -58zM437 333q0 108 -26 159.5t-84 55.5v-435
q57 5 83.5 58t26.5 162z" />
    <glyph glyph-name="Chi" unicode="&#x3a7;" horiz-adv-x="436" 
d="M421 660l-141 -331l141 -329h-108l-95 236l-96 -236h-107l142 329l-142 331h106l97 -240l97 240h106z" />
    <glyph glyph-name="Psi" unicode="&#x3a8;" horiz-adv-x="586" 
d="M245 0v149q-95 0 -149.5 54t-54.5 147v310h95v-307q0 -116 109 -116v423h96v-423q109 0 109 116v307h95v-310q0 -92 -55 -146.5t-149 -54.5v-149h-96z" />
    <glyph glyph-name="uni03A9" unicode="&#x3a9;" horiz-adv-x="470" 
d="M363 89h68v-89h-167v84q41 53 58 115.5t17 156.5q0 116 -25.5 171t-78.5 55t-78.5 -54.5t-25.5 -171.5q0 -93 17 -156q16 -60 58 -116v-84h-167v89h68q-40 60 -57 123t-17 150q0 309 202 309t202 -309q0 -87 -17 -150t-57 -123z" />
    <glyph glyph-name="Iotadieresis" unicode="&#x3aa;" horiz-adv-x="197" 
d="M50 0v660h97v-660h-97zM-51 811q0 25 17.5 42.5t41.5 17.5t41 -17.5t17 -42.5q0 -24 -17.5 -41.5t-40.5 -17.5q-24 0 -41.5 17.5t-17.5 41.5zM131 811q0 25 17.5 42.5t41.5 17.5q23 0 40.5 -17.5t17.5 -42.5q0 -24 -17.5 -41.5t-40.5 -17.5q-24 0 -41.5 17t-17.5 42z" />
    <glyph glyph-name="Upsilondieresis" unicode="&#x3ab;" horiz-adv-x="424" 
d="M415 660l-154 -399v-261h-97v259l-154 401h105l98 -278l98 278h104zM63 811q0 25 17.5 42.5t41.5 17.5t41 -17.5t17 -42.5q0 -24 -17.5 -41.5t-40.5 -17.5q-24 0 -41.5 17.5t-17.5 41.5zM245 811q0 25 17.5 42.5t41.5 17.5q23 0 40.5 -17.5t17.5 -42.5q0 -24 -17.5 -41.5
t-40.5 -17.5q-24 0 -41.5 17t-17.5 42z" />
    <glyph glyph-name="alphatonos" unicode="&#x3ac;" horiz-adv-x="422" 
d="M406 78v-79q-22 -7 -47 -7q-61 0 -85 53q-32 -56 -97 -56q-148 0 -148 255q0 258 144 258q66 0 97 -58q0 7 2 47h92q-7 -137 -7 -234v-141q0 -39 30 -39q14 0 19 1zM263 244q0 92 -16 132t-52 40q-37 0 -54 -41t-17 -131q0 -91 16.5 -130.5t54.5 -39.5q36 0 52 39.5
t16 130.5zM153 567v213h111v-16l-42 -197h-69z" />
    <glyph glyph-name="epsilontonos" unicode="&#x3ad;" horiz-adv-x="350" 
d="M269 138l72 -37q-20 -58 -57.5 -85t-99.5 -27q-73 0 -114.5 39t-41.5 108q0 83 62 116q-51 36 -51 109q0 66 40 103.5t109 37.5q55 0 90.5 -25.5t55.5 -81.5l-74 -37q-12 34 -27 48t-40 14q-30 0 -46.5 -18t-16.5 -50q0 -64 60 -64h48v-76h-50q-70 0 -70 -66
q0 -35 18.5 -55t52.5 -20q31 0 48.5 14.5t31.5 52.5zM141 567v213h111v-16l-42 -197h-69z" />
    <glyph glyph-name="etatonos" unicode="&#x3ae;" horiz-adv-x="427" 
d="M383 357v-537h-94v529q0 30 -17.5 48.5t-45.5 18.5q-29 0 -48 -19t-19 -48v-349h-94v373q0 40 -30 40q-14 0 -19 -1v80q34 8 47 8q57 0 79 -39q39 41 101 41q64 0 102 -39t38 -106zM191 567v213h111v-16l-42 -197h-69z" />
    <glyph glyph-name="iotatonos" unicode="&#x3af;" horiz-adv-x="216" 
d="M47 114v377h94v-370q0 -41 35 -43h29v-81q-25 -5 -56 -5q-102 0 -102 122zM47 567v213h111v-16l-42 -197h-69z" />
    <glyph glyph-name="upsilondieresistonos" unicode="&#x3b0;" horiz-adv-x="407" 
d="M44 151v340h94v-347q0 -34 17 -52t48 -18q30 0 47.5 18.5t17.5 51.5v347h94v-340q0 -74 -43 -118t-116 -44q-72 0 -115.5 44t-43.5 118zM169 567v213h101v-16l-42 -197h-59zM23 671q0 25 17.5 42.5t39.5 17.5q24 0 41 -17t17 -43q0 -24 -17 -41t-41 -17q-22 0 -39.5 17
t-17.5 41zM287 671q0 26 17 43t41 17t40.5 -17t16.5 -43q0 -24 -17 -41t-40 -17q-22 0 -40 17.5t-18 40.5z" />
    <glyph glyph-name="alpha" unicode="&#x3b1;" horiz-adv-x="422" 
d="M406 78v-79q-22 -7 -47 -7q-61 0 -85 53q-32 -56 -97 -56q-148 0 -148 255q0 258 144 258q66 0 97 -58q0 7 2 47h92q-7 -137 -7 -234v-141q0 -39 30 -39q14 0 19 1zM263 244q0 92 -16 132t-52 40q-37 0 -54 -41t-17 -131q0 -91 16.5 -130.5t54.5 -39.5q36 0 52 39.5
t16 130.5z" />
    <glyph glyph-name="beta" unicode="&#x3b2;" horiz-adv-x="415" 
d="M386 212q0 -114 -43 -168.5t-133 -54.5q-39 0 -69 11v-180h-94v759q0 86 42.5 134t119.5 48q78 0 118.5 -47.5t40.5 -139.5q0 -121 -73 -163q91 -37 91 -199zM292 216q0 74 -23 109t-72 35h-19v82h17q79 0 79 126q0 57 -16 82.5t-51 25.5q-66 0 -66 -95v-497
q29 -10 54 -10q50 0 73.5 34t23.5 108z" />
    <glyph glyph-name="gamma" unicode="&#x3b3;" horiz-adv-x="390" 
d="M383 491l-140 -483v-188h-94v178l-141 493h101l86 -362l86 362h102z" />
    <glyph glyph-name="delta" unicode="&#x3b4;" horiz-adv-x="390" 
d="M360 242q0 -253 -166 -253q-81 0 -123 64.5t-42 188.5q0 115 39 178t113 68l-138 219v43h308v-82h-178l131 -210q34 -54 44 -98q12 -45 12 -118zM265 242q0 87 -16.5 126t-53.5 39t-53.5 -39t-16.5 -126q0 -90 16.5 -129t53.5 -39q38 0 54 38.5t16 129.5z" />
    <glyph glyph-name="epsilon" unicode="&#x3b5;" horiz-adv-x="350" 
d="M269 138l72 -37q-20 -58 -57.5 -85t-99.5 -27q-73 0 -114.5 39t-41.5 108q0 83 62 116q-51 36 -51 109q0 66 40 103.5t109 37.5q55 0 90.5 -25.5t55.5 -81.5l-74 -37q-12 34 -27 48t-40 14q-30 0 -46.5 -18t-16.5 -50q0 -64 60 -64h48v-76h-50q-70 0 -70 -66
q0 -35 18.5 -55t52.5 -20q31 0 48.5 14.5t31.5 52.5z" />
    <glyph glyph-name="zeta" unicode="&#x3b6;" horiz-adv-x="315" 
d="M322 707l-147 -343q-49 -111 -49 -176q0 -73 63 -102l35 -16q49 -23 70.5 -58.5t21.5 -92.5q0 -47 -16 -99h-92q14 64 14 85q0 36 -12.5 57t-41.5 35l-34 15q-55 25 -79.5 65t-24.5 105q0 71 59 209l117 277h-176v82h292v-43z" />
    <glyph glyph-name="eta" unicode="&#x3b7;" horiz-adv-x="427" 
d="M383 357v-537h-94v529q0 30 -17.5 48.5t-45.5 18.5q-29 0 -48 -19t-19 -48v-349h-94v373q0 40 -30 40q-14 0 -19 -1v80q34 8 47 8q57 0 79 -39q39 41 101 41q64 0 102 -39t38 -106z" />
    <glyph glyph-name="theta" unicode="&#x3b8;" horiz-adv-x="396" 
d="M364 376q-1 -222 -36.5 -303t-130.5 -84q-64 2 -98.5 38t-49.5 117t-16 232q1 151 16 231.5t49.5 116t98.5 37.5q95 -3 130.5 -84t36.5 -301zM125 415h147q-1 106 -8 161t-22.5 77.5t-43.5 22.5t-43 -22.5t-22 -77.5t-8 -161zM272 334h-147q2 -108 8.5 -161t21 -75
t43.5 -24q42 0 57.5 53.5t16.5 206.5z" />
    <glyph glyph-name="iota" unicode="&#x3b9;" horiz-adv-x="216" 
d="M47 114v377h94v-370q0 -41 35 -43h29v-81q-25 -5 -56 -5q-102 0 -102 122z" />
    <glyph glyph-name="kappa" unicode="&#x3ba;" horiz-adv-x="392" 
d="M386 0h-105l-140 260v-260h-94v491h94v-227l132 227h107l-134 -230z" />
    <glyph glyph-name="lambda" unicode="&#x3bb;" 
d="M392 77h13v-77q-17 -6 -41 -6q-78 0 -96 81l-68 264l-95 -339h-101l156 491l-30 121q-9 35 -24.5 49.5t-44.5 14.5q-2 0 -5.5 -0.5t-11 -1t-13.5 -0.5v79q24 8 52 8q54 0 84.5 -29t48.5 -96l132 -520q6 -22 15.5 -30.5t28.5 -8.5z" />
    <glyph glyph-name="uni03BC" unicode="&#x3bc;" horiz-adv-x="430" 
d="M414 79v-80q-21 -7 -47 -7q-51 0 -77 39q-30 -42 -84 -42q-39 0 -65 20v-189h-94v671h94v-347q0 -32 17.5 -50.5t46.5 -18.5q30 0 48.5 19t18.5 49v348h93v-373q0 -40 31 -40q13 0 18 1z" />
    <glyph glyph-name="nu" unicode="&#x3bd;" horiz-adv-x="389" 
d="M282 491h100l-161 -491h-52l-162 491h101l87 -296z" />
    <glyph glyph-name="xi" unicode="&#x3be;" horiz-adv-x="334" 
d="M324 -81q0 -55 -18 -99h-91q14 64 14 85q0 37 -12.5 58t-41.5 34l-35 15q-58 25 -84 71t-26 121q0 144 89 183q-78 41 -78 148q0 84 52 130h-62v85h287v-85h-85q-46 0 -72.5 -31.5t-26.5 -85.5q0 -59 26 -91.5t73 -32.5h53v-82h-52q-56 0 -82.5 -31.5t-26.5 -98.5
q0 -53 16 -81t55 -45l35 -16q49 -21 71 -57t22 -94z" />
    <glyph glyph-name="omicron" unicode="&#x3bf;" horiz-adv-x="387" 
d="M29 247q0 255 164 255t164 -255q0 -258 -164 -258t-164 258zM262 244q0 92 -16 132t-53 40q-36 0 -52.5 -40t-16.5 -132t16 -131t53 -39t53 39t16 131z" />
    <glyph glyph-name="pi" unicode="&#x3c0;" horiz-adv-x="432" 
d="M60 0v403h-51v88h414v-88h-51v-403h-94v403h-124v-403h-94z" />
    <glyph glyph-name="rho" unicode="&#x3c1;" horiz-adv-x="401" 
d="M371 245q0 -126 -40 -191t-116 -65q-46 0 -77 25v-194h-94v439q0 243 163 243q164 0 164 -257zM276 245q0 92 -16 131.5t-53 39.5t-53 -39t-16 -132q0 -90 16.5 -130.5t52.5 -40.5q38 0 53.5 38.5t15.5 132.5z" />
    <glyph glyph-name="uni03C2" unicode="&#x3c2;" horiz-adv-x="344" 
d="M220 -95q0 68 -52 92l-26 13q-63 31 -88 82t-25 154q0 256 164 256q58 0 92 -31.5t50 -99.5l-81 -22q-9 37 -23 52t-38 15q-38 0 -53.5 -38.5t-15.5 -131.5q2 -77 16 -109t57 -53l29 -14q47 -22 67.5 -57.5t20.5 -94.5q0 -53 -16 -98h-92q14 58 14 85z" />
    <glyph glyph-name="sigma" unicode="&#x3c3;" horiz-adv-x="396" 
d="M391 491v-87h-70q39 -60 39 -162q0 -253 -166 -253q-165 0 -165 258q0 244 165 244h197zM263 245q0 87 -16 124t-53 37q-36 0 -52.5 -37.5t-16.5 -123.5q0 -90 16.5 -130.5t52.5 -40.5q38 0 53.5 39t15.5 132z" />
    <glyph glyph-name="tau" unicode="&#x3c4;" horiz-adv-x="322" 
d="M306 404h-104v-278q0 -52 59 -52q23 0 38 3v-80q-26 -8 -57 -8q-64 0 -99 33.5t-35 94.5v287h-103v87h301v-87z" />
    <glyph glyph-name="upsilon" unicode="&#x3c5;" horiz-adv-x="407" 
d="M44 151v340h94v-347q0 -34 17 -52t48 -18q30 0 47.5 18.5t17.5 51.5v347h94v-340q0 -74 -43 -118t-116 -44q-72 0 -115.5 44t-43.5 118z" />
    <glyph glyph-name="phi" unicode="&#x3c6;" horiz-adv-x="516" 
d="M305 -11v-169h-93v169q-89 6 -136 71.5t-47 184.5t47 184t136 71v160h93v-160q89 -6 135.5 -71t46.5 -184t-46.5 -184.5t-135.5 -71.5zM213 71v346q-47 -4 -69 -45.5t-22 -127.5q0 -87 21.5 -128t69.5 -45zM394 244q0 87 -21 128t-69 45v-345q48 4 69 44.5t21 127.5z" />
    <glyph glyph-name="chi" unicode="&#x3c7;" horiz-adv-x="378" 
d="M376 -102h13v-79q-18 -5 -41 -5q-77 0 -100 80l-57 179l-86 -253h-104l139 357l-72 196q-9 24 -18.5 32.5t-29.5 8.5h-13v78q21 6 42 6q40 0 62.5 -19.5t35.5 -61.5l49 -151l77 225h104l-130 -321l81 -232q9 -22 18.5 -31t29.5 -9z" />
    <glyph glyph-name="psi" unicode="&#x3c8;" horiz-adv-x="558" 
d="M232 -180v169q-87 0 -137.5 49.5t-50.5 134.5v318h92v-313q0 -105 96 -105v587h93v-587q96 0 96 105v313h93v-318q0 -85 -50.5 -134.5t-138.5 -49.5v-169h-93z" />
    <glyph glyph-name="omega" unicode="&#x3c9;" horiz-adv-x="578" 
d="M549 234q0 -125 -37.5 -185t-115.5 -60q-74 0 -107 61q-33 -61 -106 -61q-78 0 -116 59.5t-38 185.5q0 114 35 176.5t114 90.5l31 -77q-51 -25 -68.5 -64t-17.5 -124q0 -87 16 -124.5t52 -37.5q52 0 52 82v162h92v-162q0 -82 52 -82q37 0 52.5 37.5t15.5 124.5
q0 86 -17.5 124t-68.5 64l32 77q79 -28 113.5 -90.5t34.5 -176.5z" />
    <glyph glyph-name="iotadieresis" unicode="&#x3ca;" horiz-adv-x="216" 
d="M47 114v377h94v-370q0 -41 35 -43h29v-81q-25 -5 -56 -5q-102 0 -102 122zM-42 672q0 25 17 42t41 17t41 -17.5t17 -41.5t-17.5 -41.5t-40.5 -17.5q-24 0 -41 17.5t-17 41.5zM114 672q0 25 17.5 42t41.5 17q23 0 40 -17.5t17 -41.5q0 -25 -17 -42t-40 -17q-24 0 -41.5 17
t-17.5 42z" />
    <glyph glyph-name="upsilondieresis" unicode="&#x3cb;" horiz-adv-x="407" 
d="M44 151v340h94v-347q0 -34 17 -52t48 -18q30 0 47.5 18.5t17.5 51.5v347h94v-340q0 -74 -43 -118t-116 -44q-72 0 -115.5 44t-43.5 118zM63 672q0 25 17 42t41 17q23 0 40.5 -17.5t17.5 -41.5t-17.5 -41.5t-40.5 -17.5q-24 0 -41 17.5t-17 41.5zM229 672q0 25 17 42
t41 17q23 0 40.5 -17.5t17.5 -41.5t-17.5 -41.5t-40.5 -17.5q-24 0 -41 17t-17 42z" />
    <glyph glyph-name="omicrontonos" unicode="&#x3cc;" horiz-adv-x="387" 
d="M29 247q0 255 164 255t164 -255q0 -258 -164 -258t-164 258zM262 244q0 92 -16 132t-53 40q-36 0 -52.5 -40t-16.5 -132t16 -131t53 -39t53 39t16 131zM146 567v213h111v-16l-42 -197h-69z" />
    <glyph glyph-name="upsilontonos" unicode="&#x3cd;" horiz-adv-x="407" 
d="M44 151v340h94v-347q0 -34 17 -52t48 -18q30 0 47.5 18.5t17.5 51.5v347h94v-340q0 -74 -43 -118t-116 -44q-72 0 -115.5 44t-43.5 118zM157 567v213h111v-16l-42 -197h-69z" />
    <glyph glyph-name="omegatonos" unicode="&#x3ce;" horiz-adv-x="578" 
d="M549 234q0 -125 -37.5 -185t-115.5 -60q-74 0 -107 61q-33 -61 -106 -61q-78 0 -116 59.5t-38 185.5q0 114 35 176.5t114 90.5l31 -77q-51 -25 -68.5 -64t-17.5 -124q0 -87 16 -124.5t52 -37.5q52 0 52 82v162h92v-162q0 -82 52 -82q37 0 52.5 37.5t15.5 124.5
q0 86 -17.5 124t-68.5 64l32 77q79 -28 113.5 -90.5t34.5 -176.5zM242 567v213h111v-16l-42 -197h-69z" />
    <glyph glyph-name="uni0400" unicode="&#x400;" horiz-adv-x="390" 
d="M50 0v660h303v-87h-206v-179h158v-86h-158v-220h215v-88h-312zM162 724l-95 170v16h113l51 -186h-69z" />
    <glyph glyph-name="uni0401" unicode="&#x401;" horiz-adv-x="390" 
d="M50 0v660h303v-87h-206v-179h158v-86h-158v-220h215v-88h-312zM48 811q0 25 17.5 42.5t41.5 17.5t41 -17.5t17 -42.5q0 -24 -17.5 -41.5t-40.5 -17.5q-24 0 -41.5 17.5t-17.5 41.5zM230 811q0 25 17.5 42.5t41.5 17.5q23 0 40.5 -17.5t17.5 -42.5q0 -24 -17.5 -41.5
t-40.5 -17.5q-24 0 -41.5 17t-17.5 42z" />
    <glyph glyph-name="uni0402" unicode="&#x402;" horiz-adv-x="537" 
d="M335 -11l-25 86q58 13 82.5 40.5t24.5 78.5q0 59 -26 90.5t-75 31.5q-46 0 -82 -18v-298h-97v572h-125v88h371v-88h-149v-186q50 19 102 19q85 0 132 -54.5t47 -154.5q0 -92 -42.5 -141t-137.5 -66z" />
    <glyph glyph-name="uni0403" unicode="&#x403;" horiz-adv-x="347" 
d="M50 0v660h283v-88h-186v-572h-97zM164 724l51 186h113v-16l-96 -170h-68z" />
    <glyph glyph-name="uni0404" unicode="&#x404;" horiz-adv-x="426" 
d="M316 179l86 -23q-18 -87 -60 -127t-114 -40q-101 0 -149.5 84t-48.5 258q0 173 49 256.5t149 83.5q72 0 114 -40t60 -127l-86 -23q-12 53 -33 77t-55 24q-92 0 -99 -204h142v-86h-142q3 -111 27 -162.5t72 -51.5q34 0 55 24t33 77z" />
    <glyph glyph-name="uni0405" unicode="&#x405;" horiz-adv-x="411" 
d="M18 150l84 30q17 -55 41 -79t62 -24q37 0 58.5 22t21.5 59q0 30 -16 55t-60 64l-50 45q-61 57 -86.5 99.5t-25.5 90.5q0 72 46 115.5t121 43.5q67 0 108.5 -36.5t63.5 -113.5l-85 -28q-14 49 -33 69.5t-50 20.5q-34 0 -54 -19t-20 -51q0 -25 15 -48.5t52 -57.5l51 -46
q69 -62 93 -107q27 -45 27 -98q0 -76 -48.5 -121.5t-128.5 -45.5q-146 0 -187 161z" />
    <glyph glyph-name="uni0406" unicode="&#x406;" horiz-adv-x="197" 
d="M50 0v660h97v-660h-97z" />
    <glyph glyph-name="uni0407" unicode="&#x407;" horiz-adv-x="197" 
d="M50 0v660h97v-660h-97zM-51 811q0 25 17.5 42.5t41.5 17.5t41 -17.5t17 -42.5q0 -24 -17.5 -41.5t-40.5 -17.5q-24 0 -41.5 17.5t-17.5 41.5zM131 811q0 25 17.5 42.5t41.5 17.5q23 0 40.5 -17.5t17.5 -42.5q0 -24 -17.5 -41.5t-40.5 -17.5q-24 0 -41.5 17t-17.5 42z" />
    <glyph glyph-name="uni0408" unicode="&#x408;" horiz-adv-x="266" 
d="M10 -2v85q38 -5 45 -5q64 0 64 69v513h96v-533q0 -138 -139 -138q-32 0 -66 9z" />
    <glyph glyph-name="uni0409" unicode="&#x409;" horiz-adv-x="730" 
d="M709 206q0 -99 -54 -152.5t-155 -53.5h-160v571h-151l-3 -168q-3 -161 -14 -250q-11 -84 -41 -120.5t-89 -36.5q-22 0 -35 4v84q16 -2 17 -2q21 2 32.5 13.5t19.5 49t11 95t5 164.5l4 256h341v-247l63 -1q101 -1 155 -54t54 -152zM611 206q0 118 -110 118h-64v-236h64
q110 0 110 118z" />
    <glyph glyph-name="uni040A" unicode="&#x40a;" horiz-adv-x="729" 
d="M50 0v660h97v-254h191v254h97v-254h64q100 0 154.5 -53t54.5 -150t-55 -150t-154 -53h-161v317h-191v-317h-97zM435 88h64q110 0 110 116q0 115 -110 115h-64v-231z" />
    <glyph glyph-name="uni040B" unicode="&#x40b;" horiz-adv-x="553" 
d="M507 214v-214h-96v207q0 53 -24 81t-68 28q-47 0 -85 -19v-297h-97v572h-125v88h370v-88h-148v-185q50 18 104 18q79 0 124 -50.5t45 -140.5z" />
    <glyph glyph-name="uni040C" unicode="&#x40c;" horiz-adv-x="457" 
d="M50 660h97v-660h-97v660zM256 352l186 -352h-109l-186 353l178 307h109zM193 724l51 186h113v-16l-96 -170h-68z" />
    <glyph glyph-name="uni040D" unicode="&#x40d;" horiz-adv-x="485" 
d="M383 660h52v-660h-97v417l-236 -417h-52v660h98v-411zM209 724l-95 170v16h113l51 -186h-69z" />
    <glyph glyph-name="uni040E" unicode="&#x40e;" horiz-adv-x="428" 
d="M320 660h101l-154 -526q-22 -77 -55.5 -109t-90.5 -32q-29 0 -52 6v85q18 -3 33 -3q28 0 44.5 15.5t26.5 51.5l2 7l-165 505h102l109 -361zM96 865v45h75v-45q0 -62 51 -62q49 0 49 62v45h76v-45q0 -63 -33 -98.5t-92 -35.5q-60 0 -93 35t-33 99z" />
    <glyph glyph-name="uni040F" unicode="&#x40f;" horiz-adv-x="479" 
d="M428 660v-660h-140v-141h-97v141h-141v660h97v-571h184v571h97z" />
    <glyph glyph-name="uni0410" unicode="&#x410;" horiz-adv-x="449" 
d="M342 0l-29 114h-178l-29 -114h-98l190 660h52l191 -660h-99zM224 465l-68 -269h136z" />
    <glyph glyph-name="uni0411" unicode="&#x411;" horiz-adv-x="436" 
d="M50 0v660h318v-88h-221v-186h86q84 0 133 -51.5t49 -140.5q0 -88 -50 -141t-132 -53h-183zM147 86h73q45 0 71.5 28.5t26.5 79.5q0 50 -26 79t-72 29h-73v-216z" />
    <glyph glyph-name="uni0412" unicode="&#x412;" horiz-adv-x="440" 
d="M419 187q0 -84 -53.5 -135.5t-140.5 -51.5h-175v660h149q89 0 139.5 -46t50.5 -126q0 -93 -68 -137q46 -22 72 -65t26 -99zM196 575h-52v-187h53q96 0 96 95q0 92 -97 92zM323 194q0 53 -28 82t-81 29h-70v-220h69q110 0 110 109z" />
    <glyph glyph-name="uni0413" unicode="&#x413;" horiz-adv-x="347" 
d="M50 0v660h283v-88h-186v-572h-97z" />
    <glyph glyph-name="uni0414" unicode="&#x414;" horiz-adv-x="520" 
d="M444 89h58v-230h-97v141h-297v-141h-97v230h36q43 51 47 315l5 256h345v-571zM143 89h204v482h-157l-4 -168q-6 -231 -43 -314z" />
    <glyph glyph-name="uni0415" unicode="&#x415;" horiz-adv-x="390" 
d="M50 0v660h303v-87h-206v-179h158v-86h-158v-220h215v-88h-312z" />
    <glyph glyph-name="uni0416" unicode="&#x416;" horiz-adv-x="696" 
d="M23 660h109l168 -307l-176 -353h-109l179 351zM300 660h96v-660h-96v660zM503 354l178 -354h-109l-175 353l167 307h109z" />
    <glyph glyph-name="uni0417" unicode="&#x417;" horiz-adv-x="412" 
d="M388 182q0 -93 -47.5 -143t-135.5 -50q-149 0 -182 159l87 25q11 -50 33.5 -72.5t59.5 -22.5q90 0 90 111q0 54 -24.5 83t-70.5 29h-66v84h66q42 0 64.5 25t22.5 71q0 48 -21.5 74.5t-59.5 26.5q-36 0 -58 -22t-33 -69l-87 27q20 78 63.5 115.5t115.5 37.5q83 0 129 -48
t46 -134q0 -108 -77 -143q85 -42 85 -164z" />
    <glyph glyph-name="uni0418" unicode="&#x418;" horiz-adv-x="485" 
d="M383 660h52v-660h-97v417l-236 -417h-52v660h98v-411z" />
    <glyph glyph-name="uni0419" unicode="&#x419;" horiz-adv-x="485" 
d="M383 660h52v-660h-97v417l-236 -417h-52v660h98v-411zM119 865v45h75v-45q0 -62 51 -62q49 0 49 62v45h76v-45q0 -63 -33 -98.5t-92 -35.5q-60 0 -93 35t-33 99z" />
    <glyph glyph-name="uni041A" unicode="&#x41a;" horiz-adv-x="457" 
d="M50 660h97v-660h-97v660zM256 352l186 -352h-109l-186 353l178 307h109z" />
    <glyph glyph-name="uni041B" unicode="&#x41b;" horiz-adv-x="487" 
d="M96 660h341v-660h-97v571h-151l-4 -168q-5 -176 -16 -256q-11 -83 -39.5 -117t-87.5 -34q-22 0 -35 4v84q14 -2 17 -2q26 0 39 25t19 92q6 68 9 205z" />
    <glyph glyph-name="uni041C" unicode="&#x41c;" horiz-adv-x="543" 
d="M441 660h51v-660h-97v381l-107 -207h-34l-107 207v-381h-97v660h52l169 -330z" />
    <glyph glyph-name="uni041D" unicode="&#x41d;" horiz-adv-x="485" 
d="M50 0v660h97v-265h191v265h97v-660h-97v307h-191v-307h-97z" />
    <glyph glyph-name="uni041E" unicode="&#x41e;" horiz-adv-x="464" 
d="M30 331q0 175 49 257.5t152 82.5q104 0 153.5 -82.5t49.5 -256.5q0 -175 -49.5 -259t-153.5 -84q-103 0 -152 83.5t-49 258.5zM336 331q0 133 -24.5 192t-80.5 59q-54 0 -78.5 -58.5t-24.5 -192.5q0 -135 24 -194t79 -59q56 0 80.5 59t24.5 194z" />
    <glyph glyph-name="uni041F" unicode="&#x41f;" horiz-adv-x="479" 
d="M50 0v660h378v-660h-97v571h-185v-571h-96z" />
    <glyph glyph-name="uni0420" unicode="&#x420;" horiz-adv-x="436" 
d="M50 0v660h161q97 0 150.5 -52.5t53.5 -148.5t-53.5 -149t-150.5 -53h-64v-257h-97zM147 345h64q105 0 105 114q0 113 -105 113h-64v-227z" />
    <glyph glyph-name="uni0421" unicode="&#x421;" horiz-adv-x="426" 
d="M30 331q0 173 48.5 256.5t149.5 83.5q72 0 114.5 -40.5t59.5 -126.5l-88 -22q-22 100 -86 100q-52 0 -76 -60.5t-24 -190.5q0 -132 24 -192.5t76 -60.5q64 0 86 100l88 -22q-17 -86 -59.5 -126.5t-114.5 -40.5q-101 0 -149.5 84t-48.5 258z" />
    <glyph glyph-name="uni0422" unicode="&#x422;" horiz-adv-x="405" 
d="M154 0v571h-142v89h381v-89h-142v-571h-97z" />
    <glyph glyph-name="uni0423" unicode="&#x423;" horiz-adv-x="428" 
d="M320 660h101l-154 -526q-22 -77 -55.5 -109t-90.5 -32q-29 0 -52 6v85q18 -3 33 -3q28 0 44.5 15.5t26.5 51.5l2 7l-165 505h102l109 -361z" />
    <glyph glyph-name="uni0424" unicode="&#x424;" horiz-adv-x="562" 
d="M330 67v-87h-97v87q-98 6 -150.5 73.5t-52.5 186.5q0 126 53 197.5t150 77.5v78h97v-78q98 -6 150 -77t52 -198q0 -119 -52.5 -186.5t-149.5 -73.5zM236 154v361q-113 -10 -113 -187q0 -167 113 -174zM439 328q0 177 -112 187v-361q112 7 112 174z" />
    <glyph glyph-name="uni0425" unicode="&#x425;" horiz-adv-x="436" 
d="M421 660l-141 -331l141 -329h-108l-95 236l-96 -236h-107l142 329l-142 331h106l97 -240l97 240h106z" />
    <glyph glyph-name="uni0426" unicode="&#x426;" horiz-adv-x="500" 
d="M386 -141v141h-336v660h97v-571h184v571h97v-571h55v-230h-97z" />
    <glyph glyph-name="uni0427" unicode="&#x427;" horiz-adv-x="462" 
d="M314 660h97v-660h-97v257q-51 -18 -104 -18q-84 0 -130.5 50t-46.5 141v230h97v-223q0 -109 93 -109q50 0 91 19v313z" />
    <glyph glyph-name="uni0428" unicode="&#x428;" horiz-adv-x="717" 
d="M50 0v660h97v-571h163v571h97v-571h163v571h97v-660h-617z" />
    <glyph glyph-name="uni0429" unicode="&#x429;" horiz-adv-x="739" 
d="M625 -141v141h-575v660h97v-571h163v571h97v-571h163v571h97v-571h55v-230h-97z" />
    <glyph glyph-name="uni042A" unicode="&#x42a;" horiz-adv-x="509" 
d="M119 0v572h-107v88h203v-248l64 -1q101 -1 155 -54t54 -151q0 -99 -54 -152.5t-155 -53.5h-160zM215 88h65q110 0 110 118t-110 118h-65v-236z" />
    <glyph glyph-name="uni042B" unicode="&#x42b;" horiz-adv-x="621" 
d="M50 0v660h97v-248h64q100 0 154.5 -53.5t54.5 -152.5t-54.5 -152.5t-154.5 -53.5h-161zM147 88h64q110 0 110 118t-110 118h-64v-236zM474 0v660h97v-660h-97z" />
    <glyph glyph-name="uni042C" unicode="&#x42c;" horiz-adv-x="441" 
d="M50 0v660h97v-248h64q100 0 154.5 -53.5t54.5 -152.5t-54.5 -152.5t-154.5 -53.5h-161zM147 88h64q110 0 110 118t-110 118h-64v-236z" />
    <glyph glyph-name="uni042D" unicode="&#x42d;" horiz-adv-x="426" 
d="M396 331q0 -174 -48.5 -258t-148.5 -84q-72 0 -114.5 40.5t-60.5 126.5l86 23q23 -100 88 -100q49 0 72.5 50.5t27.5 164.5h-142v85h141q-4 106 -27.5 154t-71.5 48q-65 0 -88 -100l-86 23q18 86 60.5 126.5t114.5 40.5q100 0 148.5 -83t48.5 -257z" />
    <glyph glyph-name="uni042E" unicode="&#x42e;" horiz-adv-x="645" 
d="M615 332q0 -177 -48 -260t-150 -83q-96 0 -143 77t-50 241h-77v-307h-97v660h97v-265h79q7 141 54 208.5t137 67.5q103 0 150.5 -81.5t47.5 -257.5zM516 331q0 137 -23 194t-76 57t-75 -56.5t-22 -194.5q0 -139 22 -196t75 -57q54 0 76.5 57.5t22.5 195.5z" />
    <glyph glyph-name="uni042F" unicode="&#x42f;" horiz-adv-x="449" 
d="M238 660h161v-660h-97v243h-65h-4l-104 -243h-103l114 263q-106 48 -106 189q0 98 53.5 153t150.5 55zM302 331v241h-64q-106 0 -106 -120q0 -121 106 -121h64z" />
    <glyph glyph-name="uni0430" unicode="&#x430;" horiz-adv-x="384" 
d="M340 346v-346h-87v39q-36 -50 -104 -50q-56 0 -91 38t-35 99q0 66 40.5 105.5t108.5 39.5h74v68q0 37 -17.5 57t-49.5 20q-51 0 -84 -64l-63 47q48 103 157 103q70 0 110.5 -41.5t40.5 -114.5zM246 137v64h-58q-34 0 -53.5 -18.5t-19.5 -51.5q0 -30 17 -47.5t46 -17.5
q30 0 49 20t19 51z" />
    <glyph glyph-name="uni0431" unicode="&#x431;" horiz-adv-x="388" 
d="M359 243q0 -254 -165 -254q-84 0 -124 68t-40 211v122q0 176 44.5 252.5t159.5 92.5q57 10 97 24v-93q-40 -15 -92 -22q-75 -13 -98 -52.5t-25 -153.5q34 58 96 58q72 0 109.5 -64.5t37.5 -188.5zM264 242q0 91 -16 130t-54 39q-37 0 -53.5 -39.5t-16.5 -129.5
q0 -88 16.5 -128t53.5 -40t53.5 39.5t16.5 128.5z" />
    <glyph glyph-name="uni0432" unicode="&#x432;" horiz-adv-x="388" 
d="M359 145q0 -67 -45 -106t-120 -39h-142v492h129q77 0 118 -34t41 -98q0 -73 -52 -101q71 -25 71 -114zM143 414v-122h46q64 0 64 61t-64 61h-46zM269 150q0 69 -74 69h-52v-139h52q74 0 74 70z" />
    <glyph glyph-name="uni0433" unicode="&#x433;" horiz-adv-x="319" 
d="M52 0v491h250v-82h-156v-409h-94z" />
    <glyph glyph-name="uni0434" unicode="&#x434;" horiz-adv-x="449" 
d="M379 82h49v-223h-92v141h-235v-141h-91v223h27q21 20 30 65t11 141l4 203h297v-409zM133 82h152v327h-117l-2 -121q-4 -147 -33 -206z" />
    <glyph glyph-name="uni0435" unicode="&#x435;" horiz-adv-x="372" 
d="M279 129l64 -48q-51 -92 -143 -92q-171 0 -171 257q0 256 162 256q151 0 151 -220q0 -36 -5 -69h-214q3 -75 22 -107.5t59 -32.5q44 0 75 56zM123 287h132q1 133 -63 133q-34 0 -50.5 -31.5t-18.5 -101.5z" />
    <glyph glyph-name="uni0436" unicode="&#x436;" horiz-adv-x="584" 
d="M244 491h94v-491h-94v255l-133 -255h-106l137 253l-136 238h105l133 -232v232zM441 254l138 -254h-106l-135 257l133 234h106z" />
    <glyph glyph-name="uni0437" unicode="&#x437;" horiz-adv-x="349" 
d="M321 136q0 -69 -41 -108t-113 -39q-113 0 -152 111l71 39q14 -37 31.5 -52.5t45.5 -15.5q32 0 50 19t18 54q0 68 -71 68h-49v76h48q28 0 43.5 17t15.5 47q0 32 -16.5 50t-45.5 18q-25 0 -40.5 -14t-29.5 -49l-71 38q20 56 54.5 81.5t89.5 25.5q70 0 110 -37.5t40 -103.5
q0 -73 -51 -109q63 -32 63 -116z" />
    <glyph glyph-name="uni0438" unicode="&#x438;" horiz-adv-x="424" 
d="M319 491h53v-491h-94v276l-173 -276h-53v491h94v-272z" />
    <glyph glyph-name="uni0439" unicode="&#x439;" horiz-adv-x="424" 
d="M319 491h53v-491h-94v276l-173 -276h-53v491h94v-272zM93 709v49h75v-50q0 -65 48 -65q46 0 46 65v50h77v-49q0 -64 -32.5 -99.5t-90.5 -35.5t-90.5 35.5t-32.5 99.5z" />
    <glyph glyph-name="uni043A" unicode="&#x43a;" horiz-adv-x="397" 
d="M392 0h-104l-142 255v-255h-94v491h94v-232l139 232h106l-138 -237z" />
    <glyph glyph-name="uni043B" unicode="&#x43b;" horiz-adv-x="427" 
d="M80 491h295v-491h-94v409h-113l-3 -121q-3 -120 -13 -178q-9 -60 -34 -87t-74 -27q-22 0 -37 4v81l17 -1q31 4 39.5 41.5t12.5 166.5z" />
    <glyph glyph-name="uni043C" unicode="&#x43c;" horiz-adv-x="491" 
d="M52 0v491h53l140 -231l140 231h54v-491h-94v279l-87 -146h-25l-87 146v-279h-94z" />
    <glyph glyph-name="uni043D" unicode="&#x43d;" horiz-adv-x="421" 
d="M52 0v491h94v-190h129v190h94v-491h-94v219h-129v-219h-94z" />
    <glyph glyph-name="uni043E" unicode="&#x43e;" horiz-adv-x="387" 
d="M29 247q0 255 164 255t164 -255q0 -258 -164 -258t-164 258zM262 244q0 92 -16 132t-53 40q-36 0 -52.5 -40t-16.5 -132t16 -131t53 -39t53 39t16 131z" />
    <glyph glyph-name="uni043F" unicode="&#x43f;" horiz-adv-x="421" 
d="M52 0v491h317v-491h-94v409h-129v-409h-94z" />
    <glyph glyph-name="uni0440" unicode="&#x440;" horiz-adv-x="404" 
d="M375 245q0 -256 -146 -256q-58 0 -88 41v-210h-94v671h86v-47q31 58 96 58q146 0 146 -257zM280 245q0 92 -17 131.5t-56 39.5q-36 0 -52 -40t-16 -132q0 -90 16 -130t52 -40q38 0 55.5 40.5t17.5 130.5z" />
    <glyph glyph-name="uni0441" unicode="&#x441;" horiz-adv-x="355" 
d="M29 246q0 256 164 256q59 0 93.5 -32t49.5 -100l-82 -22q-9 37 -23 52.5t-38 15.5q-38 0 -53.5 -38.5t-15.5 -131.5q0 -94 15.5 -133t53.5 -39q25 0 38.5 15t22.5 53l82 -21q-15 -68 -49.5 -100t-93.5 -32q-83 0 -123.5 63t-40.5 194z" />
    <glyph glyph-name="uni0442" unicode="&#x442;" horiz-adv-x="338" 
d="M122 0v409l-109 -1v82l312 1v-82h-109v-409h-94z" />
    <glyph glyph-name="uni0443" unicode="&#x443;" horiz-adv-x="390" 
d="M283 491h100l-172 -556q-21 -69 -53 -97.5t-88 -28.5q-18 0 -48 6v81q24 -2 31 -2q29 0 44 14t25 48l21 71l-136 464h101l84 -332z" />
    <glyph glyph-name="uni0444" unicode="&#x444;" horiz-adv-x="516" 
d="M305 -10v-170h-94v170q-88 5 -135 71t-47 184t47 183.5t135 70.5v251h94v-251q88 -5 134.5 -70.5t46.5 -183.5t-46.5 -184t-134.5 -71zM212 72v345q-48 -4 -69 -45t-21 -128t21 -127.5t69 -44.5zM393 244q0 87 -21 128t-68 45v-345q47 4 68 44.5t21 127.5z" />
    <glyph glyph-name="uni0445" unicode="&#x445;" horiz-adv-x="371" 
d="M366 0h-105l-75 174l-76 -174h-105l122 256l-115 235h106l68 -155l69 155h105l-115 -234z" />
    <glyph glyph-name="uni0446" unicode="&#x446;" horiz-adv-x="431" 
d="M319 -141v141h-267v491h94v-409h123v409h93v-409h49v-223h-92z" />
    <glyph glyph-name="uni0447" unicode="&#x447;" horiz-adv-x="398" 
d="M253 491h94v-491h-94v184q-33 -12 -71 -12q-73 0 -113 43.5t-40 126.5v149h94v-144q0 -89 79 -89q23 0 51 11v222z" />
    <glyph glyph-name="uni0448" unicode="&#x448;" horiz-adv-x="615" 
d="M52 0v491h94v-409h115v409h94v-409h115v409h94v-491h-512z" />
    <glyph glyph-name="uni0449" unicode="&#x449;" horiz-adv-x="634" 
d="M522 -141v141h-470v491h94v-409h115v409h94v-409h115v409h94v-409h49v-223h-91z" />
    <glyph glyph-name="uni044A" unicode="&#x44a;" horiz-adv-x="442" 
d="M104 0v409h-91v82h185v-166h46q85 0 130.5 -42.5t45.5 -120.5t-45.5 -120t-130.5 -42h-140zM198 82h46q40 0 60.5 18.5t20.5 61.5q0 44 -20 62.5t-61 18.5h-46v-161z" />
    <glyph glyph-name="uni044B" unicode="&#x44b;" horiz-adv-x="563" 
d="M52 0v491h94v-166h46q83 0 128 -42.5t45 -120.5q0 -77 -45 -119.5t-128 -42.5h-140zM418 0v491h94v-491h-94zM146 82h45q41 0 61 18.5t20 61.5q0 44 -20 62.5t-61 18.5h-45v-161z" />
    <glyph glyph-name="uni044C" unicode="&#x44c;" horiz-adv-x="389" 
d="M52 0v491h94v-166h46q85 0 130 -42.5t45 -120.5t-45.5 -120t-129.5 -42h-140zM146 82h45q41 0 61 18.5t20 61.5q0 44 -20 62.5t-61 18.5h-45v-161z" />
    <glyph glyph-name="uni044D" unicode="&#x44d;" horiz-adv-x="355" 
d="M325 245q0 -131 -40 -193.5t-123 -62.5q-59 0 -93.5 32t-49.5 100l79 20q9 -37 23.5 -53t39.5 -16q35 0 52 32.5t20 108.5h-105v75h104q-4 70 -20.5 100.5t-50.5 30.5q-25 0 -39.5 -16t-23.5 -52l-79 19q15 68 49.5 100t93.5 32q83 0 123 -63t40 -194z" />
    <glyph glyph-name="uni044E" unicode="&#x44e;" horiz-adv-x="545" 
d="M516 247q0 -258 -162 -258q-150 0 -157 229h-51v-218h-94v491h94v-191h52q15 202 156 202q162 0 162 -255zM421 244q0 91 -16 131.5t-51 40.5t-51 -40.5t-16 -131.5q0 -90 16 -130t51 -40t51 40t16 130z" />
    <glyph glyph-name="uni044F" unicode="&#x44f;" horiz-adv-x="409" 
d="M218 491h140v-491h-94v166h-42h-10l-92 -166h-107l116 185q-87 39 -87 144q0 78 46 120t130 42zM264 248v161h-46q-81 0 -81 -80q0 -81 81 -81h46z" />
    <glyph glyph-name="uni0450" unicode="&#x450;" horiz-adv-x="372" 
d="M279 129l64 -48q-51 -92 -143 -92q-171 0 -171 257q0 256 162 256q151 0 151 -220q0 -36 -5 -69h-214q3 -75 22 -107.5t59 -32.5q44 0 75 56zM123 287h132q1 133 -63 133q-34 0 -50.5 -31.5t-18.5 -101.5zM158 576l-95 172v16h111l51 -188h-67z" />
    <glyph glyph-name="uni0451" unicode="&#x451;" horiz-adv-x="372" 
d="M279 129l64 -48q-51 -92 -143 -92q-171 0 -171 257q0 256 162 256q151 0 151 -220q0 -36 -5 -69h-214q3 -75 22 -107.5t59 -32.5q44 0 75 56zM123 287h132q1 133 -63 133q-34 0 -50.5 -31.5t-18.5 -101.5zM49 672q0 25 17 42t41 17q23 0 40.5 -17.5t17.5 -41.5
t-17.5 -41.5t-40.5 -17.5q-24 0 -41 17.5t-17 41.5zM215 672q0 25 17 42t41 17q23 0 40.5 -17.5t17.5 -41.5t-17.5 -41.5t-40.5 -17.5q-24 0 -41 17t-17 42z" />
    <glyph glyph-name="uni0452" unicode="&#x452;" horiz-adv-x="413" 
d="M370 338v-399q0 -61 -33 -95t-93 -34q-24 0 -41 5v81q4 0 9 -0.5t8 -1t4 -0.5q52 0 52 58v376q0 31 -17 49.5t-46 18.5q-30 0 -49 -19t-19 -49v-328h-93v573h-54v81h54v96h93v-96h135v-81h-135v-132q32 41 91 41q60 0 97 -40t37 -104z" />
    <glyph glyph-name="uni0453" unicode="&#x453;" horiz-adv-x="319" 
d="M52 0v491h250v-82h-156v-409h-94zM139 576l51 188h111v-16l-95 -172h-67z" />
    <glyph glyph-name="uni0454" unicode="&#x454;" horiz-adv-x="355" 
d="M257 140l79 -19q-15 -68 -49.5 -100t-93.5 -32q-83 0 -123.5 63t-40.5 194q0 256 164 256q59 0 93.5 -32t49.5 -100l-79 -20q-9 36 -23.5 52.5t-39.5 16.5q-35 0 -51.5 -30.5t-19.5 -100.5h106v-75h-107q3 -76 20 -108.5t52 -32.5q25 0 39.5 16t23.5 52z" />
    <glyph glyph-name="uni0455" unicode="&#x455;" horiz-adv-x="343" 
d="M15 98l67 40q32 -66 86 -66q26 0 42 15t16 40q0 19 -12 34.5t-42 37.5l-35 24q-51 37 -74.5 72t-23.5 76q0 59 38.5 95t101.5 36q103 0 142 -96l-67 -42q-24 56 -71 56q-23 0 -36.5 -13t-13.5 -35q0 -34 45 -69l32 -22q59 -42 84 -77t25 -78q0 -61 -41.5 -99t-107.5 -38
q-112 0 -155 109z" />
    <glyph glyph-name="uni0456" unicode="&#x456;" horiz-adv-x="189" 
d="M30 671q0 27 19 46t46 19q26 0 45 -19t19 -46t-19 -45.5t-45 -18.5q-27 0 -46 19t-19 45zM48 0v491h93v-491h-93z" />
    <glyph glyph-name="uni0457" unicode="&#x457;" horiz-adv-x="199" 
d="M-20 672q0 26 16 44.5t39 18.5q24 0 39.5 -18t15.5 -45q0 -26 -15.5 -44t-39.5 -18t-39.5 18t-15.5 44zM109 672q0 27 15.5 45t39.5 18t39.5 -18t15.5 -45q0 -26 -15.5 -44t-39.5 -18t-39.5 18t-15.5 44zM52 0v491h94v-491h-94z" />
    <glyph glyph-name="uni0458" unicode="&#x458;" horiz-adv-x="187" 
d="M-26 -185v81q4 0 9 -0.5t8 -1t4 -0.5q52 0 52 58v539h94v-552q0 -62 -33 -95.5t-93 -33.5q-24 0 -41 5zM31 671q0 27 18.5 45t44.5 18t44.5 -18t18.5 -45q0 -26 -18.5 -44.5t-44.5 -18.5t-44.5 18.5t-18.5 44.5z" />
    <glyph glyph-name="uni0459" unicode="&#x459;" horiz-adv-x="618" 
d="M595 162q0 -78 -45.5 -120t-129.5 -42h-140v409h-112l-3 -121q-3 -120 -13 -178q-9 -60 -34 -87t-74 -27q-22 0 -37 4v81l17 -1q31 4 39.5 41.5t12.5 166.5l4 203h294v-166h46q85 0 130 -42.5t45 -120.5zM500 162q0 44 -20 62.5t-61 18.5h-45v-161h45q41 0 61 18.5
t20 61.5z" />
    <glyph glyph-name="uni045A" unicode="&#x45a;" horiz-adv-x="613" 
d="M590 160q0 -77 -45.5 -118.5t-129.5 -41.5h-140v236h-129v-236h-94v491h94v-173h129v173h94v-173h46q84 0 129.5 -41.5t45.5 -116.5zM496 161q0 76 -81 76h-46v-155h46q40 0 60.5 18t20.5 61z" />
    <glyph glyph-name="uni045B" unicode="&#x45b;" horiz-adv-x="413" 
d="M370 338v-338h-94v328q0 31 -17 49.5t-46 18.5q-30 0 -49 -19t-19 -49v-328h-93v573h-54v81h54v96h93v-96h135v-81h-135v-132q32 41 91 41q60 0 97 -40t37 -104z" />
    <glyph glyph-name="uni045C" unicode="&#x45c;" horiz-adv-x="397" 
d="M392 0h-104l-142 255v-255h-94v491h94v-232l139 232h106l-138 -237zM173 576l51 188h111v-16l-95 -172h-67z" />
    <glyph glyph-name="uni045D" unicode="&#x45d;" horiz-adv-x="424" 
d="M319 491h53v-491h-94v276l-173 -276h-53v491h94v-272zM184 576l-95 172v16h111l51 -188h-67z" />
    <glyph glyph-name="uni045E" unicode="&#x45e;" horiz-adv-x="390" 
d="M283 491h100l-172 -556q-21 -69 -53 -97.5t-88 -28.5q-18 0 -48 6v81q24 -2 31 -2q29 0 44 14t25 48l21 71l-136 464h101l84 -332zM72 709v49h75v-50q0 -65 48 -65q46 0 46 65v50h77v-49q0 -64 -32.5 -99.5t-90.5 -35.5t-90.5 35.5t-32.5 99.5z" />
    <glyph glyph-name="uni045F" unicode="&#x45f;" horiz-adv-x="420" 
d="M368 491v-491h-111v-141h-94v141h-111v491h94v-409h129v409h93z" />
    <glyph glyph-name="uni0462" unicode="&#x462;" horiz-adv-x="494" 
d="M108 0v492h-96v84h96v89h97v-89h149v-84h-149v-100h81q88 0 137.5 -52t49.5 -144q0 -91 -50 -143.5t-137 -52.5h-178zM205 87h69q103 0 103 110t-103 110h-69v-220z" />
    <glyph glyph-name="uni0463" unicode="&#x463;" horiz-adv-x="390" 
d="M52 0v411h-54v80h54v259h94v-259h137v-80h-137v-100h46q85 0 130.5 -40t45.5 -115t-46 -115.5t-130 -40.5h-140zM146 82h46q41 0 61 17t20 58t-20 58t-61 17h-46v-150z" />
    <glyph glyph-name="uni0472" unicode="&#x472;" horiz-adv-x="464" 
d="M434 332q0 -175 -49.5 -259t-153.5 -84q-103 0 -152 83.5t-49 258.5t49 257.5t152 82.5q104 0 153.5 -82.5t49.5 -256.5zM127 378q24 15 50 15q20 0 56 -17q33 -16 54 -16q25 0 50 18q-4 109 -29 157.5t-77 48.5q-51 0 -75.5 -48t-28.5 -158zM337 290q-25 -16 -50 -16
q-22 0 -55 16t-55 16q-25 0 -50 -16q3 -114 27.5 -164t76.5 -50q53 0 78 50.5t28 163.5z" />
    <glyph glyph-name="uni0473" unicode="&#x473;" horiz-adv-x="387" 
d="M357 247q0 -258 -164 -258t-164 258q0 255 164 255t164 -255zM122 293q16 8 31 8q9 0 19 -3.5t17 -7.5t8 -4q25 -16 43 -16q13 0 25 6q-2 76 -19 109.5t-53 33.5q-33 0 -50 -30t-21 -96zM265 201q-13 -6 -26 -6q-20 0 -45 16q-1 0 -8 4t-17 7.5t-18 3.5q-11 0 -30 -8
q2 -79 19 -113t53 -34q35 0 51.5 30t20.5 100z" />
    <glyph glyph-name="uni0474" unicode="&#x474;" horiz-adv-x="467" 
d="M465 661v-84q-5 1 -18 1q-30 0 -43 -45l-154 -533h-52l-190 660h102l114 -421l92 332q13 49 36 72t63 23q25 0 50 -5z" />
    <glyph glyph-name="uni0475" unicode="&#x475;" horiz-adv-x="395" 
d="M395 491v-79q-4 1 -17 1q-15 0 -22 -7.5t-14 -29.5l-121 -376h-52l-162 491h101l86 -299l68 226q12 42 32.5 61.5t56.5 19.5q23 0 44 -8z" />
    <glyph glyph-name="uni0490" unicode="&#x490;" horiz-adv-x="347" 
d="M50 0v660h187v130h96v-218h-186v-572h-97z" />
    <glyph glyph-name="uni0491" unicode="&#x491;" horiz-adv-x="319" 
d="M52 0v491h159v132h91v-214h-156v-409h-94z" />
    <glyph glyph-name="uni0492" unicode="&#x492;" horiz-adv-x="346" 
d="M325 572h-178v-221h104v-86h-104v-265h-97v265h-55v86h55v309h275v-88z" />
    <glyph glyph-name="uni0493" unicode="&#x493;" horiz-adv-x="324" 
d="M307 409h-160v-144h102v-81h-102v-184h-94v184h-54v81h54v226h254v-82z" />
    <glyph glyph-name="uni0496" unicode="&#x496;" horiz-adv-x="705" 
d="M23 660h108l169 -307l-176 -353h-109l179 352zM300 660h96v-660h-96v660zM636 89h64v-230h-97v141h-32l-174 353l168 307h108l-171 -306z" />
    <glyph glyph-name="uni0497" unicode="&#x497;" horiz-adv-x="606" 
d="M244 491h94v-491h-94v255l-133 -255h-106l137 253l-136 238h105l133 -232v232zM533 82h54v-223h-92v141h-22l-135 257l133 234h106l-137 -237z" />
    <glyph glyph-name="uni0498" unicode="&#x498;" horiz-adv-x="412" 
d="M388 182q0 -93 -47.5 -143t-135.5 -50q-149 0 -182 159l87 25q11 -50 33.5 -72.5t59.5 -22.5q90 0 90 111q0 54 -24.5 83t-70.5 29h-66v84h66q42 0 64.5 25t22.5 71q0 48 -21.5 74.5t-59.5 26.5q-36 0 -58 -22t-33 -69l-87 27q20 78 63.5 115.5t115.5 37.5q83 0 129 -48
t46 -134q0 -108 -77 -143q85 -42 85 -164zM116 -183v68q17 -4 33 -4q23 0 36 12t13 33q0 45 -18 94l48 13q50 -47 50 -116q0 -49 -31.5 -78.5t-81.5 -29.5q-31 0 -49 8z" />
    <glyph glyph-name="uni0499" unicode="&#x499;" horiz-adv-x="349" 
d="M321 136q0 -69 -41 -108t-113 -39q-113 0 -152 111l71 39q14 -37 31.5 -52.5t45.5 -15.5q32 0 50 19t18 54q0 68 -71 68h-49v76h48q28 0 43.5 17t15.5 47q0 32 -16.5 50t-45.5 18q-25 0 -40.5 -14t-29.5 -49l-71 38q20 56 54.5 81.5t89.5 25.5q70 0 110 -37.5t40 -103.5
q0 -73 -51 -109q63 -32 63 -116zM72 -183v68q17 -4 33 -4q23 0 36 12t13 33q0 45 -18 94l48 13q50 -47 50 -116q0 -49 -31.5 -78.5t-81.5 -29.5q-31 0 -49 8z" />
    <glyph glyph-name="uni049A" unicode="&#x49a;" horiz-adv-x="463" 
d="M50 660h97v-660h-97v660zM395 89h64v-230h-97v141h-30l-185 353l179 307h108l-177 -308z" />
    <glyph glyph-name="uni049B" unicode="&#x49b;" horiz-adv-x="417" 
d="M345 82h51v-223h-91v141h-20l-139 253v-253h-94v491h94v-231l139 231h105l-138 -237z" />
    <glyph glyph-name="uni04A0" unicode="&#x4a0;" horiz-adv-x="556" 
d="M13 660h234v-660h-97v572h-137v88zM356 352l185 -352h-108l-186 353l178 307h109z" />
    <glyph glyph-name="uni04A1" unicode="&#x4a1;" horiz-adv-x="467" 
d="M462 0h-106l-139 258l-1 -258h-93v411h-110v80h204v-231l135 231h106l-136 -233z" />
    <glyph glyph-name="uni04A2" unicode="&#x4a2;" horiz-adv-x="507" 
d="M392 -141v141h-54v307h-191v-307h-97v660h97v-265h191v265h97v-571h54v-230h-97z" />
    <glyph glyph-name="uni04A3" unicode="&#x4a3;" horiz-adv-x="438" 
d="M326 -141v141h-51v218h-129v-218h-94v491h94v-190h129v190h94v-409h48v-223h-91z" />
    <glyph glyph-name="uni04AA" unicode="&#x4aa;" horiz-adv-x="426" 
d="M30 331q0 173 48.5 256.5t149.5 83.5q72 0 114.5 -40.5t59.5 -126.5l-88 -22q-22 100 -86 100q-52 0 -76 -60.5t-24 -190.5q0 -132 24 -192.5t76 -60.5q64 0 86 100l88 -22q-17 -86 -59.5 -126.5t-114.5 -40.5q-101 0 -149.5 84t-48.5 258zM134 -183v68q17 -4 33 -4
q23 0 36 12t13 33q0 45 -18 94l48 13q50 -47 50 -116q0 -49 -31.5 -78.5t-81.5 -29.5q-31 0 -49 8z" />
    <glyph glyph-name="uni04AB" unicode="&#x4ab;" horiz-adv-x="355" 
d="M29 246q0 256 164 256q59 0 93.5 -32t49.5 -100l-82 -22q-9 37 -23 52.5t-38 15.5q-38 0 -53.5 -38.5t-15.5 -131.5q0 -94 15.5 -133t53.5 -39q25 0 38.5 15t22.5 53l82 -21q-15 -68 -49.5 -100t-93.5 -32q-83 0 -123.5 63t-40.5 194zM101 -183v68q17 -4 33 -4
q23 0 36 12t13 33q0 45 -18 94l48 13q50 -47 50 -116q0 -49 -31.5 -78.5t-81.5 -29.5q-31 0 -49 8z" />
    <glyph glyph-name="uni04AE" unicode="&#x4ae;" horiz-adv-x="424" 
d="M415 660l-154 -399v-261h-97v259l-154 401h105l98 -278l98 278h104z" />
    <glyph glyph-name="uni04AF" unicode="&#x4af;" horiz-adv-x="391" 
d="M383 491l-141 -490v-181h-94v184l-140 487h101l86 -367l88 367h100z" />
    <glyph glyph-name="uni04B0" unicode="&#x4b0;" horiz-adv-x="435" 
d="M267 273v-1h98v-85h-98v-187h-97v187h-100v85h99l-154 388h105l98 -275l99 275h104z" />
    <glyph glyph-name="uni04B1" unicode="&#x4b1;" horiz-adv-x="391" 
d="M242 1v-1h99v-80h-99v-100h-94v100h-99v80h99v4l-140 487h101l86 -367l88 367h100z" />
    <glyph glyph-name="uni04B2" unicode="&#x4b2;" horiz-adv-x="448" 
d="M384 89h59v-230h-97v141h-33l-95 237l-96 -237h-107l142 329l-142 331h106l97 -241l97 241h106l-141 -331z" />
    <glyph glyph-name="uni04B3" unicode="&#x4b3;" horiz-adv-x="394" 
d="M325 82h51v-223h-92v141h-23l-75 174l-76 -174h-105l122 256l-115 235h105l69 -157l69 157h105l-116 -234z" />
    <glyph glyph-name="uni04B6" unicode="&#x4b6;" horiz-adv-x="483" 
d="M411 89h55v-230h-98v141h-54v257q-51 -18 -104 -18q-84 0 -130.5 50t-46.5 141v230h97v-223q0 -109 93 -109q50 0 91 19v313h97v-571z" />
    <glyph glyph-name="uni04B7" unicode="&#x4b7;" horiz-adv-x="416" 
d="M347 82h48v-223h-91v141h-51v184q-33 -12 -71 -12q-74 0 -113.5 42.5t-39.5 127.5v149h94v-146q0 -87 79 -87q23 0 51 11v222h94v-409z" />
    <glyph glyph-name="uni04BA" unicode="&#x4ba;" horiz-adv-x="462" 
d="M429 230v-230h-97v223q0 109 -94 109q-49 0 -90 -19v-313h-97v660h97v-257q51 18 104 18q84 0 130.5 -50t46.5 -141z" />
    <glyph glyph-name="uni04BB" unicode="&#x4bb;" horiz-adv-x="409" 
d="M365 357v-357h-93v348q0 31 -18 49.5t-47 18.5t-47.5 -19t-18.5 -49v-348h-94v750h94v-283q35 35 92 35q59 0 95.5 -40t36.5 -105z" />
    <glyph glyph-name="uni04C0" unicode="&#x4c0;" horiz-adv-x="197" 
d="M50 0v660h97v-660h-97z" />
    <glyph glyph-name="uni04C1" unicode="&#x4c1;" horiz-adv-x="696" 
d="M23 660h109l168 -307l-176 -353h-109l179 351zM300 660h96v-660h-96v660zM503 354l178 -354h-109l-175 353l167 307h109zM222 865v45h75v-45q0 -62 51 -62q49 0 49 62v45h76v-45q0 -63 -33 -98.5t-92 -35.5q-60 0 -93 35t-33 99z" />
    <glyph glyph-name="uni04C2" unicode="&#x4c2;" horiz-adv-x="584" 
d="M244 491h94v-491h-94v255l-133 -255h-106l137 253l-136 238h105l133 -232v232zM441 254l138 -254h-106l-135 257l133 234h106zM169 709v49h75v-50q0 -65 48 -65q46 0 46 65v50h77v-49q0 -64 -32.5 -99.5t-90.5 -35.5t-90.5 35.5t-32.5 99.5z" />
    <glyph glyph-name="uni04CF" unicode="&#x4cf;" horiz-adv-x="197" 
d="M52 0v750h94v-750h-94z" />
    <glyph glyph-name="uni04D0" unicode="&#x4d0;" horiz-adv-x="449" 
d="M342 0l-29 114h-178l-29 -114h-98l190 660h52l191 -660h-99zM224 465l-68 -269h136zM98 865v45h75v-45q0 -62 51 -62q49 0 49 62v45h76v-45q0 -63 -33 -98.5t-92 -35.5q-60 0 -93 35t-33 99z" />
    <glyph glyph-name="uni04D1" unicode="&#x4d1;" horiz-adv-x="384" 
d="M340 346v-346h-87v39q-36 -50 -104 -50q-56 0 -91 38t-35 99q0 66 40.5 105.5t108.5 39.5h74v68q0 37 -17.5 57t-49.5 20q-51 0 -84 -64l-63 47q48 103 157 103q70 0 110.5 -41.5t40.5 -114.5zM246 137v64h-58q-34 0 -53.5 -18.5t-19.5 -51.5q0 -30 17 -47.5t46 -17.5
q30 0 49 20t19 51zM63 709v49h75v-50q0 -65 48 -65q46 0 46 65v50h77v-49q0 -64 -32.5 -99.5t-90.5 -35.5t-90.5 35.5t-32.5 99.5z" />
    <glyph glyph-name="uni04D4" unicode="&#x4d4;" horiz-adv-x="599" 
d="M402 88h168v-88h-255l-11 111h-163l-35 -111h-102l223 660h335v-88h-212l19 -179h143v-86h-134zM264 515l-97 -321h129z" />
    <glyph glyph-name="uni04D5" unicode="&#x4d5;" horiz-adv-x="588" 
d="M495 129l63 -48q-50 -92 -140 -92q-85 0 -125 70q-44 -70 -128 -70q-66 0 -104 37t-38 102q0 70 40 111t107 41h75v60q0 76 -66 76q-51 0 -84 -64l-63 47q22 49 63 76t91 27q78 0 115 -60q41 60 109 60q148 0 148 -222q0 -40 -5 -72h-214q4 -73 22.5 -104t58.5 -31
q44 0 75 56zM338 280h132q4 140 -63 140q-34 0 -50.5 -33t-18.5 -107zM245 150v57h-56q-74 0 -74 -73q0 -67 61 -67q69 0 69 83z" />
    <glyph glyph-name="uni04D6" unicode="&#x4d6;" horiz-adv-x="390" 
d="M50 0v660h303v-87h-206v-179h158v-86h-158v-220h215v-88h-312zM86 865v45h75v-45q0 -62 51 -62q49 0 49 62v45h76v-45q0 -63 -33 -98.5t-92 -35.5q-60 0 -93 35t-33 99z" />
    <glyph glyph-name="uni04D7" unicode="&#x4d7;" horiz-adv-x="372" 
d="M279 129l64 -48q-51 -92 -143 -92q-171 0 -171 257q0 256 162 256q151 0 151 -220q0 -36 -5 -69h-214q3 -75 22 -107.5t59 -32.5q44 0 75 56zM123 287h132q1 133 -63 133q-34 0 -50.5 -31.5t-18.5 -101.5zM69 709v49h75v-50q0 -65 48 -65q46 0 46 65v50h77v-49
q0 -64 -32.5 -99.5t-90.5 -35.5t-90.5 35.5t-32.5 99.5z" />
    <glyph glyph-name="uni04D8" unicode="&#x4d8;" horiz-adv-x="463" 
d="M433 332q0 -175 -49.5 -259t-152.5 -84q-98 0 -149.5 76.5t-51.5 223.5q0 35 6 71h299q-2 119 -27 170.5t-78 51.5q-36 0 -58.5 -23.5t-36.5 -74.5l-85 26q39 161 179 161q106 0 155 -81t49 -258zM334 276h-206q0 -198 103 -198q49 0 74 47.5t29 150.5z" />
    <glyph glyph-name="uni04D9" unicode="&#x4d9;" horiz-adv-x="372" 
d="M343 245q0 -256 -162 -256q-151 0 -151 219q0 37 5 69h214q-3 75 -22 108t-59 33q-44 0 -75 -56l-64 47q48 93 143 93q171 0 171 -257zM249 204h-132q-1 -134 64 -134q33 0 49.5 31.5t18.5 102.5z" />
    <glyph glyph-name="uni04E2" unicode="&#x4e2;" horiz-adv-x="485" 
d="M383 660h52v-660h-97v417l-236 -417h-52v660h98v-411zM132 764v80h225v-80h-225z" />
    <glyph glyph-name="uni04E3" unicode="&#x4e3;" horiz-adv-x="424" 
d="M319 491h53v-491h-94v276l-173 -276h-53v491h94v-272zM111 624v80h210v-80h-210z" />
    <glyph glyph-name="uni04E6" unicode="&#x4e6;" horiz-adv-x="464" 
d="M30 331q0 175 49 257.5t152 82.5q104 0 153.5 -82.5t49.5 -256.5q0 -175 -49.5 -259t-153.5 -84q-103 0 -152 83.5t-49 258.5zM336 331q0 133 -24.5 192t-80.5 59q-54 0 -78.5 -58.5t-24.5 -192.5q0 -135 24 -194t79 -59q56 0 80.5 59t24.5 194zM81 811q0 25 17.5 42.5
t41.5 17.5t41 -17.5t17 -42.5q0 -24 -17.5 -41.5t-40.5 -17.5q-24 0 -41.5 17.5t-17.5 41.5zM263 811q0 25 17.5 42.5t41.5 17.5q23 0 40.5 -17.5t17.5 -42.5q0 -24 -17.5 -41.5t-40.5 -17.5q-24 0 -41.5 17t-17.5 42z" />
    <glyph glyph-name="uni04E7" unicode="&#x4e7;" horiz-adv-x="387" 
d="M29 247q0 255 164 255t164 -255q0 -258 -164 -258t-164 258zM262 244q0 92 -16 132t-53 40q-36 0 -52.5 -40t-16.5 -132t16 -131t53 -39t53 39t16 131zM57 672q0 25 17 42t41 17q23 0 40.5 -17.5t17.5 -41.5t-17.5 -41.5t-40.5 -17.5q-24 0 -41 17.5t-17 41.5zM223 672
q0 25 17 42t41 17q23 0 40.5 -17.5t17.5 -41.5t-17.5 -41.5t-40.5 -17.5q-24 0 -41 17t-17 42z" />
    <glyph glyph-name="uni04E8" unicode="&#x4e8;" horiz-adv-x="464" 
d="M434 332q0 -175 -49.5 -259t-153.5 -84q-103 0 -152 83.5t-49 258.5t49 257.5t152 82.5q104 0 153.5 -82.5t49.5 -256.5zM127 378h210q-4 109 -29 157.5t-77 48.5q-51 0 -75.5 -48t-28.5 -158zM337 292h-210q3 -114 27.5 -165t76.5 -51q53 0 78 50.5t28 165.5z" />
    <glyph glyph-name="uni04E9" unicode="&#x4e9;" horiz-adv-x="387" 
d="M357 247q0 -258 -164 -258t-164 258q0 255 164 255t164 -255zM122 286h143q-3 71 -20 102t-52 31q-34 0 -51 -31t-20 -102zM266 213h-145q3 -77 19.5 -109.5t52.5 -32.5t53 32.5t20 109.5z" />
    <glyph glyph-name="uni04EE" unicode="&#x4ee;" horiz-adv-x="428" 
d="M320 660h101l-154 -526q-22 -77 -55.5 -109t-90.5 -32q-29 0 -52 6v85q18 -3 33 -3q28 0 44.5 15.5t26.5 51.5l2 7l-165 505h102l109 -361zM109 764v80h225v-80h-225z" />
    <glyph glyph-name="uni04EF" unicode="&#x4ef;" horiz-adv-x="390" 
d="M283 491h100l-172 -556q-21 -69 -53 -97.5t-88 -28.5q-18 0 -48 6v81q24 -2 31 -2q29 0 44 14t25 48l21 71l-136 464h101l84 -332zM90 624v80h210v-80h-210z" />
    <glyph glyph-name="uni04F2" unicode="&#x4f2;" horiz-adv-x="428" 
d="M320 660h101l-154 -526q-22 -77 -55.5 -109t-90.5 -32q-29 0 -52 6v85q18 -3 33 -3q28 0 44.5 15.5t26.5 51.5l2 7l-165 505h102l109 -361zM97 724l51 186h97v-16l-84 -170h-64zM269 724l52 186h98v-16l-86 -170h-64z" />
    <glyph glyph-name="uni04F3" unicode="&#x4f3;" horiz-adv-x="390" 
d="M283 491h100l-172 -556q-21 -69 -53 -97.5t-88 -28.5q-18 0 -48 6v81q24 -2 31 -2q29 0 44 14t25 48l21 71l-136 464h101l84 -332zM93 576l51 188h94v-16l-84 -172h-61zM239 576l51 188h95v-16l-85 -172h-61z" />
    <glyph glyph-name="Wgrave" unicode="&#x1e80;" horiz-adv-x="700" 
d="M582 660h103l-173 -660h-51l-111 416l-112 -416h-52l-171 660h102l100 -418l108 418h50l108 -416zM314 724l-95 170v16h113l51 -186h-69z" />
    <glyph glyph-name="wgrave" unicode="&#x1e81;" horiz-adv-x="598" 
d="M492 491h99l-144 -491h-53l-94 310l-95 -310h-54l-144 491h100l77 -296l88 296h54l89 -296zM268 576l-95 172v16h111l51 -188h-67z" />
    <glyph glyph-name="Wacute" unicode="&#x1e82;" horiz-adv-x="700" 
d="M582 660h103l-173 -660h-51l-111 416l-112 -416h-52l-171 660h102l100 -418l108 418h50l108 -416zM312 724l51 186h113v-16l-96 -170h-68z" />
    <glyph glyph-name="wacute" unicode="&#x1e83;" horiz-adv-x="598" 
d="M492 491h99l-144 -491h-53l-94 310l-95 -310h-54l-144 491h100l77 -296l88 296h54l89 -296zM266 576l51 188h111v-16l-95 -172h-67z" />
    <glyph glyph-name="Wdieresis" unicode="&#x1e84;" horiz-adv-x="700" 
d="M582 660h103l-173 -660h-51l-111 416l-112 -416h-52l-171 660h102l100 -418l108 418h50l108 -416zM199 811q0 25 17.5 42.5t41.5 17.5t41 -17.5t17 -42.5q0 -24 -17.5 -41.5t-40.5 -17.5q-24 0 -41.5 17.5t-17.5 41.5zM381 811q0 25 17.5 42.5t41.5 17.5q23 0 40.5 -17.5
t17.5 -42.5q0 -24 -17.5 -41.5t-40.5 -17.5q-24 0 -41.5 17t-17.5 42z" />
    <glyph glyph-name="wdieresis" unicode="&#x1e85;" horiz-adv-x="598" 
d="M492 491h99l-144 -491h-53l-94 310l-95 -310h-54l-144 491h100l77 -296l88 296h54l89 -296zM159 672q0 25 17 42t41 17q23 0 40.5 -17.5t17.5 -41.5t-17.5 -41.5t-40.5 -17.5q-24 0 -41 17.5t-17 41.5zM325 672q0 25 17 42t41 17q23 0 40.5 -17.5t17.5 -41.5t-17.5 -41.5
t-40.5 -17.5q-24 0 -41 17t-17 42z" />
    <glyph glyph-name="uni1E9E" unicode="&#x1e9e;" horiz-adv-x="496" 
d="M471 191q0 -94 -45 -148t-124 -54q-66 0 -110 38l34 78q38 -27 72 -27q35 0 55 30.5t20 83.5q0 117 -91 117h-36v42l74 220h-173v-571h-97v660h386v-42l-81 -229q55 -13 85.5 -65.5t30.5 -132.5z" />
    <glyph glyph-name="Ygrave" unicode="&#x1ef2;" horiz-adv-x="424" 
d="M415 660l-154 -399v-261h-97v259l-154 401h105l98 -278l98 278h104zM177 724l-95 170v16h113l51 -186h-69z" />
    <glyph glyph-name="ygrave" unicode="&#x1ef3;" horiz-adv-x="390" 
d="M283 491h100l-172 -556q-21 -69 -53 -97.5t-88 -28.5q-18 0 -48 6v81q24 -2 31 -2q29 0 44 14t25 48l21 71l-136 464h101l84 -332zM163 576l-95 172v16h111l51 -188h-67z" />
    <glyph glyph-name="uni2009" unicode="&#x2009;" horiz-adv-x="100" 
 />
    <glyph glyph-name="endash" unicode="&#x2013;" horiz-adv-x="350" 
d="M25 274v85h300v-85h-300z" />
    <glyph glyph-name="emdash" unicode="&#x2014;" horiz-adv-x="700" 
d="M35 274v85h630v-85h-630z" />
    <glyph glyph-name="uni2015" unicode="&#x2015;" horiz-adv-x="700" 
d="M35 274v85h630v-85h-630z" />
    <glyph glyph-name="quoteleft" unicode="&#x2018;" horiz-adv-x="210" 
d="M40 397l39 263h73l-6 -263h-106z" />
    <glyph glyph-name="quoteright" unicode="&#x2019;" horiz-adv-x="211" 
d="M57 397l7 263h107l-40 -263h-74z" />
    <glyph glyph-name="quotesinglbase" unicode="&#x201a;" horiz-adv-x="211" 
d="M57 -163l7 261h107l-40 -261h-74z" />
    <glyph glyph-name="quotedblleft" unicode="&#x201c;" horiz-adv-x="387" 
d="M40 397l39 263h73l-6 -263h-106zM217 397l39 263h73l-6 -263h-106z" />
    <glyph glyph-name="quotedblright" unicode="&#x201d;" horiz-adv-x="388" 
d="M57 397l7 263h107l-40 -263h-74zM234 397l7 263h107l-40 -263h-74z" />
    <glyph glyph-name="quotedblbase" unicode="&#x201e;" horiz-adv-x="388" 
d="M57 -163l7 261h107l-40 -261h-74zM234 -163l7 261h107l-40 -261h-74z" />
    <glyph glyph-name="dagger" unicode="&#x2020;" horiz-adv-x="352" 
d="M130 304v227h-89v84h89v135h92v-135h89v-84h-89v-227h-92z" />
    <glyph glyph-name="daggerdbl" unicode="&#x2021;" horiz-adv-x="352" 
d="M130 243v106h-89v81h89v133h-89v81h89v106h92v-106h89v-81h-89v-133h89v-81h-89v-106h-92z" />
    <glyph glyph-name="bullet" unicode="&#x2022;" horiz-adv-x="401" 
d="M54 269q0 61 43.5 102.5t103.5 41.5q61 0 103.5 -41.5t42.5 -102.5t-42.5 -102t-103.5 -41q-59 0 -103 41.5t-44 101.5z" />
    <glyph glyph-name="ellipsis" unicode="&#x2026;" horiz-adv-x="706" 
d="M289 53q0 28 18.5 46t45.5 18t45.5 -18t18.5 -46t-18.5 -46t-45.5 -18t-45.5 18t-18.5 46zM36 53q0 28 18.5 46t45.5 18t45.5 -18t18.5 -46t-18.5 -46t-45.5 -18t-45.5 18t-18.5 46zM542 53q0 28 18.5 46t45.5 18t45.5 -18t18.5 -46t-18.5 -46t-45.5 -18t-45.5 18
t-18.5 46z" />
    <glyph glyph-name="perthousand" unicode="&#x2030;" horiz-adv-x="910" 
d="M40 509q0 79 30 120.5t88 41.5q60 0 91.5 -41.5t31.5 -120.5t-31.5 -120.5t-91.5 -41.5q-58 0 -88 41.5t-30 120.5zM139 0l272 660h82l-272 -660h-82zM205 509q0 51 -10.5 72t-34.5 21t-34 -21t-10 -72q0 -50 10 -71.5t34 -21.5t34.5 21.5t10.5 71.5zM355 151
q0 79 31.5 120.5t90.5 41.5q58 0 89 -41.5t31 -120.5t-31 -120.5t-89 -41.5q-122 0 -122 162zM629 151q0 79 31 120.5t90 41.5q58 0 89 -41.5t31 -120.5t-31 -120.5t-89 -41.5q-121 0 -121 162zM520 151q0 50 -10 71.5t-34 21.5t-34 -21t-10 -72t10 -72t34 -21t34 21.5
t10 71.5zM793 151q0 50 -10 71.5t-34 21.5t-34 -21t-10 -72t10 -72t34 -21t34 21.5t10 71.5z" />
    <glyph glyph-name="minute" unicode="&#x2032;" horiz-adv-x="211" 
d="M50 384l25 276h109l-61 -276h-73z" />
    <glyph glyph-name="second" unicode="&#x2033;" horiz-adv-x="388" 
d="M50 384l25 276h109l-61 -276h-73zM227 384l25 276h109l-61 -276h-73z" />
    <glyph glyph-name="guilsinglleft" unicode="&#x2039;" horiz-adv-x="239" 
d="M143 65l-124 196v28l124 196l72 -44l-95 -166l95 -166z" />
    <glyph glyph-name="guilsinglright" unicode="&#x203a;" horiz-adv-x="237" 
d="M93 65l-69 44l95 166l-95 166l69 44l125 -196v-28z" />
    <glyph glyph-name="fraction" unicode="&#x2044;" horiz-adv-x="183" 
d="M-83 0l270 660h79l-271 -660h-78z" />
    <glyph glyph-name="uni2070" unicode="&#x2070;" horiz-adv-x="299" 
d="M29 572q0 112 28.5 163.5t92.5 51.5q62 0 91 -51t29 -164t-29 -164t-91 -51q-64 0 -92.5 51.5t-28.5 163.5zM193 572q0 80 -9.5 110t-33.5 30q-25 0 -34.5 -30t-9.5 -110q0 -79 10 -110t34 -31t33.5 30.5t9.5 110.5z" />
    <glyph glyph-name="uni2074" unicode="&#x2074;" horiz-adv-x="288" 
d="M280 502v-74h-33v-64h-75v64h-162v41l84 311h78l-73 -278h74l3 119h71v-119h33z" />
    <glyph glyph-name="uni2075" unicode="&#x2075;" horiz-adv-x="276" 
d="M257 496q0 -64 -33 -101.5t-91 -37.5q-50 0 -82 29.5t-40 81.5l70 19q11 -54 51 -54q46 0 46 63q0 35 -16 48.5t-52 13.5h-73v222h203v-72h-128v-84q14 3 28 3q57 0 87 -34t30 -97z" />
    <glyph glyph-name="uni2076" unicode="&#x2076;" horiz-adv-x="279" 
d="M262 502q0 -69 -32 -107t-90 -38t-90.5 37t-32.5 104q0 62 43 138l81 144h96l-81 -140q106 -4 106 -138zM185 503q0 74 -45 74q-24 0 -34.5 -17t-10.5 -56q0 -74 45 -74t45 73z" />
    <glyph glyph-name="uni2077" unicode="&#x2077;" horiz-adv-x="265" 
d="M6 780h240v-36l-121 -380h-82l111 345h-148v71z" />
    <glyph glyph-name="uni2078" unicode="&#x2078;" horiz-adv-x="289" 
d="M268 471q0 -55 -33 -84.5t-92 -29.5q-58 0 -90 30t-32 83q0 39 15.5 64t52.5 46q-32 23 -45 45.5t-13 54.5q0 51 29.5 79t82.5 28q55 0 84.5 -28t29.5 -78q0 -56 -57 -100q68 -35 68 -110zM101 680q0 -38 43 -63q42 25 42 63q0 20 -11.5 32t-31.5 12q-19 0 -30.5 -12
t-11.5 -32zM194 470q0 38 -52 70q-47 -28 -47 -70q0 -49 48 -49q51 0 51 49z" />
    <glyph glyph-name="uni2079" unicode="&#x2079;" horiz-adv-x="279" 
d="M262 650q0 -66 -42 -138l-81 -144h-96l81 140q-107 5 -107 138q0 69 32.5 107t90.5 38t90 -37t32 -104zM140 571q23 0 33.5 17t10.5 56q0 74 -44 74q-24 0 -34.5 -16.5t-10.5 -56.5q0 -74 45 -74z" />
    <glyph glyph-name="uni207A" unicode="&#x207a;" horiz-adv-x="300" 
d="M115 431v109h-92v65h92v109h69v-109h92v-65h-92v-109h-69z" />
    <glyph glyph-name="uni207B" unicode="&#x207b;" horiz-adv-x="300" 
d="M25 539v67h250v-67h-250z" />
    <glyph glyph-name="uni207C" unicode="&#x207c;" horiz-adv-x="300" 
d="M29 620v66h242v-66h-242zM29 459v67h242v-67h-242z" />
    <glyph glyph-name="uni207D" unicode="&#x207d;" horiz-adv-x="197" 
d="M34 571q0 235 107 328l47 -42q-43 -49 -62.5 -116.5t-19.5 -169.5q0 -193 82 -287l-47 -42q-107 95 -107 329z" />
    <glyph glyph-name="uni207E" unicode="&#x207e;" horiz-adv-x="197" 
d="M56 242l-47 42q82 94 82 287q0 102 -19.5 169.5t-62.5 116.5l47 42q107 -93 107 -328q0 -234 -107 -329z" />
    <glyph glyph-name="uni2080" unicode="&#x2080;" horiz-adv-x="299" 
d="M29 88q0 112 28.5 163.5t92.5 51.5q62 0 91 -51t29 -164t-29 -164t-91 -51q-64 0 -92.5 51.5t-28.5 163.5zM193 88q0 80 -9.5 110t-33.5 30q-25 0 -34.5 -30t-9.5 -110q0 -79 10 -110t34 -31t33.5 30.5t9.5 110.5z" />
    <glyph glyph-name="uni2081" unicode="&#x2081;" horiz-adv-x="274" 
d="M23 -120v70h81v275h-79v71h158v-346h71v-70h-231z" />
    <glyph glyph-name="uni2082" unicode="&#x2082;" horiz-adv-x="289" 
d="M266 -50l1 -70h-243v34l94 133q37 51 50 79.5t13 57.5q0 45 -41 45q-19 0 -30 -12t-11 -33q0 -16 3 -33h-73q-3 14 -3 41q0 49 32.5 80t87.5 31q53 0 84 -31t31 -84q0 -42 -17 -81q-15 -34 -64 -102l-40 -55h126z" />
    <glyph glyph-name="uni2083" unicode="&#x2083;" horiz-adv-x="270" 
d="M253 12q0 -65 -33.5 -102t-91.5 -37q-50 0 -81.5 28.5t-41.5 82.5l71 19q6 -29 18 -41.5t33 -12.5q46 0 46 63q0 35 -15.5 48.5t-50.5 13.5h-42v33l78 117h-123v72h226v-35l-80 -123q41 -8 64 -41t23 -85z" />
    <glyph glyph-name="uni2084" unicode="&#x2084;" horiz-adv-x="288" 
d="M280 18v-74h-33v-64h-75v64h-162v41l84 311h78l-73 -278h74l3 119h71v-119h33z" />
    <glyph glyph-name="uni2085" unicode="&#x2085;" horiz-adv-x="276" 
d="M257 12q0 -64 -33 -101.5t-91 -37.5q-50 0 -82 29.5t-40 81.5l70 19q11 -54 51 -54q46 0 46 63q0 35 -16 48.5t-52 13.5h-73v222h203v-72h-128v-84q13 3 28 3q57 0 87 -34t30 -97z" />
    <glyph glyph-name="uni2086" unicode="&#x2086;" horiz-adv-x="279" 
d="M262 18q0 -69 -32 -107t-90 -38t-90.5 37t-32.5 104q0 62 43 138l81 144h96l-81 -140q106 -4 106 -138zM185 19q0 74 -45 74q-24 0 -34.5 -17t-10.5 -56q0 -74 45 -74t45 73z" />
    <glyph glyph-name="uni2087" unicode="&#x2087;" horiz-adv-x="265" 
d="M6 296h240v-36l-121 -380h-82l111 345h-148v71z" />
    <glyph glyph-name="uni2088" unicode="&#x2088;" horiz-adv-x="289" 
d="M268 -13q0 -55 -33 -84.5t-92 -29.5q-58 0 -90 30t-32 83q0 39 15.5 64t52.5 46q-32 23 -45 45.5t-13 54.5q0 51 29.5 79t82.5 28q55 0 84.5 -28t29.5 -78q0 -56 -57 -100q68 -35 68 -110zM101 196q0 -38 43 -63q42 25 42 63q0 20 -11.5 32t-31.5 12q-19 0 -30.5 -12
t-11.5 -32zM194 -14q0 38 -52 70q-47 -28 -47 -70q0 -49 48 -49q51 0 51 49z" />
    <glyph glyph-name="uni2089" unicode="&#x2089;" horiz-adv-x="279" 
d="M262 166q0 -66 -42 -138l-81 -144h-96l81 140q-107 5 -107 138q0 69 32.5 107t90.5 38t90 -37t32 -104zM140 87q23 0 33.5 17t10.5 56q0 74 -44 74q-24 0 -34.5 -16.5t-10.5 -56.5q0 -74 45 -74z" />
    <glyph glyph-name="uni208A" unicode="&#x208a;" horiz-adv-x="300" 
d="M115 -54v109h-92v65h92v109h69v-109h92v-65h-92v-109h-69z" />
    <glyph glyph-name="uni208B" unicode="&#x208b;" horiz-adv-x="300" 
d="M25 54v67h250v-67h-250z" />
    <glyph glyph-name="uni208C" unicode="&#x208c;" horiz-adv-x="300" 
d="M29 135v66h242v-66h-242zM29 -26v67h242v-67h-242z" />
    <glyph glyph-name="uni208D" unicode="&#x208d;" horiz-adv-x="197" 
d="M34 86q0 235 107 328l47 -42q-43 -49 -62.5 -116.5t-19.5 -169.5q0 -193 82 -287l-47 -42q-107 95 -107 329z" />
    <glyph glyph-name="uni208E" unicode="&#x208e;" horiz-adv-x="197" 
d="M56 -243l-47 42q82 94 82 287q0 102 -19.5 169.5t-62.5 116.5l47 42q107 -93 107 -328q0 -234 -107 -329z" />
    <glyph glyph-name="lira" unicode="&#x20a4;" horiz-adv-x="397" 
d="M163 80h203v-80h-336v42q78 63 91 131h-94v73h94q-6 39 -18 77h-76v73h52q-17 66 -17 110q0 74 42.5 119.5t111.5 45.5q65 0 103 -36.5t56 -116.5l-82 -26q-11 51 -27 71.5t-45 20.5q-28 0 -46.5 -22t-18.5 -56q0 -52 19 -110h138v-73h-115q13 -45 17 -77h98v-73h-99
q-9 -59 -51 -93z" />
    <glyph glyph-name="peseta" unicode="&#x20a7;" horiz-adv-x="438" 
d="M437 488v-80h-53q-10 -83 -61.5 -128.5t-135.5 -45.5h-26v-234h-95v408h-55v80h55v172h120q85 0 136 -44.5t62 -127.5h53zM192 576h-31v-90h133q-13 90 -102 90zM295 411h-134v-93h31q90 0 103 93z" />
    <glyph glyph-name="Euro" unicode="&#x20ac;" horiz-adv-x="432" 
d="M342 156l77 -39q-42 -128 -163 -128q-83 0 -130 55t-61 170h-61v75h56q-1 9 -1 42v35h-55v75h61q25 230 191 230q58 0 100.5 -33t62.5 -95l-77 -39q-25 80 -84 80q-81 0 -97 -143h158l-21 -75h-143v-35q0 -33 1 -42h124l-20 -75h-99q19 -138 97 -138q59 0 84 80z" />
    <glyph glyph-name="uni20AE" unicode="&#x20ae;" horiz-adv-x="415" 
d="M403 574h-148v-164l112 49v-81l-112 -49v-84l112 49v-83l-112 -49v-162h-95v129l-111 -48v81l111 49v84l-111 -48v82l111 48v197h-148v86h391v-86z" />
    <glyph glyph-name="uni20B4" unicode="&#x20b4;" horiz-adv-x="379" 
d="M326 442h43v-78h-358v78h210q28 37 28 75q0 30 -17.5 48.5t-45.5 18.5q-26 0 -42.5 -17.5t-31.5 -59.5l-74 36q41 128 156 128q66 0 108.5 -42.5t42.5 -109.5q0 -43 -19 -77zM10 214v77h359v-77h-225q-14 -30 -14 -59q0 -35 18.5 -57t49.5 -22q32 0 54 20t39 66l73 -36
q-45 -137 -174 -137q-68 0 -112 47t-44 121q0 26 11 57h-35z" />
    <glyph glyph-name="uni20B8" unicode="&#x20b8;" horiz-adv-x="415" 
d="M12 575v85h390v-85h-390zM160 0v405h-148v85h390v-85h-147v-405h-95z" />
    <glyph glyph-name="uni20B9" unicode="&#x20b9;" horiz-adv-x="375" 
d="M355 585h-111q27 -28 37 -77h74v-75h-71q-7 -69 -42.5 -111.5t-94.5 -52.5l173 -269h-108l-172 265v77h48q40 0 66 24.5t33 66.5h-147v75h144q-18 75 -96 75h-48v77h315v-75z" />
    <glyph glyph-name="uni20BA" unicode="&#x20ba;" horiz-adv-x="385" 
d="M372 229q0 -239 -243 -239h-64v238l-60 -36v83l60 36v78l-60 -36v83l60 36v188h94v-138l124 75v-83l-124 -75v-78l124 74v-83l-124 -74v-202q71 7 101 44t30 116q0 1 -3 55h79q6 -31 6 -62z" />
    <glyph glyph-name="uni20BD" unicode="&#x20bd;" horiz-adv-x="419" 
d="M66 0v123h-60v80h60v84h-60v82h60v291h144q87 0 134.5 -48.5t47.5 -136.5q0 -90 -47.5 -139t-134.5 -49h-49v-84h174v-80h-174v-123h-95zM161 369h43q92 0 92 105q0 104 -92 104h-43v-209z" />
    <glyph glyph-name="uni20BF" unicode="&#x20bf;" horiz-adv-x="419" 
d="M305 55v-150h-75v129q-5 -1 -21 -1h-36v-128h-75v128h-48v595h48v121h75v-121h18q21 0 39 -3v124h75v-152q61 -42 61 -127t-64 -125q86 -44 86 -146q0 -101 -83 -144zM190 548h-51v-166h50q87 0 87 84q0 82 -86 82zM297 206q0 47 -25.5 72.5t-72.5 25.5h-60v-192h60
q44 0 71 23.5t27 70.5z" />
    <glyph glyph-name="uni2113" unicode="&#x2113;" horiz-adv-x="352" 
d="M236 73q9 0 23.5 2t27.5 5t15 3v-79q-46 -15 -85 -15q-68 0 -104.5 44t-36.5 126v1l-41 -36l-38 79q37 32 79 74v298q0 186 133 186q116 0 116 -150q0 -95 -37.5 -183t-119.5 -183v-79q0 -93 68 -93zM168 579v-202q74 110 74 235q0 62 -34 62q-40 0 -40 -95z" />
    <glyph glyph-name="uni2116" unicode="&#x2116;" horiz-adv-x="760" 
d="M338 248v412h97v-660h-52l-236 411v-411h-97v660h52zM505 400q0 162 112 162q114 0 114 -162q0 -163 -114 -163q-112 0 -112 163zM582 399q0 -90 35 -90q20 0 28.5 21t8.5 69t-8.5 69.5t-28.5 21.5q-35 0 -35 -91zM513 96v72h210v-72h-210z" />
    <glyph glyph-name="uni2117" unicode="&#x2117;" horiz-adv-x="649" 
d="M30 330q0 153 81 247t213 94q131 0 213 -94.5t82 -246.5t-82 -246.5t-213 -94.5q-133 0 -213.5 94t-80.5 247zM547 330q0 128 -59.5 201.5t-164.5 73.5q-104 0 -162.5 -73t-58.5 -202q0 -130 58 -202.5t163 -72.5t164.5 73t59.5 202zM227 148v363h107q60 0 92.5 -32.5
t32.5 -91.5t-33 -92t-92 -33h-36v-114h-71zM298 326h36q24 0 37 16.5t13 44.5t-13 44t-37 16h-36v-121z" />
    <glyph glyph-name="trademark" unicode="&#x2122;" horiz-adv-x="585" 
d="M82 294v299h-73v67h226v-67h-74v-299h-79zM270 294v366h46l95 -173l93 173h46v-366h-75v188l-55 -102h-20l-56 102v-188h-74z" />
    <glyph glyph-name="uni2126" unicode="&#x2126;" horiz-adv-x="470" 
d="M363 89h68v-89h-167v84q41 53 58 115.5t17 156.5q0 116 -25.5 171t-78.5 55t-78.5 -54.5t-25.5 -171.5q0 -93 17 -156q16 -60 58 -116v-84h-167v89h68q-40 60 -57 123t-17 150q0 309 202 309t202 -309q0 -87 -17 -150t-57 -123z" />
    <glyph glyph-name="estimated" unicode="&#x212e;" horiz-adv-x="795" 
d="M731 327h-544v-200q77 -104 220 -104q76 0 143 31.5t112 86.5l25 -22q-49 -61 -122.5 -95t-157.5 -34q-146 -2 -248 97.5t-99 238.5q-3 140 102 243.5t241 100.5q80 2 157 -35t127 -105t48 -149q0 -33 -4 -54zM187 532v-172h421v187q-75 89 -201 89q-142 0 -220 -104z
" />
    <glyph glyph-name="uni2150" unicode="&#x2150;" horiz-adv-x="745" 
d="M23 244v70h81v275h-79v71h158v-346h71v-70h-231zM191 0l270 660h79l-271 -660h-78zM485 416h240v-36l-121 -380h-82l111 345h-148v71z" />
    <glyph glyph-name="uni2151" unicode="&#x2151;" horiz-adv-x="715" 
d="M23 244v70h81v275h-79v71h158v-346h71v-70h-231zM191 0l270 660h79l-271 -660h-78zM698 286q0 -66 -42 -138l-81 -144h-96l81 140q-107 5 -107 138q0 69 32.5 107t90.5 38t90 -37t32 -104zM576 207q23 0 33.5 17t10.5 56q0 74 -44 74q-24 0 -34.5 -16.5t-10.5 -56.5
q0 -74 45 -74z" />
    <glyph glyph-name="uni2152" unicode="&#x2152;" horiz-adv-x="1031" 
d="M23 244v70h81v275h-79v71h158v-346h71v-70h-231zM191 0l270 660h79l-271 -660h-78zM480 0v70h81v275h-79v71h158v-346h71v-70h-231zM760 208q0 112 28.5 163.5t92.5 51.5q62 0 91 -51t29 -164t-29 -164t-91 -51q-64 0 -92.5 51.5t-28.5 163.5zM924 208q0 80 -9.5 110
t-33.5 30q-25 0 -34.5 -30t-9.5 -110q0 -79 10 -110t34 -31t33.5 30.5t9.5 110.5z" />
    <glyph glyph-name="uni2153" unicode="&#x2153;" horiz-adv-x="727" 
d="M23 244v70h81v275h-79v71h158v-346h71v-70h-231zM191 0l270 660h79l-271 -660h-78zM710 132q0 -65 -33.5 -102t-91.5 -37q-50 0 -81.5 28.5t-41.5 82.5l71 19q6 -29 18 -41.5t33 -12.5q46 0 46 63q0 35 -15.5 48.5t-50.5 13.5h-42v33l78 117h-123v72h226v-35l-80 -123
q41 -8 64 -41t23 -85z" />
    <glyph glyph-name="uni2154" unicode="&#x2154;" horiz-adv-x="741" 
d="M266 314l1 -70h-243v34l94 133q37 51 50 79.5t13 57.5q0 45 -41 45q-19 0 -30 -12t-11 -33q0 -16 3 -33h-73q-3 14 -3 41q0 49 32.5 80t87.5 31q53 0 84 -31t31 -84q0 -42 -17 -81q-15 -34 -64 -102l-40 -55h126zM206 0l270 660h79l-271 -660h-78zM724 132
q0 -65 -33.5 -102t-91.5 -37q-50 0 -81.5 28.5t-41.5 82.5l71 19q6 -29 18 -41.5t33 -12.5q46 0 46 63q0 35 -15.5 48.5t-50.5 13.5h-42v33l78 117h-123v72h226v-35l-80 -123q41 -8 64 -41t23 -85z" />
    <glyph glyph-name="uni2155" unicode="&#x2155;" horiz-adv-x="727" 
d="M23 244v70h81v275h-79v71h158v-346h71v-70h-231zM191 0l270 660h79l-271 -660h-78zM708 132q0 -64 -33 -101.5t-91 -37.5q-50 0 -82 29.5t-40 81.5l70 19q10 -54 51 -54q46 0 46 63q0 35 -16 48.5t-52 13.5h-73v222h203v-72h-128v-84q13 3 28 3q57 0 87 -34t30 -97z" />
    <glyph glyph-name="uni2156" unicode="&#x2156;" horiz-adv-x="741" 
d="M266 314l1 -70h-243v34l94 133q37 51 50 79.5t13 57.5q0 45 -41 45q-19 0 -30 -12t-11 -33q0 -16 3 -33h-73q-3 14 -3 41q0 49 32.5 80t87.5 31q53 0 84 -31t31 -84q0 -42 -17 -81q-15 -34 -64 -102l-40 -55h126zM206 0l270 660h79l-271 -660h-78zM722 132
q0 -64 -33 -101.5t-91 -37.5q-50 0 -82 29.5t-40 81.5l70 19q10 -54 51 -54q46 0 46 63q0 35 -16 48.5t-52 13.5h-73v222h203v-72h-128v-84q14 3 28 3q57 0 87 -34t30 -97z" />
    <glyph glyph-name="uni2157" unicode="&#x2157;" horiz-adv-x="697" 
d="M253 376q0 -65 -33.5 -102t-91.5 -37q-50 0 -81.5 28.5t-41.5 82.5l71 19q6 -29 18 -41.5t33 -12.5q46 0 46 63q0 35 -15.5 48.5t-50.5 13.5h-42v33l78 117h-123v72h226v-35l-80 -123q41 -8 64 -41t23 -85zM162 0l270 660h79l-271 -660h-78zM678 132q0 -64 -33 -101.5
t-91 -37.5q-50 0 -82 29.5t-40 81.5l70 19q10 -54 51 -54q46 0 46 63q0 35 -16 48.5t-52 13.5h-73v222h203v-72h-128v-84q14 3 28 3q57 0 87 -34t30 -97z" />
    <glyph glyph-name="uni2158" unicode="&#x2158;" horiz-adv-x="748" 
d="M280 382v-74h-33v-64h-75v64h-162v41l84 311h78l-73 -278h74l3 119h71v-119h33zM212 0l270 660h79l-271 -660h-78zM729 132q0 -64 -33 -101.5t-91 -37.5q-50 0 -82 29.5t-40 81.5l70 19q11 -54 51 -54q46 0 46 63q0 35 -16 48.5t-52 13.5h-73v222h203v-72h-128v-84
q14 3 28 3q57 0 87 -34t30 -97z" />
    <glyph glyph-name="uni2159" unicode="&#x2159;" horiz-adv-x="708" 
d="M23 244v70h81v275h-79v71h158v-346h71v-70h-231zM191 0l270 660h79l-271 -660h-78zM689 138q0 -69 -32 -107t-90 -38t-90.5 37t-32.5 104q0 62 43 138l81 144h96l-81 -140q106 -4 106 -138zM612 139q0 74 -45 74q-24 0 -34.5 -17t-10.5 -56q0 -74 45 -74t45 73z" />
    <glyph glyph-name="uni215A" unicode="&#x215a;" horiz-adv-x="694" 
d="M257 376q0 -64 -33 -101.5t-91 -37.5q-50 0 -82 29.5t-40 81.5l70 19q11 -54 51 -54q46 0 46 63q0 35 -16 48.5t-52 13.5h-73v222h203v-72h-128v-84q14 3 28 3q57 0 87 -34t30 -97zM168 0l270 660h79l-271 -660h-78zM676 138q0 -69 -32 -107t-90 -38t-90.5 37t-32.5 104
q0 62 43 138l81 144h96l-81 -140q106 -4 106 -138zM599 139q0 74 -45 74q-24 0 -34.5 -17t-10.5 -56q0 -74 45 -74t45 73z" />
    <glyph glyph-name="oneeighth" unicode="&#x215b;" horiz-adv-x="715" 
d="M23 244v70h81v275h-79v71h158v-346h71v-70h-231zM191 0l270 660h79l-271 -660h-78zM694 107q0 -55 -33 -84.5t-92 -29.5q-58 0 -90 30t-32 83q0 39 15.5 64t52.5 46q-32 23 -45 45.5t-13 54.5q0 51 29.5 79t82.5 28q55 0 84.5 -28t29.5 -78q0 -56 -57 -100
q68 -35 68 -110zM527 316q0 -38 43 -63q42 25 42 63q0 20 -11.5 32t-31.5 12q-19 0 -30.5 -12t-11.5 -32zM620 106q0 38 -52 70q-47 -28 -47 -70q0 -49 48 -49q51 0 51 49z" />
    <glyph glyph-name="threeeighths" unicode="&#x215c;" horiz-adv-x="685" 
d="M253 376q0 -65 -33.5 -102t-91.5 -37q-50 0 -81.5 28.5t-41.5 82.5l71 19q6 -29 18 -41.5t33 -12.5q46 0 46 63q0 35 -15.5 48.5t-50.5 13.5h-42v33l78 117h-123v72h226v-35l-80 -123q41 -8 64 -41t23 -85zM162 0l270 660h79l-271 -660h-78zM664 107q0 -55 -33 -84.5
t-92 -29.5q-58 0 -90 30t-32 83q0 39 15.5 64t52.5 46q-32 23 -45 45.5t-13 54.5q0 51 29.5 79t82.5 28q55 0 84.5 -28t29.5 -78q0 -56 -57 -100q68 -35 68 -110zM497 316q0 -38 43 -63q42 25 42 63q0 20 -11.5 32t-31.5 12q-19 0 -30.5 -12t-11.5 -32zM590 106q0 38 -52 70
q-47 -28 -47 -70q0 -49 48 -49q51 0 51 49z" />
    <glyph glyph-name="fiveeighths" unicode="&#x215d;" horiz-adv-x="691" 
d="M257 376q0 -64 -33 -101.5t-91 -37.5q-50 0 -82 29.5t-40 81.5l70 19q11 -54 51 -54q46 0 46 63q0 35 -16 48.5t-52 13.5h-73v222h203v-72h-128v-84q14 3 28 3q57 0 87 -34t30 -97zM168 0l270 660h79l-271 -660h-78zM670 107q0 -55 -33 -84.5t-92 -29.5q-58 0 -90 30
t-32 83q0 39 15.5 64t52.5 46q-32 23 -45 45.5t-13 54.5q0 51 29.5 79t82.5 28q55 0 84.5 -28t29.5 -78q0 -56 -57 -100q68 -35 68 -110zM503 316q0 -38 43 -63q42 25 42 63q0 20 -11.5 32t-31.5 12q-19 0 -30.5 -12t-11.5 -32zM596 106q0 38 -52 70q-47 -28 -47 -70
q0 -49 48 -49q51 0 51 49z" />
    <glyph glyph-name="seveneighths" unicode="&#x215e;" horiz-adv-x="693" 
d="M6 660h240v-36l-121 -380h-82l111 345h-148v71zM149 0l270 660h79l-271 -660h-78zM673 107q0 -55 -33 -84.5t-92 -29.5q-58 0 -90 30t-32 83q0 39 15.5 64t52.5 46q-32 23 -45 45.5t-13 54.5q0 51 29.5 79t82.5 28q55 0 84.5 -28t29.5 -78q0 -56 -57 -100q68 -35 68 -110
zM506 316q0 -38 43 -63q42 25 42 63q0 20 -11.5 32t-31.5 12q-19 0 -30.5 -12t-11.5 -32zM599 106q0 38 -52 70q-47 -28 -47 -70q0 -49 48 -49q51 0 51 49z" />
    <glyph glyph-name="arrowleft" unicode="&#x2190;" horiz-adv-x="650" 
d="M601 274l-400 2l183 -184l-58 -59l-272 272v22l272 272l58 -59l-181 -182l83 1h315v-85z" />
    <glyph glyph-name="arrowup" unicode="&#x2191;" horiz-adv-x="650" 
d="M607 320l-58 -56l-180 177l1 -78v-321h-89v321l2 79l-182 -179l-58 57l271 272h22z" />
    <glyph glyph-name="arrowright" unicode="&#x2192;" horiz-adv-x="650" 
d="M324 599l272 -272v-22l-272 -272l-58 59l183 184l-400 -2v85h315l83 -1l-181 182z" />
    <glyph glyph-name="arrowdown" unicode="&#x2193;" horiz-adv-x="650" 
d="M549 370l58 -56l-271 -272h-22l-271 272l58 56l182 -178l-2 79v321h89v-321l-1 -78z" />
    <glyph glyph-name="arrowboth" unicode="&#x2194;" horiz-adv-x="960" 
d="M639 600l272 -272v-21l-272 -272l-58 58l182 183l-84 -1h-394l-85 1l183 -184l-58 -58l-272 272v21l272 273l58 -59l-180 -181l82 1h394l83 -1l-181 182z" />
    <glyph glyph-name="arrowupdn" unicode="&#x2195;" horiz-adv-x="650" 
d="M369 83l180 177l58 -57l-271 -271h-22l-271 271l58 57l182 -178l-2 79v340l2 79l-181 -178l-59 56l271 272h22l271 -272l-58 -56l-180 176l2 -77v-268h-1v-72z" />
    <glyph glyph-name="uni2196" unicode="&#x2196;" horiz-adv-x="650" 
d="M302 389l263 -262l-61 -61l-262 262l-45 47v-266h-86v396l15 16h392v-84h-266z" />
    <glyph glyph-name="uni2197" unicode="&#x2197;" horiz-adv-x="650" 
d="M521 520l15 -15v-395h-85l1 268l-48 -50l-262 -262l-61 60l264 263l51 49h-267v82h392z" />
    <glyph glyph-name="uni2198" unicode="&#x2198;" horiz-adv-x="650" 
d="M451 505h85v-395l-15 -15h-392v82h269l-52 50l-264 262l61 61l263 -262l46 -48z" />
    <glyph glyph-name="uni2199" unicode="&#x2199;" horiz-adv-x="650" 
d="M302 227l-50 -49h266v-83h-392l-15 15v397h86v-266l45 47l262 261l61 -60z" />
    <glyph glyph-name="partialdiff" unicode="&#x2202;" horiz-adv-x="451" 
d="M411 369q0 -380 -222 -380q-73 0 -114 52t-41 146q0 101 49 158.5t135 57.5q47 0 98 -18q-1 103 -24.5 152t-73.5 49q-32 0 -52.5 -22t-34.5 -71l-80 30q40 148 170 148q190 0 190 -302zM314 303q-42 16 -84 16q-100 0 -100 -129q0 -115 71 -115q99 0 113 228z" />
    <glyph glyph-name="uni2206" unicode="&#x2206;" horiz-adv-x="448" 
d="M250 660l178 -618v-42h-408v42l178 618h52zM225 447l-97 -359h192z" />
    <glyph glyph-name="product" unicode="&#x220f;" horiz-adv-x="480" 
d="M53 -121v781h374v-781h-97v693h-180v-693h-97z" />
    <glyph glyph-name="summation" unicode="&#x2211;" horiz-adv-x="391" 
d="M147 -33h216v-88h-347v28l166 372l-166 353v28h338v-88h-206l135 -283v-20z" />
    <glyph glyph-name="minus" unicode="&#x2212;" 
d="M24 274v85h352v-85h-352z" />
    <glyph glyph-name="uni2219" unicode="&#x2219;" horiz-adv-x="200" 
d="M36 316q0 28 18.5 46t45.5 18t45.5 -18t18.5 -46t-18.5 -46t-45.5 -18t-45.5 18t-18.5 46z" />
    <glyph glyph-name="radical" unicode="&#x221a;" horiz-adv-x="620" 
d="M517 750h101l-457 -883h-51v334h-99v87h183v-163z" />
    <glyph glyph-name="infinity" unicode="&#x221e;" horiz-adv-x="648" 
d="M623 314q0 -81 -40 -130q-39 -50 -103 -50q-85 0 -157 107q-72 -107 -155 -107q-63 0 -104 50q-40 49 -40 130t40 132t104 51q83 0 155 -106q71 106 156 106q64 0 104 -51t40 -132zM277 316q-26 44 -47.5 65t-45.5 21q-31 0 -48.5 -23t-17.5 -63t18 -64t49 -24
q23 0 43 20.5t49 67.5zM530 316q0 40 -18 63t-48 23q-23 0 -44 -20.5t-50 -65.5q29 -47 49.5 -67.5t44.5 -20.5q30 0 48 24t18 64z" />
    <glyph glyph-name="integral" unicode="&#x222b;" horiz-adv-x="250" 
d="M1 -121v79l35 -2q35 0 49.5 21t14.5 72q0 60 -23 276q-24 229 -24 300q0 163 139 163q30 0 57 -8v-79q-34 2 -35 2q-34 0 -49 -22t-15 -72q0 -43 7 -114l15 -157q12 -116 17 -173q8 -91 8 -131q0 -163 -139 -163q-28 0 -57 8z" />
    <glyph glyph-name="approxequal" unicode="&#x2248;" 
d="M218 361l-42 28q-31 22 -46 22q-30 0 -30 -37v-24h-76q0 8 -0.5 17t-1 14t-0.5 7q0 52 24 82t66 30q32 0 70 -26l43 -27q37 -24 46 -22q29 0 29 38v25h77q1 -11 1 -39q0 -52 -24 -82.5t-65 -30.5q-31 0 -71 25zM218 161l-42 28q-31 22 -46 22q-30 0 -30 -37v-24h-76
q0 8 -0.5 17t-1 14t-0.5 7q0 52 24 82t66 30q32 0 70 -26l43 -27q37 -24 46 -22q29 0 29 38v25h77q1 -11 1 -39q0 -52 -24 -82.5t-65 -30.5q-31 0 -71 25z" />
    <glyph glyph-name="notequal" unicode="&#x2260;" 
d="M368 377h-97l-56 -122h153v-82h-191l-50 -109h-85l50 109h-60v82h98l56 122h-154v82h192l50 108h84l-50 -108h60v-82z" />
    <glyph glyph-name="lessequal" unicode="&#x2264;" 
d="M358 517v-95l-198 -90l198 -90v-95l-335 166v37zM23 0v83h335v-83h-335z" />
    <glyph glyph-name="greaterequal" unicode="&#x2265;" 
d="M42 517l335 -167v-37l-335 -166v95l198 90l-198 90v95zM42 0v84h335v-84h-335z" />
    <glyph glyph-name="uni24EA" unicode="&#x24ea;" horiz-adv-x="978" 
d="M58 330q-2 114 56.5 214.5t159 159.5t214.5 57q114 2 215 -57t160 -159.5t57 -214.5q2 -114 -57 -214.5t-160 -159.5t-215 -57q-114 -2 -214.5 57t-159 159.5t-56.5 214.5zM847 330q2 149 -105 256.5t-254 104.5q-147 2 -253.5 -104.5t-103.5 -256.5
q-3 -150 103.5 -256.5t253.5 -104.5q147 -3 254 104.5t105 256.5zM361 333q0 228 127 228q129 0 129 -228q0 -235 -129 -235q-127 0 -127 235zM540 333q0 87 -12 122.5t-40 35.5q-27 0 -39 -35.5t-12 -122.5q0 -88 12 -126.5t39 -38.5q28 0 40 37.5t12 127.5z" />
    <glyph glyph-name="uni24FF" unicode="&#x24ff;" horiz-adv-x="978" 
d="M58 330q-2 114 56.5 214.5t159 159.5t214.5 57q114 2 215 -57t160 -159.5t57 -214.5q2 -114 -57 -214.5t-160 -159.5t-215 -57q-114 -2 -214.5 57t-159 159.5t-56.5 214.5zM617 333q0 228 -129 228q-127 0 -127 -228q0 -235 127 -235q129 0 129 235zM437 333
q0 87 12 122.5t39 35.5q28 0 40 -35.5t12 -122.5q0 -90 -12 -127.5t-40 -37.5q-27 0 -39 38.5t-12 126.5z" />
    <glyph glyph-name="filledbox" unicode="&#x25a0;" horiz-adv-x="730" 
d="M90 55v550h550v-550h-550z" />
    <glyph glyph-name="uni25A1" unicode="&#x25a1;" horiz-adv-x="730" 
d="M90 55v550h550v-550h-550zM177 139h376v382h-376v-382z" />
    <glyph glyph-name="uni25AA" unicode="&#x25aa;" horiz-adv-x="530" 
d="M74 54v380h381v-380h-381z" />
    <glyph glyph-name="uni25AB" unicode="&#x25ab;" horiz-adv-x="530" 
d="M74 54v380h381v-380h-381zM155 133h219v222h-219v-222z" />
    <glyph glyph-name="triagup" unicode="&#x25b2;" horiz-adv-x="730" 
d="M27 55l-7 14l337 591h16l337 -591l-7 -14h-676z" />
    <glyph glyph-name="uni25B3" unicode="&#x25b3;" horiz-adv-x="730" 
d="M373 660l337 -591l-7 -14h-676l-7 14l337 591h16zM571 140l-206 360l-206 -360h412z" />
    <glyph glyph-name="uni25B4" unicode="&#x25b4;" horiz-adv-x="530" 
d="M33 54l-7 14l231 405h16l231 -405l-7 -14h-464z" />
    <glyph glyph-name="uni25B5" unicode="&#x25b5;" horiz-adv-x="530" 
d="M273 473l231 -405l-7 -14h-464l-7 14l231 405h16zM390 120l-125 220l-125 -220h250z" />
    <glyph glyph-name="uni25B6" unicode="&#x25b6;" horiz-adv-x="730" 
d="M134 -11l-14 7v668l14 7l518 -333v-16z" />
    <glyph glyph-name="uni25B7" unicode="&#x25b7;" horiz-adv-x="730" 
d="M134 671l518 -333v-16l-518 -333l-14 7v668zM207 520l1 -380l294 189z" />
    <glyph glyph-name="uni25B8" unicode="&#x25b8;" horiz-adv-x="530" 
d="M124 10l-14 7v457l14 7l355 -227v-15z" />
    <glyph glyph-name="uni25B9" unicode="&#x25b9;" horiz-adv-x="530" 
d="M124 481l355 -227v-15l-355 -229l-14 7v457zM363 246l-185 118v-237z" />
    <glyph glyph-name="triagrt" unicode="&#x25ba;" horiz-adv-x="961" 
d="M104 -11l-14 7v668l14 7l827 -333v-16z" />
    <glyph glyph-name="uni25BB" unicode="&#x25bb;" horiz-adv-x="961" 
d="M104 671l827 -333v-16l-827 -333l-14 7v668zM721 330l-543 220v-440z" />
    <glyph glyph-name="triagdn" unicode="&#x25bc;" horiz-adv-x="730" 
d="M27 605h676l7 -14l-337 -591h-16l-337 591z" />
    <glyph glyph-name="uni25BD" unicode="&#x25bd;" horiz-adv-x="730" 
d="M703 605l7 -14l-337 -591h-16l-337 591l7 14h676zM571 520h-411l206 -360z" />
    <glyph glyph-name="uni25BE" unicode="&#x25be;" horiz-adv-x="530" 
d="M257 16l-231 405l7 14h464l7 -14l-231 -405h-16z" />
    <glyph glyph-name="uni25BF" unicode="&#x25bf;" horiz-adv-x="530" 
d="M497 435l7 -14l-231 -405h-16l-231 405l7 14h464zM390 368h-250l124 -219z" />
    <glyph glyph-name="uni25C0" unicode="&#x25c0;" horiz-adv-x="730" 
d="M596 -11l-518 333v16l518 333l14 -7v-668z" />
    <glyph glyph-name="uni25C1" unicode="&#x25c1;" horiz-adv-x="730" 
d="M596 671l14 -7v-668l-14 -7l-518 333v16zM522 140l1 380l-295 -191z" />
    <glyph glyph-name="uni25C2" unicode="&#x25c2;" horiz-adv-x="530" 
d="M406 10l-355 229v15l355 227l14 -7v-457z" />
    <glyph glyph-name="uni25C3" unicode="&#x25c3;" horiz-adv-x="530" 
d="M406 481l14 -7v-457l-14 -7l-355 229v15zM352 127v237l-185 -118z" />
    <glyph glyph-name="triaglf" unicode="&#x25c4;" horiz-adv-x="961" 
d="M857 -11l-827 333v16l827 333l14 -7v-668z" />
    <glyph glyph-name="uni25C5" unicode="&#x25c5;" horiz-adv-x="961" 
d="M857 671l14 -7v-668l-14 -7l-827 333v16zM783 550l-543 -220l543 -220v440z" />
    <glyph glyph-name="lozenge" unicode="&#x25ca;" horiz-adv-x="665" 
d="M350 671l213 -341l-213 -341h-35l-213 342l213 340h35zM204 331l131 -208l127 207l-129 206z" />
    <glyph glyph-name="circle" unicode="&#x25cb;" horiz-adv-x="730" 
d="M35 330q-3 131 98 231t232 97q131 2 231.5 -97.5t97.5 -229.5q3 -132 -97.5 -232t-231.5 -98q-131 -3 -232 97.5t-98 231.5zM606 331q0 98 -71.5 169.5t-169.5 71.5q-97 2 -170.5 -71t-71.5 -171q0 -99 71.5 -171t169.5 -72q100 0 171 72t71 172z" />
    <glyph glyph-name="uni25CF" unicode="&#x25cf;" horiz-adv-x="730" 
d="M35 330q-3 131 98 231t232 97q131 2 231.5 -97.5t97.5 -229.5q3 -132 -97.5 -232t-231.5 -98q-131 -3 -232 97.5t-98 231.5z" />
    <glyph glyph-name="uni261C" unicode="&#x261c;" horiz-adv-x="1210" 
d="M1169 282v-30l-88 -72l49 -175l-27 -19l-229 144q-97 -49 -192 -77q-96 -28 -168 -28q-110 0 -110 69q0 20 14 37q-46 18 -46 59q0 30 25 46q-37 16 -37 53q0 22 14 36l-184 5q-87 4 -124.5 25.5t-37.5 68.5q0 51 42.5 69.5t146.5 18.5q83 0 173 -9q1 42 26.5 66.5
t62.5 24.5q32 0 67 -20l244 -146q36 -10 79 -26l234 147l27 -19l-49 -175zM463 495q98 -13 154 -25l-92 52q-18 8 -29 8q-31 0 -33 -35zM851 188v156q-125 50 -306 78q-183 29 -363 29q-47 0 -66 -6.5t-19 -21.5q0 -16 17.5 -23t63.5 -9l124 -5q93 -2 219 -9l26 -1v-56
l-101 3h-2q-9 0 -14.5 -6t-5.5 -14q0 -21 20 -21h115v-55h-103q-20 0 -20 -21t20 -21h114v-55q-33 -4 -66 -4h-16q-8 0 -14 -5.5t-6 -13.5q0 -23 35 -23q59 0 163 29q101 29 185 75zM918 360v-185l123 -75l-31 106l77 61l-77 61l31 107z" />
    <glyph glyph-name="uni261E" unicode="&#x261e;" horiz-adv-x="1210" 
d="M1182 424q0 -47 -37.5 -68.5t-124.5 -25.5l-184 -5q14 -14 14 -36q0 -37 -37 -53q25 -16 25 -46q0 -43 -46 -58q14 -17 14 -38q0 -69 -111 -69q-72 0 -168 28q-93 27 -191 77l-229 -144l-27 19l49 175l-88 72v30l88 73l-49 175l27 19l234 -147q47 17 80 26l243 146
q35 20 67 20q37 0 62.5 -24.5t26.5 -66.5q90 9 172 9q105 0 147.5 -18.5t42.5 -69.5zM685 522l-92 -52q56 12 154 25q-2 35 -33 35q-11 0 -29 -8zM1113 423q0 15 -19 21.5t-66 6.5q-179 0 -364 -29q-181 -29 -305 -78v-156q83 -45 184 -75q105 -29 164 -29q35 0 35 23
q0 8 -6 13.5t-14 5.5h-16q-33 0 -66 4v55h114q20 0 20 21t-20 21h-103v55h115q20 0 20 21q0 9 -6.5 15t-16.5 5l-100 -3v56l26 1q126 7 219 9l124 5q46 2 63.5 9t17.5 23zM292 175v185l-123 75l31 -107l-77 -61l77 -61l-31 -106z" />
    <glyph glyph-name="uni2661" unicode="&#x2661;" horiz-adv-x="860" 
d="M807 475q0 -51 -24 -96q-23 -42 -83 -108l-262 -282h-16l-262 282q-60 66 -83 108q-24 45 -24 96q0 84 56.5 140t136.5 56q63 0 112.5 -35t71.5 -93q22 58 71.5 93t112.5 35q80 0 136.5 -56t56.5 -140zM696 463q0 48 -29.5 77.5t-74.5 29.5q-92 0 -136 -145h-51
q-21 68 -55.5 106.5t-81.5 38.5q-45 0 -74.5 -29.5t-29.5 -77.5q0 -34 17.5 -65t58.5 -75l190 -210l190 210q41 44 58.5 75t17.5 65z" />
    <glyph glyph-name="heart" unicode="&#x2665;" horiz-adv-x="860" 
d="M422 -11l-262 282q-60 66 -83 108q-24 45 -24 96q0 84 56.5 140t136.5 56q63 0 112.5 -35t71.5 -93q22 58 71.5 93t112.5 35q80 0 136.5 -56t56.5 -140q0 -51 -24 -95q-25 -45 -83 -109l-262 -282h-16z" />
    <glyph glyph-name="uni275B" unicode="&#x275b;" horiz-adv-x="670" 
d="M614 206q0 -90 -64 -153.5t-169 -63.5q-131 -3 -229 98t-96 240q-2 141 98 243t243 100q117 0 205 -70l-42 -68q-71 53 -158 53q-107 0 -180 -74.5t-73 -183.5q0 -69 29 -125v5q0 89 64.5 153.5t153.5 64.5t153.5 -64.5t64.5 -154.5z" />
    <glyph glyph-name="uni275C" unicode="&#x275c;" horiz-adv-x="670" 
d="M614 333q2 -141 -98 -243t-243 -100q-117 0 -205 70l43 68q70 -53 157 -53q107 0 180 74.5t73 183.5q0 69 -29 125v-5q0 -89 -64.5 -153.5t-153.5 -64.5t-153.5 64.5t-64.5 154.5t64.5 153.5t169.5 63.5q132 3 229.5 -98t94.5 -240z" />
    <glyph glyph-name="uni275D" unicode="&#x275d;" horiz-adv-x="1285" 
d="M1229 206q0 -90 -64 -153.5t-169 -63.5q-131 -3 -229 98t-96 240q-2 141 98 243t243 100q117 0 205 -70l-42 -68q-71 53 -158 53q-107 0 -180 -74.5t-73 -183.5q0 -69 29 -125v5q0 89 64.5 153.5t153.5 64.5t153.5 -64.5t64.5 -154.5zM614 206q0 -90 -64 -153.5
t-169 -63.5q-131 -3 -229 98t-96 240q-2 141 98 243t243 100q117 0 205 -70l-42 -68q-71 53 -158 53q-107 0 -180 -74.5t-73 -183.5q0 -69 29 -125v5q0 89 64.5 153.5t153.5 64.5t153.5 -64.5t64.5 -154.5z" />
    <glyph glyph-name="uni275E" unicode="&#x275e;" horiz-adv-x="1285" 
d="M604 333q2 -141 -98 -243t-243 -100q-117 0 -205 70l43 68q70 -53 157 -53q107 0 180 74.5t73 183.5q0 69 -29 125v-5q0 -89 -64.5 -153.5t-153.5 -64.5t-153.5 64.5t-64.5 154.5t64.5 153.5t169.5 63.5q132 3 229.5 -98t94.5 -240zM1229 333q2 -141 -98 -243t-243 -100
q-117 0 -205 70l43 68q70 -53 157 -53q107 0 180 74.5t73 183.5q0 69 -29 125v-5q0 -89 -64.5 -153.5t-153.5 -64.5t-153.5 64.5t-64.5 154.5t64.5 153.5t169.5 63.5q132 3 229.5 -98t94.5 -240z" />
    <glyph glyph-name="uni2776" unicode="&#x2776;" horiz-adv-x="978" 
d="M58 330q-2 114 56.5 214.5t159 159.5t214.5 57q114 2 215 -57t160 -159.5t57 -214.5q2 -114 -57 -214.5t-160 -159.5t-215 -57q-114 -2 -214.5 57t-159 159.5t-56.5 214.5zM389 105h200v64h-61v385h-135v-64h61v-321h-65v-64z" />
    <glyph glyph-name="uni2777" unicode="&#x2777;" horiz-adv-x="978" 
d="M58 330q-2 114 56.5 214.5t159 159.5t214.5 57q114 2 215 -57t160 -159.5t57 -214.5q2 -114 -57 -214.5t-160 -159.5t-215 -57q-114 -2 -214.5 57t-159 159.5t-56.5 214.5zM371 105h237v64h-122l59 92q58 101 58 166t-32 100.5t-84 35.5t-84.5 -38t-32.5 -102
q0 -17 3 -36h69q-2 26 -2 28q0 77 45 77q42 0 42 -70q0 -57 -46 -127l-110 -168v-22z" />
    <glyph glyph-name="uni2778" unicode="&#x2778;" horiz-adv-x="978" 
d="M58 330q-2 114 56.5 214.5t159 159.5t214.5 57q114 2 215 -57t160 -159.5t57 -214.5q2 -114 -57 -214.5t-160 -159.5t-215 -57q-114 -2 -214.5 57t-159 159.5t-56.5 214.5zM614 241q0 64 -25 100t-70 40l79 135v38h-219v-69h129l-77 -133l-1 -36h45q62 0 62 -77
q0 -32 -15.5 -52.5t-37.5 -20.5q-41 0 -71 55l-53 -39q40 -87 131 -87q54 0 88.5 40.5t34.5 105.5z" />
    <glyph glyph-name="uni2779" unicode="&#x2779;" horiz-adv-x="978" 
d="M58 330q-2 114 56.5 214.5t159 159.5t214.5 57q114 2 215 -57t160 -159.5t57 -214.5q2 -114 -57 -214.5t-160 -159.5t-215 -57q-114 -2 -214.5 57t-159 159.5t-56.5 214.5zM514 105h75v76h38v68h-38v140h-75v-140h-79l59 305h-74l-69 -346v-27h163v-76z" />
    <glyph glyph-name="uni277A" unicode="&#x277a;" horiz-adv-x="978" 
d="M58 330q-2 114 56.5 214.5t159 159.5t214.5 57q114 2 215 -57t160 -159.5t57 -214.5q2 -114 -57 -214.5t-160 -159.5t-215 -57q-114 -2 -214.5 57t-159 159.5t-56.5 214.5zM614 244q0 67 -29.5 102.5t-78.5 35.5q-22 0 -48 -2v105h123v69h-194v-238h91q59 0 59 -75
q0 -35 -15 -55t-40 -20q-24 0 -38.5 12.5t-30.5 42.5l-53 -39q40 -87 128 -87q56 0 91 40t35 109z" />
    <glyph glyph-name="uni277B" unicode="&#x277b;" horiz-adv-x="978" 
d="M58 330q-2 114 56.5 214.5t159 159.5t214.5 57q114 2 215 -57t160 -159.5t57 -214.5q2 -114 -57 -214.5t-160 -159.5t-215 -57q-114 -2 -214.5 57t-159 159.5t-56.5 214.5zM608 254q0 130 -73 143q-3 1 -15 1q-14 0 -26 -5l79 161h-87l-74 -158l-18 -37q-24 -51 -24 -105
q0 -74 33 -115t85 -41q53 0 86.5 40.5t33.5 115.5zM444 254q0 85 44 85q46 0 46 -85q0 -86 -45 -86t-45 86z" />
    <glyph glyph-name="uni277C" unicode="&#x277c;" horiz-adv-x="978" 
d="M58 330q-2 114 56.5 214.5t159 159.5t214.5 57q114 2 215 -57t160 -159.5t57 -214.5q2 -114 -57 -214.5t-160 -159.5t-215 -57q-114 -2 -214.5 57t-159 159.5t-56.5 214.5zM388 106h76l143 411v38h-241v-69h157z" />
    <glyph glyph-name="uni277D" unicode="&#x277d;" horiz-adv-x="978" 
d="M58 330q-2 114 56.5 214.5t159 159.5t214.5 57q114 2 215 -57t160 -159.5t57 -214.5q2 -114 -57 -214.5t-160 -159.5t-215 -57q-114 -2 -214.5 57t-159 159.5t-56.5 214.5zM612 223q0 75 -73 116q59 41 59 106q0 55 -29.5 85.5t-79.5 30.5q-51 0 -80 -30.5t-29 -84.5
q0 -65 58 -107q-73 -41 -73 -115q0 -59 33.5 -92.5t90.5 -33.5t90 33t33 92zM449 439q0 61 40 61q41 0 41 -60q0 -26 -8.5 -39.5t-33.5 -31.5q-22 18 -30.5 32t-8.5 38zM439 228q0 31 10 47t39 36q29 -19 39.5 -35.5t10.5 -48.5q0 -67 -49 -67q-26 0 -38 16t-12 52z" />
    <glyph glyph-name="uni277E" unicode="&#x277e;" horiz-adv-x="978" 
d="M58 330q-2 114 56.5 214.5t159 159.5t214.5 57q114 2 215 -57t160 -159.5t57 -214.5q2 -114 -57 -214.5t-160 -159.5t-215 -57q-114 -2 -214.5 57t-159 159.5t-56.5 214.5zM410 101h87l74 154l16 32q26 54 26 114q0 76 -33 116.5t-86 40.5t-86 -40.5t-33 -115.5
q0 -57 21 -94.5t57 -44.5q3 -1 12 -1q14 0 26 6zM450 401q0 86 44 86q45 0 45 -86q0 -84 -45 -84q-44 0 -44 84z" />
    <glyph glyph-name="uni2780" unicode="&#x2780;" horiz-adv-x="978" 
d="M58 330q-2 114 56.5 214.5t159 159.5t214.5 57q114 2 215 -57t160 -159.5t57 -214.5q2 -114 -57 -214.5t-160 -159.5t-215 -57q-114 -2 -214.5 57t-159 159.5t-56.5 214.5zM847 330q2 149 -105 256.5t-254 104.5q-147 2 -253.5 -104.5t-103.5 -256.5
q-3 -150 103.5 -256.5t253.5 -104.5q147 -3 254 104.5t105 256.5zM389 105v64h65v321h-61v64h135v-385h61v-64h-200z" />
    <glyph glyph-name="uni2781" unicode="&#x2781;" horiz-adv-x="978" 
d="M58 330q-2 114 56.5 214.5t159 159.5t214.5 57q114 2 215 -57t160 -159.5t57 -214.5q2 -114 -57 -214.5t-160 -159.5t-215 -57q-114 -2 -214.5 57t-159 159.5t-56.5 214.5zM847 330q2 149 -105 256.5t-254 104.5q-147 2 -253.5 -104.5t-103.5 -256.5
q-3 -150 103.5 -256.5t253.5 -104.5q147 -3 254 104.5t105 256.5zM371 105v37l101 142q55 76 55 143q0 65 -42 65q-45 0 -45 -72q0 -7 2 -33h-69q-3 20 -3 41q0 61 32.5 98t84.5 37t84 -34.5t32 -95.5q0 -82 -72 -183l-57 -81h134v-64h-237z" />
    <glyph glyph-name="uni2782" unicode="&#x2782;" horiz-adv-x="978" 
d="M58 330q-2 114 56.5 214.5t159 159.5t214.5 57q114 2 215 -57t160 -159.5t57 -214.5q2 -114 -57 -214.5t-160 -159.5t-215 -57q-114 -2 -214.5 57t-159 159.5t-56.5 214.5zM847 330q2 149 -105 256.5t-254 104.5q-147 2 -253.5 -104.5t-103.5 -256.5
q-3 -150 103.5 -256.5t253.5 -104.5q147 -3 254 104.5t105 256.5zM360 182l53 39q30 -55 71 -55q22 0 37.5 20.5t15.5 52.5q0 77 -62 77h-45l1 36l77 133h-129v69h219v-38l-79 -135q45 -4 70 -40t25 -100q0 -65 -34.5 -105.5t-88.5 -40.5q-91 0 -131 87z" />
    <glyph glyph-name="uni2783" unicode="&#x2783;" horiz-adv-x="978" 
d="M58 330q-2 114 56.5 214.5t159 159.5t214.5 57q114 2 215 -57t160 -159.5t57 -214.5q2 -114 -57 -214.5t-160 -159.5t-215 -57q-114 -2 -214.5 57t-159 159.5t-56.5 214.5zM847 330q2 149 -105 256.5t-254 104.5q-147 2 -253.5 -104.5t-103.5 -256.5
q-3 -150 103.5 -256.5t253.5 -104.5q147 -3 254 104.5t105 256.5zM514 105v76h-163v27l69 346h74l-59 -305h79v140h75v-140h38v-68h-38v-76h-75z" />
    <glyph glyph-name="uni2784" unicode="&#x2784;" horiz-adv-x="978" 
d="M58 330q-2 114 56.5 214.5t159 159.5t214.5 57q114 2 215 -57t160 -159.5t57 -214.5q2 -114 -57 -214.5t-160 -159.5t-215 -57q-114 -2 -214.5 57t-159 159.5t-56.5 214.5zM847 330q2 149 -105 256.5t-254 104.5q-147 2 -253.5 -104.5t-103.5 -256.5
q-3 -150 103.5 -256.5t253.5 -104.5q147 -3 254 104.5t105 256.5zM360 182l53 39q16 -30 30.5 -42.5t38.5 -12.5q25 0 40 20t15 55q0 75 -59 75h-91v238h194v-69h-123v-105q26 2 48 2q49 0 78.5 -35.5t29.5 -102.5q0 -69 -35 -109t-91 -40q-88 0 -128 87z" />
    <glyph glyph-name="uni2785" unicode="&#x2785;" horiz-adv-x="978" 
d="M58 330q-2 114 56.5 214.5t159 159.5t214.5 57q114 2 215 -57t160 -159.5t57 -214.5q2 -114 -57 -214.5t-160 -159.5t-215 -57q-114 -2 -214.5 57t-159 159.5t-56.5 214.5zM847 330q2 149 -105 256.5t-254 104.5q-147 2 -253.5 -104.5t-103.5 -256.5
q-3 -150 103.5 -256.5t253.5 -104.5q147 -3 254 104.5t105 256.5zM370 254q0 41 7 62q5 14 12.5 31t14.5 31.5t8 17.5l74 158h87l-79 -161q12 5 26 5q12 0 15 -1q73 -13 73 -143q0 -75 -33.5 -115.5t-86.5 -40.5q-52 0 -85 41t-33 115zM534 254q0 85 -46 85q-44 0 -44 -85
q0 -86 45 -86t45 86z" />
    <glyph glyph-name="uni2786" unicode="&#x2786;" horiz-adv-x="978" 
d="M58 330q-2 114 56.5 214.5t159 159.5t214.5 57q114 2 215 -57t160 -159.5t57 -214.5q2 -114 -57 -214.5t-160 -159.5t-215 -57q-114 -2 -214.5 57t-159 159.5t-56.5 214.5zM847 330q2 149 -105 256.5t-254 104.5q-147 2 -253.5 -104.5t-103.5 -256.5
q-3 -150 103.5 -256.5t253.5 -104.5q147 -3 254 104.5t105 256.5zM388 106l135 380h-157v69h241v-38l-143 -411h-76z" />
    <glyph glyph-name="uni2787" unicode="&#x2787;" horiz-adv-x="978" 
d="M58 330q-2 114 56.5 214.5t159 159.5t214.5 57q114 2 215 -57t160 -159.5t57 -214.5q2 -114 -57 -214.5t-160 -159.5t-215 -57q-114 -2 -214.5 57t-159 159.5t-56.5 214.5zM847 330q2 149 -105 256.5t-254 104.5q-147 2 -253.5 -104.5t-103.5 -256.5
q-3 -150 103.5 -256.5t253.5 -104.5q147 -3 254 104.5t105 256.5zM365 224q0 74 73 115q-58 42 -58 107q0 54 29 84.5t80 30.5q50 0 79.5 -30.5t29.5 -85.5q0 -65 -59 -106q73 -41 73 -116q0 -59 -33 -92t-90 -33t-90.5 33.5t-33.5 92.5zM530 440q0 60 -41 60q-40 0 -40 -61
q0 -24 8.5 -38t30.5 -32q25 18 33.5 31.5t8.5 39.5zM538 227q0 32 -10.5 48.5t-39.5 35.5q-29 -20 -39 -36t-10 -47q0 -36 12 -52t38 -16q49 0 49 67z" />
    <glyph glyph-name="uni2788" unicode="&#x2788;" horiz-adv-x="978" 
d="M58 330q-2 114 56.5 214.5t159 159.5t214.5 57q114 2 215 -57t160 -159.5t57 -214.5q2 -114 -57 -214.5t-160 -159.5t-215 -57q-114 -2 -214.5 57t-159 159.5t-56.5 214.5zM847 330q2 149 -105 256.5t-254 104.5q-147 2 -253.5 -104.5t-103.5 -256.5
q-3 -150 103.5 -256.5t253.5 -104.5q147 -3 254 104.5t105 256.5zM410 101l81 167q-12 -6 -26 -6q-9 0 -12 1q-36 7 -57 44.5t-21 94.5q0 75 33 115.5t86 40.5t86 -40.5t33 -116.5q0 -16 -1.5 -31.5t-5 -29t-7 -24.5t-8.5 -21.5t-7.5 -16.5t-7.5 -14t-5 -9l-74 -154h-87z
M539 401q0 86 -45 86q-44 0 -44 -86q0 -84 44 -84q45 0 45 84z" />
    <glyph glyph-name="uni27F5" unicode="&#x27f5;" horiz-adv-x="1216" 
d="M1166 274l-965 2l182 -183l-58 -58l-272 272v21l272 272l58 -58l-183 -184l91 1h875v-85z" />
    <glyph glyph-name="uni27F6" unicode="&#x27f6;" horiz-adv-x="1216" 
d="M891 600l271 -273v-21l-272 -272l-57 58l182 184l-966 -2v85h876l90 -1l-182 183z" />
    <glyph glyph-name="uniF8FF" unicode="&#xf8ff;" horiz-adv-x="656" 
d="M49 0v660h235l24 -285l7 -145h20l8 145l24 285h241v-660h-155v359h-21l-7 -108l-39 -251h-127l-37 251l-8 108h-21v-359h-144zM45 -168v132h566v-132h-566z" />
    <glyph glyph-name="Iacute_J.loclNLD" horiz-adv-x="463" 
d="M50 0v660h97v-660h-97zM62 724l51 186h113v-16l-96 -170h-68zM207 -2v85q38 -5 45 -5q64 0 64 69v513h96v-533q0 -138 -139 -138q-31 0 -66 9zM314 724l51 186h113v-16l-96 -170h-68z" />
    <glyph glyph-name="Cacute.loclPLK" horiz-adv-x="426" 
d="M30 331q0 173 48.5 256.5t149.5 83.5q72 0 114.5 -40.5t59.5 -126.5l-88 -22q-22 100 -86 100q-52 0 -76 -60.5t-24 -190.5q0 -132 24 -192.5t76 -60.5q64 0 86 100l88 -22q-17 -86 -59.5 -126.5t-114.5 -40.5q-101 0 -149.5 84t-48.5 258zM193 724l23 186h113v-16
l-68 -170h-68z" />
    <glyph glyph-name="Nacute.loclPLK" horiz-adv-x="485" 
d="M338 660h97v-660h-52l-236 411v-411h-97v660h52l236 -412v412zM209 724l23 186h113v-16l-68 -170h-68z" />
    <glyph glyph-name="Oacute.loclPLK" horiz-adv-x="464" 
d="M30 331q0 175 49 257.5t152 82.5q104 0 153.5 -82.5t49.5 -256.5q0 -175 -49.5 -259t-153.5 -84q-103 0 -152 83.5t-49 258.5zM336 331q0 133 -24.5 192t-80.5 59q-54 0 -78.5 -58.5t-24.5 -192.5q0 -135 24 -194t79 -59q56 0 80.5 59t24.5 194zM198 724l23 186h113v-16
l-68 -170h-68z" />
    <glyph glyph-name="Sacute.loclPLK" horiz-adv-x="411" 
d="M18 150l84 30q17 -55 41 -79t62 -24q37 0 58.5 22t21.5 59q0 30 -16 55t-60 64l-50 45q-61 57 -86.5 99.5t-25.5 90.5q0 72 46 115.5t121 43.5q67 0 108.5 -36.5t63.5 -113.5l-85 -28q-14 49 -33 69.5t-50 20.5q-34 0 -54 -19t-20 -51q0 -25 15 -48.5t52 -57.5l51 -46
q69 -62 93 -107q27 -45 27 -98q0 -76 -48.5 -121.5t-128.5 -45.5q-146 0 -187 161zM184 724l23 186h113v-16l-68 -170h-68z" />
    <glyph glyph-name="Zacute.loclPLK" horiz-adv-x="384" 
d="M139 88h229v-88h-352v42l230 530h-211v88h329v-42zM161 724l23 186h113v-16l-68 -170h-68z" />
    <glyph glyph-name="Idotaccent.loclTRK" horiz-adv-x="197" 
d="M50 0v660h97v-660h-97zM36 811q0 27 18.5 45.5t43.5 18.5t43.5 -18.5t18.5 -45.5q0 -26 -18.5 -44t-43.5 -18t-43.5 18t-18.5 44z" />
    <glyph glyph-name="A.ordn" horiz-adv-x="301" 
d="M213 244l-14 58h-98l-13 -58h-82l123 416h42l124 -416h-82zM151 503l-35 -134h67z" />
    <glyph glyph-name="O.ordn" horiz-adv-x="314" 
d="M23 453q0 214 134 214t134 -214q0 -216 -134 -216q-68 0 -101 53t-33 163zM213 452q0 75 -13 107.5t-43 32.5t-42.5 -31.5t-12.5 -107.5q0 -77 12.5 -109t42.5 -32t43 32.5t13 107.5z" />
    <glyph glyph-name="iacute_j.loclNLD" horiz-adv-x="375" 
d="M47 0v491h94v-491h-94zM60 560l30 213h113v-16l-75 -197h-68zM161 -185v81q4 0 9 -0.5t8 -1t4 -0.5q52 0 52 58v539h94v-552q0 -62 -33 -95.5t-93 -33.5q-24 0 -41 5zM248 560l30 213h113v-16l-75 -197h-68z" />
    <glyph glyph-name="cacute.loclPLK" horiz-adv-x="355" 
d="M29 246q0 256 164 256q59 0 93.5 -32t49.5 -100l-82 -22q-9 37 -23 52.5t-38 15.5q-38 0 -53.5 -38.5t-15.5 -131.5q0 -94 15.5 -133t53.5 -39q25 0 38.5 15t22.5 53l82 -21q-15 -68 -49.5 -100t-93.5 -32q-83 0 -123.5 63t-40.5 194zM158 560l23 213h113v-16l-68 -197
h-68z" />
    <glyph glyph-name="nacute.loclPLK" horiz-adv-x="409" 
d="M365 357v-357h-93v348q0 30 -18 49t-46 19q-29 0 -48 -19t-19 -49v-348h-94v491h87v-33q33 44 99 44q59 0 95.5 -40t36.5 -105zM172 560l23 213h113v-16l-68 -197h-68z" />
    <glyph glyph-name="oacute.loclPLK" horiz-adv-x="387" 
d="M29 247q0 255 164 255t164 -255q0 -258 -164 -258t-164 258zM262 244q0 92 -16 132t-53 40q-36 0 -52.5 -40t-16.5 -132t16 -131t53 -39t53 39t16 131zM157 560l23 213h113v-16l-68 -197h-68z" />
    <glyph glyph-name="sacute.loclPLK" horiz-adv-x="343" 
d="M15 98l67 40q32 -66 86 -66q26 0 42 15t16 40q0 19 -12 34.5t-42 37.5l-35 24q-51 37 -74.5 72t-23.5 76q0 59 38.5 95t101.5 36q103 0 142 -96l-67 -42q-24 56 -71 56q-23 0 -36.5 -13t-13.5 -35q0 -34 45 -69l32 -22q59 -42 84 -77t25 -78q0 -61 -41.5 -99t-107.5 -38
q-112 0 -155 109zM138 560l23 213h113v-16l-68 -197h-68z" />
    <glyph glyph-name="zacute.loclPLK" horiz-adv-x="324" 
d="M128 82h183v-82h-299v42l180 367h-165v82h281v-43zM129 560l23 213h113v-16l-68 -197h-68z" />
    <glyph glyph-name="i.loclTRK.loclTRK" horiz-adv-x="187" 
d="M47 0v491h94v-491h-94zM31 671q0 27 18.5 45t44.5 18t44.5 -18t18.5 -45q0 -26 -18.5 -44.5t-44.5 -18.5t-44.5 18.5t-18.5 44.5z" />
    <glyph glyph-name="a.ss01" horiz-adv-x="404" 
d="M271 491h86v-491h-86v47q-28 -58 -97 -58q-145 0 -145 256q0 258 144 258q70 0 98 -58v46zM263 247q0 91 -15.5 130.5t-51.5 39.5q-38 0 -55 -40t-17 -130t17 -129.5t55 -39.5q36 0 51.5 38.5t15.5 130.5z" />
    <glyph glyph-name="y.ss01" horiz-adv-x="409" 
d="M270 491h93v-517q0 -76 -45 -120.5t-122 -44.5q-110 0 -159 97l65 51q20 -34 40 -48.5t48 -14.5q37 0 58.5 22t21.5 60v73q-35 -38 -93 -38q-59 0 -96 40t-37 105v335h94v-326q0 -31 17.5 -49.5t46.5 -18.5t48.5 19t19.5 49v326z" />
    <glyph glyph-name="aacute.ss01" horiz-adv-x="404" 
d="M271 491h86v-491h-86v47q-28 -58 -97 -58q-145 0 -145 256q0 258 144 258q70 0 98 -58v46zM263 247q0 91 -15.5 130.5t-51.5 39.5q-38 0 -55 -40t-17 -130t17 -129.5t55 -39.5q36 0 51.5 38.5t15.5 130.5zM162 576l51 188h111v-16l-95 -172h-67z" />
    <glyph glyph-name="abreve.ss01" horiz-adv-x="404" 
d="M271 491h86v-491h-86v47q-28 -58 -97 -58q-145 0 -145 256q0 258 144 258q70 0 98 -58v46zM263 247q0 91 -15.5 130.5t-51.5 39.5q-38 0 -55 -40t-17 -130t17 -129.5t55 -39.5q36 0 51.5 38.5t15.5 130.5zM73 709v49h75v-50q0 -29 13 -45t35 -16t34.5 16t12.5 45v50h76
v-49q0 -64 -32.5 -99.5t-90.5 -35.5t-90.5 35.5t-32.5 99.5z" />
    <glyph glyph-name="acircumflex.ss01" horiz-adv-x="404" 
d="M271 491h86v-491h-86v47q-28 -58 -97 -58q-145 0 -145 256q0 258 144 258q70 0 98 -58v46zM263 247q0 91 -15.5 130.5t-51.5 39.5q-38 0 -55 -40t-17 -130t17 -129.5t55 -39.5q36 0 51.5 38.5t15.5 130.5zM320 576h-70l-54 85l-54 -85h-70l93 188h62z" />
    <glyph glyph-name="adieresis.ss01" horiz-adv-x="404" 
d="M271 491h86v-491h-86v47q-28 -58 -97 -58q-145 0 -145 256q0 258 144 258q70 0 98 -58v46zM263 247q0 91 -15.5 130.5t-51.5 39.5q-38 0 -55 -40t-17 -130t17 -129.5t55 -39.5q36 0 51.5 38.5t15.5 130.5zM55 672q0 25 17 42t41 17q23 0 40.5 -17.5t17.5 -41.5
t-17.5 -41.5t-40.5 -17.5q-24 0 -41 17.5t-17 41.5zM221 672q0 25 17 42t41 17q23 0 40.5 -17.5t17.5 -41.5t-17.5 -41.5t-40.5 -17.5q-24 0 -41 17t-17 42z" />
    <glyph glyph-name="agrave.ss01" horiz-adv-x="404" 
d="M271 491h86v-491h-86v47q-28 -58 -97 -58q-145 0 -145 256q0 258 144 258q70 0 98 -58v46zM263 247q0 91 -15.5 130.5t-51.5 39.5q-38 0 -55 -40t-17 -130t17 -129.5t55 -39.5q36 0 51.5 38.5t15.5 130.5zM164 576l-95 172v16h111l51 -188h-67z" />
    <glyph glyph-name="amacron.ss01" horiz-adv-x="404" 
d="M271 491h86v-491h-86v47q-28 -58 -97 -58q-145 0 -145 256q0 258 144 258q70 0 98 -58v46zM263 247q0 91 -15.5 130.5t-51.5 39.5q-38 0 -55 -40t-17 -130t17 -129.5t55 -39.5q36 0 51.5 38.5t15.5 130.5zM91 624v80h210v-80h-210z" />
    <glyph glyph-name="aogonek.ss01" horiz-adv-x="404" 
d="M271 491h86v-491h-86v47q-28 -58 -97 -58q-145 0 -145 256q0 258 144 258q70 0 98 -58v46zM263 247q0 91 -15.5 130.5t-51.5 39.5q-38 0 -55 -40t-17 -130t17 -129.5t55 -39.5q36 0 51.5 38.5t15.5 130.5zM216 -110q0 27 19 61q21 36 74 100l48 -51l-18 -24
q-36 -48 -36 -67q0 -30 31 -30q11 0 23 3v-64q-16 -9 -49 -9q-43 0 -67.5 22t-24.5 59z" />
    <glyph glyph-name="aring.ss01" horiz-adv-x="404" 
d="M271 491h86v-491h-86v47q-28 -58 -97 -58q-145 0 -145 256q0 258 144 258q70 0 98 -58v46zM263 247q0 91 -15.5 130.5t-51.5 39.5q-38 0 -55 -40t-17 -130t17 -129.5t55 -39.5q36 0 51.5 38.5t15.5 130.5zM87 666q0 47 31.5 78.5t77.5 31.5t77.5 -32t31.5 -78
t-31.5 -77.5t-77.5 -31.5t-77.5 31.5t-31.5 77.5zM242 666q0 20 -13.5 34t-32.5 14t-32 -14t-13 -34t13 -33.5t32 -13.5t32.5 14t13.5 33z" />
    <glyph glyph-name="atilde.ss01" horiz-adv-x="404" 
d="M271 491h86v-491h-86v47q-28 -58 -97 -58q-145 0 -145 256q0 258 144 258q70 0 98 -58v46zM263 247q0 91 -15.5 130.5t-51.5 39.5q-38 0 -55 -40t-17 -130t17 -129.5t55 -39.5q36 0 51.5 38.5t15.5 130.5zM204 612l-21 19q-19 20 -32 20q-17 0 -17 -28v-25h-73
q-1 6 -1 34q0 50 19.5 77.5t54.5 27.5q25 0 54 -23l22 -20q20 -20 31 -20q17 0 17 29v24h72q2 -14 2 -34q0 -50 -19.5 -77t-54.5 -27q-29 0 -54 23z" />
    <glyph glyph-name="yacute.ss01" horiz-adv-x="409" 
d="M270 491h93v-517q0 -76 -45 -120.5t-122 -44.5q-110 0 -159 97l65 51q20 -34 40 -48.5t48 -14.5q37 0 58.5 22t21.5 60v73q-35 -38 -93 -38q-59 0 -96 40t-37 105v335h94v-326q0 -31 17.5 -49.5t46.5 -18.5t48.5 19t19.5 49v326zM170 576l51 188h111v-16l-95 -172h-67z
" />
    <glyph glyph-name="ycircumflex.ss01" horiz-adv-x="409" 
d="M270 491h93v-517q0 -76 -45 -120.5t-122 -44.5q-110 0 -159 97l65 51q20 -34 40 -48.5t48 -14.5q37 0 58.5 22t21.5 60v73q-35 -38 -93 -38q-59 0 -96 40t-37 105v335h94v-326q0 -31 17.5 -49.5t46.5 -18.5t48.5 19t19.5 49v326zM328 576h-70l-54 85l-54 -85h-70l93 188
h62z" />
    <glyph glyph-name="ydieresis.ss01" horiz-adv-x="409" 
d="M270 491h93v-517q0 -76 -45 -120.5t-122 -44.5q-110 0 -159 97l65 51q20 -34 40 -48.5t48 -14.5q37 0 58.5 22t21.5 60v73q-35 -38 -93 -38q-59 0 -96 40t-37 105v335h94v-326q0 -31 17.5 -49.5t46.5 -18.5t48.5 19t19.5 49v326zM63 672q0 25 17 42t41 17
q23 0 40.5 -17.5t17.5 -41.5t-17.5 -41.5t-40.5 -17.5q-24 0 -41 17.5t-17 41.5zM229 672q0 25 17 42t41 17q23 0 40.5 -17.5t17.5 -41.5t-17.5 -41.5t-40.5 -17.5q-24 0 -41 17t-17 42z" />
    <glyph glyph-name="ygrave.ss01" horiz-adv-x="409" 
d="M270 491h93v-517q0 -76 -45 -120.5t-122 -44.5q-110 0 -159 97l65 51q20 -34 40 -48.5t48 -14.5q37 0 58.5 22t21.5 60v73q-35 -38 -93 -38q-59 0 -96 40t-37 105v335h94v-326q0 -31 17.5 -49.5t46.5 -18.5t48.5 19t19.5 49v326zM171 576l-95 172v16h111l51 -188h-67z
" />
    <glyph glyph-name="ordfeminine.ss01" horiz-adv-x="275" 
d="M171 556h69v-312h-69v26q-19 -33 -58 -33q-91 0 -91 162q0 164 91 164q39 0 58 -34v27zM169 400q0 51 -8 71.5t-28 20.5q-19 0 -27 -20.5t-8 -71.5t8 -72t27 -21q20 0 28 21t8 72z" />
    <glyph glyph-name="uni0414.loclBGR" horiz-adv-x="519" 
d="M461 89h46v-230h-97v141h-300v-141h-97v230h47l176 571h51zM262 444l-102 -355h201z" />
    <glyph glyph-name="uni041B.loclBGR" horiz-adv-x="449" 
d="M441 0h-102l-114 423l-115 -423h-102l190 660h51z" />
    <glyph glyph-name="uni0424.loclBGR" horiz-adv-x="562" 
d="M330 25v-65h-97v65q-98 8 -150.5 87t-52.5 220q0 140 52.5 218t150.5 86v64h97v-64q97 -8 149.5 -86t52.5 -218t-52.5 -219.5t-149.5 -87.5zM236 113v435q-58 -4 -84.5 -55.5t-26.5 -159.5q0 -109 26.5 -162t84.5 -58zM437 333q0 108 -26 159.5t-84 55.5v-435
q57 5 83.5 58t26.5 162z" />
    <glyph glyph-name="uni0432.loclBGR" horiz-adv-x="416" 
d="M386 213q0 -224 -173 -224q-79 0 -122.5 48t-43.5 134v408q0 86 43 134t120 48t117.5 -48t40.5 -139q0 -125 -75 -168q93 -39 93 -193zM141 581v-142h50q83 0 83 126q0 59 -15 85t-50 26q-68 0 -68 -95zM293 215q0 141 -101 141h-51v-187q0 -95 72 -95q41 0 60.5 34
t19.5 107z" />
    <glyph glyph-name="uni0433.loclBGR" horiz-adv-x="341" 
d="M24 126q0 44 24 79t83 76l33 23q46 33 46 68q0 22 -14 35.5t-37 13.5t-39 -12.5t-32 -42.5l-66 40q41 96 143 96q62 0 100 -36t38 -95q0 -42 -22.5 -76.5t-74.5 -69.5l-35 -24q-30 -22 -42 -38.5t-12 -37.5q0 -24 16 -38.5t42 -14.5q28 0 47 14t39 49l65 -40
q-42 -106 -155 -106q-67 0 -107 37.5t-40 99.5z" />
    <glyph glyph-name="uni0434.loclBGR" horiz-adv-x="402" 
d="M270 491h85v-517q0 -76 -45 -120.5t-122 -44.5q-107 0 -159 97l65 51q39 -63 88 -63q37 0 58.5 22t21.5 60v78q-28 -42 -91 -42q-142 0 -142 243q0 247 143 247q67 0 98 -58v47zM262 255q0 85 -15.5 123t-51.5 38q-72 0 -72 -161q0 -159 72 -159q36 0 51.5 37.5
t15.5 121.5z" />
    <glyph glyph-name="uni0436.loclBGR" horiz-adv-x="584" 
d="M244 750h94v-750h-94v255l-133 -255h-106l137 253l-136 238h105l133 -232v491zM441 254l138 -254h-106l-135 257l133 234h106z" />
    <glyph glyph-name="uni0437.loclBGR" horiz-adv-x="369" 
d="M342 3q0 -92 -43 -143.5t-120 -51.5q-126 0 -158 146l81 20q10 -44 28 -62.5t48 -18.5q73 0 73 116q0 118 -83 118h-64v82h63q32 0 51 28t19 77q0 102 -67 102q-28 0 -45 -17.5t-27 -58.5l-81 20q34 142 156 142q76 0 115.5 -46.5t39.5 -136.5q0 -103 -59 -150
q73 -42 73 -166z" />
    <glyph glyph-name="uni0438.loclBGR" horiz-adv-x="414" 
d="M268 491h94v-491h-87v35q-34 -46 -99 -46q-59 0 -95.5 40t-36.5 106v356h94v-349q0 -31 17.5 -49t46.5 -18t47.5 18.5t18.5 48.5v349z" />
    <glyph glyph-name="uni0439.loclBGR" horiz-adv-x="414" 
d="M268 491h94v-491h-87v35q-34 -46 -99 -46q-59 0 -95.5 40t-36.5 106v356h94v-349q0 -31 17.5 -49t46.5 -18t47.5 18.5t18.5 48.5v349zM81 709v49h75v-50q0 -65 48 -65q46 0 46 65v50h77v-49q0 -64 -32.5 -99.5t-90.5 -35.5t-90.5 35.5t-32.5 99.5z" />
    <glyph glyph-name="uni045D.loclBGR" horiz-adv-x="414" 
d="M268 491h94v-491h-87v35q-34 -46 -99 -46q-59 0 -95.5 40t-36.5 106v356h94v-349q0 -31 17.5 -49t46.5 -18t47.5 18.5t18.5 48.5v349zM171 576l-95 172v16h111l51 -188h-67z" />
    <glyph glyph-name="uni043A.loclBGR" horiz-adv-x="392" 
d="M387 0h-105l-141 270v-270h-94v750h94v-476l133 217h109l-137 -224z" />
    <glyph glyph-name="uni043B.loclBGR" horiz-adv-x="389" 
d="M382 0h-101l-87 298l-87 -298h-100l162 491h52z" />
    <glyph glyph-name="uni043F.loclBGR" horiz-adv-x="409" 
d="M365 357v-357h-93v348q0 30 -18 49t-46 19q-29 0 -48 -19t-19 -49v-348h-94v491h87v-33q33 44 99 44q59 0 95.5 -40t36.5 -105z" />
    <glyph glyph-name="uni0442.loclBGR" horiz-adv-x="628" 
d="M585 357v-357h-94v348q0 30 -17.5 49t-44.5 19q-29 0 -48 -19t-19 -49v-348h-94v348q0 30 -17 49t-44 19q-29 0 -47.5 -19t-18.5 -49v-348h-94v491h87v-32q34 43 103 43q65 0 100 -54q42 54 114 54q59 0 96.5 -40.5t37.5 -104.5z" />
    <glyph glyph-name="uni0446.loclBGR" horiz-adv-x="443" 
d="M362 82h61v-223h-94v141h-54v35q-33 -46 -99 -46q-59 0 -95.5 40t-36.5 106v356h94v-349q0 -31 17.5 -49t46.5 -18q28 0 47 18.5t19 47.5v350h94v-409z" />
    <glyph glyph-name="uni0448.loclBGR" horiz-adv-x="633" 
d="M488 491h93v-491h-87v39q-33 -50 -104 -50q-67 0 -102 59q-41 -59 -115 -59q-58 0 -93.5 40.5t-35.5 105.5v356h94v-347q0 -30 17 -48.5t44 -18.5q29 0 47.5 19t18.5 48v347h94v-347q0 -30 17.5 -48.5t44.5 -18.5q29 0 48 19t19 48v347z" />
    <glyph glyph-name="uni0449.loclBGR" horiz-adv-x="663" 
d="M581 79h61v-220h-94v141h-54v39q-33 -50 -104 -50q-67 0 -102 60q-38 -60 -115 -60q-57 0 -93 40t-36 106v356h94v-347q0 -30 17 -48.5t44 -18.5q29 0 47.5 18.5t18.5 48.5v347h94v-347q0 -30 17.5 -48.5t44.5 -18.5q29 0 47.5 19t18.5 48v347h94v-412z" />
    <glyph glyph-name="uni044C.loclBGR" horiz-adv-x="382" 
d="M360 162q0 -76 -43.5 -119t-118.5 -43t-114.5 41.5t-39.5 120.5v329h94v-166h46q85 0 130.5 -42.5t45.5 -120.5zM265 161q0 44 -20.5 63t-60.5 19h-46v-81q0 -42 14.5 -61t46.5 -19q31 0 48.5 20.5t17.5 58.5z" />
    <glyph glyph-name="uni044A.loclBGR" horiz-adv-x="442" 
d="M104 162v247h-91v82h185v-166h46q85 0 130.5 -42.5t45.5 -120.5q0 -76 -43.5 -119t-118.5 -43t-114.5 41.5t-39.5 120.5zM325 161q0 44 -20 63t-61 19h-46v-81q0 -80 61 -80q31 0 48.5 20.5t17.5 58.5z" />
    </font>
</defs>
</svg>
